<?xml version="1.0" standalone="no"?>
<!DOCTYPE svg PUBLIC "-//W3C//DTD SVG 1.1//EN" "http://www.w3.org/Graphics/SVG/1.1/DTD/svg11.dtd" >
<svg>
<metadata>
Created by FontForge 20090622 at Sun Nov 22 20:33:47 2015
 By deploy user
Generated in 2013 by FontLab Studio. Copyright info pending.
</metadata>
<defs>
<font id="LetristaScript" horiz-adv-x="648" >
  <font-face 
    font-family="Letrista Script"
    font-weight="400"
    font-stretch="normal"
    units-per-em="1000"
    panose-1="2 0 0 0 0 0 0 0 0 0"
    ascent="750"
    descent="-250"
    x-height="410"
    cap-height="916"
    bbox="-1714.85 -856.29 3749 1280.67"
    underline-thickness="50"
    underline-position="-50"
    unicode-range="U+0020-U+FB06"
  />
<missing-glyph horiz-adv-x="257" 
 />
    <glyph glyph-name="f_f" unicode="ff" horiz-adv-x="681" 
d="M526 513q1 10 72 12q84 1 80 -18q-9 -20 -39 -62q-67 -111 -156 -329q109 19 124 -81q14 -92 -50 -226q-58 -123 -131 -173q-82 -56 -132 26q-25 28 -19 111t31 187t64 217q-42 -62 -84 -104q14 -99 -52 -248q-62 -142 -141 -206q-94 -74 -152 21q-7 11 -13 24
q-33 72 10 273.5t122 401t145 286.5q1 10 74 13q92 3 89 -19q0 -1 -1 -2q-3 -8 -48 -77q-82 -140 -181 -394q95 35 131 -21q30 25 60 57t50 57t24 29q66 170 123 245zM15 -313q31 -32 79 58q50 95 68 209q4 27 5 48q-47 -1 -75 23q-104 -293 -77 -338zM374 -296v-1
q28 -17 67 67q44 93 52 184q6 77 -28 73q-8 -1 -19 -7q-110 -292 -72 -316z" />
    <glyph glyph-name="s_t" unicode="st" horiz-adv-x="639" 
d="M231 135q69 50 136 130q34 94 77 198q-53 1 -83 2.5t-29 3.5q3 6 9 26t13.5 26.5t24.5 6.5q42 0 94 4q8 20 64 146l2 2q0 1 1 1q20 15 85 21q93 8 95 -32q0 -8 -3 -16q-22 -59 -50 -107q88 8 192 19t165 18l61 6q10 0 0 -20t-29 -48t-20 -30q-7 -11 -134.5 -18.5
t-286.5 -9.5q-38 -53 -86 -111q-118 -246 -140 -392q1 -33 42.5 9t121 142.5t109.5 134.5q10 7 18.5 1.5t10.5 -12.5q-3 -5 -68 -107.5t-119.5 -174t-83.5 -80.5q-31 -7 -57.5 -8.5t-43 14.5t-23 47t1.5 88t32 137q-54 -46 -91 -71q1 -42 -0.5 -66t-13 -58.5t-34.5 -63.5
q-51 -65 -139 -66q-73 0 -110 40q-44 48 10 110q51 59 181 113q-9 31 -12.5 45.5t-10.5 49t-5 54t5 60.5q-42 -63 -127 -159q-12 -13 -18 18l-2 10q23 25 57 71l68 96t43 62q7 10 13 14q115 40 140 9q10 -13 -1 -34q-30 -60 -43.5 -106.5t-13 -78t4.5 -66.5zM148 33
q-3 -1 -14.5 -6t-14.5 -6.5t-12.5 -5.5t-12 -6t-9.5 -6.5t-9.5 -8t-7 -8.5t-6.5 -10.5t-4 -12.5q-9 -32 5.5 -51.5t38.5 -14.5t40 35q20 36 6 101z" />
    <glyph glyph-name="i_d" unicode="id" horiz-adv-x="777" 
d="M239 511q-14 -18 -46 -2q-40 20 -42 61q-1 30 22 62q61 83 129.5 134.5t130.5 67t115.5 9t96.5 -33.5q50 -32 74 -88.5t21.5 -148t-43 -229t-119.5 -318.5q-10 -25 -3 -29t19 1.5t19 12.5q33 38 77 96.5l74 99.5t33 44q10 7 18.5 1.5t10.5 -12.5l-54.5 -84.5l-57.5 -89
l-55 -83l-65 -93.5q-27 -34 -60.5 -11.5t-45.5 72.5q-2 -2 -11.5 -16.5t-14 -20t-14 -15.5t-19.5 -16q-54 -23 -93 -13t-57.5 45t-26 86.5t1.5 110.5q-139 -197 -193 -238q-57 -44 -77 38q-24 94 11 265q36 177 108 277q26 7 64 7q78 0 78 -33q0 -25 -51 -80
q-110 -217 -113 -319v-4q0 -18 11 -18q35 0 179 195q20 73 52 131.5t73.5 95.5t93 33t103.5 -58q55 141 28 243q-23 82 -89 88q-103 8 -250 -169q-21 -25 -43 -54zM476 192q-11 -7 -16.5 8t-0.5 20q3 5 7.5 13.5t15.5 31.5t18.5 43.5t13.5 42t3 36t-16 16.5
q-64 -71 -113 -233q-42 -137 -27 -182t83 57l97 218q-41 -56 -65 -71z" />
    <glyph glyph-name="r_t" unicode="rt" horiz-adv-x="662" 
d="M162 -21q-1 -31 54 3q57 35 128 112q35 142 130 369q-53 1 -83 2.5t-29 3.5q3 6 9 26t13.5 26.5t24.5 6.5q42 0 94 4q8 20 64 146q6 17 66 24q80 9 106 -20q13 -14 5 -37q-17 -49 -40 -97q87 8 189.5 18.5t162.5 17.5l59 6q10 0 0 -20t-29 -48t-20 -30q-12 -22 -402 -28
q-78 -149 -181 -286q-52 -138 -64 -217q1 -33 42.5 9t121 142.5t109.5 134.5q10 7 18.5 1.5t10.5 -12.5q-3 -5 -68 -107.5t-119.5 -174t-83.5 -80.5q-68 -19 -101.5 7t-22.5 122q-112 -102 -198 -112q-25 -7 -48 -1t-30 38q-8 37 24.5 184t71.5 199q-24 -2 -33 -2
q-4 -7 -22 -30l-45.5 -58l-42.5 -54h-3.5t-8 0.5t-8 3t-4 7t4.5 11.5q61 89 93 121q-31 3 -46 12t-7 29.5t45 50.5q35 28 46.5 34.5t19.5 2.5q23 -11 112 -9q75 1 84 -15q5 -9 -2 -24q-7 -13 -37 -65t-46 -83.5t-38.5 -80.5t-33.5 -94.5t-12 -88.5z" />
    <glyph glyph-name="e_e" unicode="ee" horiz-adv-x="657" 
d="M754 255q41 -5 7 -48q-240 -321 -369 -321q-60 0 -83 72q-168 -138 -252 -59q-61 59 -56 205q6 142 68 251q60 106 142 105q89 -1 96 -86q7 -92 -75 -222q-47 -74 -110 -135q41 -99 176 -2q-8 86 20 189t86.5 179.5t128.5 76.5q91 -1 89 -80q-2 -88 -103 -217
q-51 -65 -115 -121q11 -87 91 -46q92 47 259 259zM186 350q-32 -8 -58.5 -102t-18.5 -175q84 88 112 186q21 76 -11 90q-10 4 -24 1zM507 350q-28 -7 -60 -84t-42 -155q98 97 130 179q24 60 -13 62q-6 0 -15 -2z" />
    <glyph glyph-name="e_l" unicode="el" horiz-adv-x="639" 
d="M350 40v5q-263 -252 -317 -101q-23 64 -29.5 124.5t1.5 107t23.5 87.5t35 69.5t37 49t29.5 30.5l12 10q35 27 76 26t66 -14t43 -29q69 -27 29 -98q-47 -84 -247 -216q-6 -110 49 -110q57 1 201 130q23 138 77 296t114 276q8 16 60 17q81 1 118 -47q74 -95 -105 -319
q-60 -75 -146 -161q-54 -163 -18 -183q34 36 85 98.5l87.5 109t39.5 49.5q10 7 18.5 1.5t10.5 -12.5q-135 -212 -202 -306q-63 -100 -109 -50q-35 38 -39 129q-1 16 0 31zM518 275q45 52 77.5 97t52.5 84.5t18.5 66.5t-27.5 35q-30 -64 -121 -283zM218 338q-66 -70 -98 -194
q129 118 131 176q0 23 -19 23q-7 -1 -14 -5z" />
    <glyph glyph-name="c_h" unicode="ch" horiz-adv-x="807" 
d="M-13 -72q-19 32 -27 88t-2 119.5t25 126t53.5 107.5t84 64.5t116.5 -3.5q12 6 29 9q-29 31 -32 83q-4 62 49 85t116 2.5t86 -68.5q7 -16 17 -30l72 166q4 13 72 18q86 6 96 -19q3 -6 -1 -14l-43 -66q-149 -244 -231 -485q90 146 155 212q4 26 23.5 40.5t45 17t49 0.5
t41.5 -8q7 -1 11.5 -4.5t6 -12t-3 -20.5t-19.5 -32.5t-40 -47.5q-61 -132 -75 -220q30 32 71 83l69.5 86.5t32.5 38.5q8 6 14.5 3t9.5 -9l4 -7l-199 -296q-28 -41 -63 -58q-31 -16 -41 11q-6 15 3.5 118t27.5 196q-157 -185 -166 -302q-82 -63 -94 16q-10 65 33 215
q-266 -387 -376 -203zM347 537q-22 -6 -28 -25.5t-0.5 -40t17.5 -37.5q31 -15 24 -54q-9 -48 -37 -96.5t-58 -76.5t-47 -24q-1 1 -3.5 2t-7.5 5t-7.5 8t-2.5 11t6 15q11 15 23.5 43.5t19 64t-9.5 55.5q-91 -60 -134.5 -189.5t-11.5 -209.5q13 -20 33.5 -21t44 15.5t49 40.5
t51.5 55l47.5 58.5l42 52t30.5 33.5l5 4q34 103 87 233q-7 14 -10.5 20t-11.5 18.5t-14.5 18t-17 13.5t-21.5 10.5t-26 2.5t-32 -5z" />
    <glyph glyph-name="t_h" unicode="th" horiz-adv-x="800" 
d="M145 -122q-102 -29 -121 42q-32 117 143 542q-112 0 -203.5 10.5t-123.5 27.5q-21 15 -12 32t28.5 31t26.5 13q165 -27 322 -24q23 56 57 130q4 13 72 18q86 6 96 -19q3 -6 -1 -14l-63 -106q84 10 160 26l40 91q66 46 121 23q42 -18 41 -58q-1 -46 -61 -85
q-133 -224 -208 -446q90 146 155 212q4 26 23.5 40.5t45 17t49 0.5t41.5 -8q7 -1 11.5 -4.5t6 -12t-3 -20.5t-19.5 -32.5t-40 -47.5q-61 -132 -75 -220q30 32 71 83l69.5 86.5t32.5 38.5q8 6 14.5 3t9.5 -10l4 -6l-199 -296q-28 -41 -63 -58q-31 -16 -41 11q-6 15 3.5 118
t27.5 196q-157 -185 -166 -302q-81 -62 -94 13q-11 67 36 227q-166 -249 -213 -263zM485 491q-85 -17 -174 -23l-10 -17q-74 -142 -124.5 -273.5t-62.5 -212.5q1 -44 115 93q26 30 80 99l89 109q46 127 87 225z" />
    <glyph glyph-name="s_h" unicode="sh" horiz-adv-x="777" 
d="M21 36q-7 -27 10.5 -51t42.5 -26t48 23q12 31 1 57.5t-29 55t-41 54t-37 55.5t-16 59.5t22.5 65t76.5 72.5q67 47 141 29l4 2q-36 31 -40 90q-4 62 49 85t116 2.5t86 -68.5q5 -13 16 -30l73 167q4 13 72 18q86 6 96 -19q3 -6 -1 -14l-43 -66q-149 -244 -231 -485
q90 146 155 212q4 26 23.5 40.5t45 17t49 0.5t41.5 -8q7 -1 11.5 -4.5t6 -12t-3 -20.5t-19.5 -32.5t-40 -47.5q-61 -132 -75 -220q30 32 71 83l69.5 86.5t32.5 38.5q8 6 14.5 3t9.5 -10l4 -6l-199 -296q-28 -41 -63 -58q-31 -16 -41 11q-6 15 3.5 118t27.5 196
q-157 -185 -166 -302q-79 -62 -93 12q-24 124 149 547q-29 51 -49 66q-33 25 -84 11q-27 -8 -30.5 -37t11.5 -52q34 3 54.5 -10t14.5 -47q-9 -49 -33.5 -103t-51 -88.5t-42.5 -30.5q-1 1 -3.5 2t-7.5 5t-7.5 8t-2.5 11t6 15q16 22 27 73.5t-2 93.5q-56 -20 -81.5 -46
t-23.5 -54t13 -62t26.5 -70.5t17.5 -80t-14 -89.5v-2q-34 -83 -110 -96q-62 -11 -104 28q-45 41 -25 102q7 16 36.5 29.5t35.5 -0.5z" />
    <glyph glyph-name="s_l" unicode="sl" horiz-adv-x="600" 
d="M21 36q-7 -27 10.5 -51t42.5 -26t48 23q12 31 1 57.5t-29 55t-41 54t-37 55.5t-16 59.5t22.5 65t76.5 72.5q67 47 141 29q16 10 39 15t45 3.5t35 -16t8 -41.5q-9 -46 -31.5 -98t-47.5 -86q18 -3 48 4q57 239 173 471q5 10 31.5 16t58 -3.5t42.5 -39.5q34 -91 -14.5 -214
t-171.5 -216q-69 -179 -57 -233q4 -21 17 -2q34 36 85 98.5l87.5 109t39.5 49.5q10 7 18.5 1.5t10.5 -12.5q-130 -210 -202 -306q-77 -103 -119 -46q-34 46 -27 155q0 8 1 16q4 52 20 121q-61 -19 -90 -7q-1 0 -2 1h-1l-2 1l-2 2q-1 1 -2 1q-12 10 -11 21v1q0 5 6 14
q16 22 27 73.5t-2 93.5q-56 -20 -81.5 -46t-23.5 -54t13 -62t26.5 -70.5t17.5 -80t-14 -89.5v-2q-34 -83 -110 -96q-62 -11 -104 28q-45 41 -25 102q7 16 36.5 29.5t35.5 -0.5zM485 301q70 74 95.5 143t12.5 109q-38 -84 -108 -252z" />
    <glyph glyph-name="s_k" unicode="sk" horiz-adv-x="753" 
d="M21 36q-7 -27 10.5 -51t42.5 -26t48 23q12 31 1 57.5t-29 55t-41 54t-37 55.5t-16 59.5t22.5 65t76.5 72.5q67 47 141 29q10 6 17 8q-49 22 -53 84q-4 55 32 95.5t92.5 60t121 27.5t121 4t89.5 -16q19 -3 28 -10.5t3 -19.5l-43 -66q-63 -105 -116 -211q93 93 153 65
q6 -6 16.5 -15t16 -14.5l13.5 -13.5t12 -13.5t9 -13.5t6.5 -14.5t1.5 -15t-3 -16.5q-8 -25 -92.5 -90.5t-176.5 -110.5q64 -98 98 -126q37 40 84.5 100l80.5 103.5t35 45.5q9 7 20.5 1t12.5 -11q-4 -1 -41.5 -63l-81 -134t-89 -127.5t-65.5 -45.5q-29 15 -55.5 58t-40 78.5
t-30.5 89.5q-2 5 -3 -1q-49 -144 -39 -201q-81 -62 -94 13q-22 130 161 571q26 65 57 134q-72 19 -132 -10q-38 -18 -55.5 -52t-12 -65t28.5 -45q48 -7 40 -56q-9 -49 -33.5 -103t-51 -88.5t-42.5 -30.5q-1 1 -3.5 2t-7.5 5t-7.5 8t-2.5 11t6 15q16 22 27 73.5t-2 93.5
q-56 -20 -81.5 -46t-23.5 -54t13 -62t26.5 -70.5t17.5 -80t-14 -89.5v-2q-34 -83 -110 -96q-62 -11 -104 28q-45 41 -25 102q7 16 36.5 29.5t35.5 -0.5zM640 345q-35 77 -123 -38q-35 -46 -67 -108q2 -6 11 -21q70 50 128 101.5t51 65.5z" />
    <glyph glyph-name="l_l" unicode="ll" horiz-adv-x="528" 
d="M170 683q85 50 126 -9q39 -56 15 -166q-31 -138 -139 -240q-25 -23 -53 -43q-60 -167 -46 -230q5 -22 18 -14q59 41 150 125q17 124 71.5 285.5t121.5 291.5q8 16 60 17q81 1 118 -47q74 -95 -105 -319q-60 -75 -146 -161q-54 -163 -18 -183q34 36 85 98.5l87.5 109
t39.5 49.5q10 7 18.5 1.5t10.5 -12.5q-135 -212 -202 -306q-63 -100 -109 -50q-35 38 -39 129q-1 16 0 31l-145 -146q-45 -44 -79 -10q-49 49 -32 209q26 237 192 590zM402 275q45 52 77.5 97t52.5 84.5t18.5 66.5t-27.5 35q-30 -64 -121 -283zM149 301q70 74 95.5 143
t12.5 109q-38 -84 -108 -252z" />
    <glyph glyph-name="s_s" unicode="ss" horiz-adv-x="1364" 
d="M569 140q102 47 250.5 67t290 -5.5t192.5 -103.5q55 -84 -17 -138q-36 -26 -66 -27q-6 1 -6 3q44 100 -94 157q-122 51 -310 46q-167 -4 -228 -49q-5 -3 -8 -6l-5.5 -42.5t-7 -41.5t-9.5 -40.5t-12.5 -37t-17 -33.5t-22 -27.5t-28 -21.5t-34.5 -13t-42 -5t-50 6
q-100 21 -97 83q3 64 107 141q49 36 110 66q-26 117 -19 195q-86 -154 -207 -232q15 -155 -84 -221q-67 -45 -147 -29q-66 13 -81 57q-23 62 81 134q49 35 125 68q-9 31 -12.5 45.5t-10.5 49t-5 54t5 60.5q-42 -63 -127 -159q-12 -13 -18 18l-2 10q23 25 57 71l68 96t43 62
q17 23 76 34q67 12 79 -16q5 -12 -3 -29q-66 -148 -52 -251q83 48 184 175q19 20 31.5 45.5t24.5 60.5t21 54q6 13 63 12q71 -1 77 -27q2 -7 -3 -16q-32 -56 -48 -114.5t-15 -100t3 -84.5zM472 -68q9 18 11.5 40.5t0.5 39t-7 44.5q-74 -35 -89 -93q-9 -32 5.5 -51.5
t38.5 -14.5t40 35zM148 33q-3 -1 -14.5 -6t-14.5 -6.5t-12.5 -5.5t-12 -6t-9.5 -6.5t-9.5 -8t-7 -8.5t-6.5 -10.5t-4 -12.5q-9 -32 5.5 -51.5t38.5 -14.5t40 35q20 36 6 101z" />
    <glyph glyph-name="t_t" unicode="tt" horiz-adv-x="606" 
d="M89 -127q-103 -29 -121 43q-31 118 144 543q-66 2 -63 6q6 11 12 29t10 27.5t16 17.5t31 8h31q23 56 57 130q4 13 72 18q86 6 96 -19q3 -6 -1 -14l-64 -109l144 9l51 115q4 13 72 18q86 6 96 -19q3 -6 -1 -14l-53 -89l182.5 14.5l145.5 11.5t51 4q25 0 -13 -45
q-30 -37 -55 -51q-39 -21 -130.5 -30.5t-164.5 -8.5l-72 1q-117 -169 -206 -509q1 -33 42.5 9t121 142.5t109.5 134.5q10 7 18.5 1.5t10.5 -12.5q-3 -5 -68 -107.5t-119.5 -174t-83.5 -80.5q-39 -14 -68 -8t-45.5 29t-13 81.5t28.5 149.5q-150 -236 -200 -252zM411 462
q-84 -3 -158 -3q-72 -110 -113.5 -225t-81.5 -274q1 -32 41 7t120 140.5t107 132.5q32 94 85 222z" />
    <glyph glyph-name="c_c" unicode="cc" horiz-adv-x="744" 
d="M355 -68q-29 44 -32 143q-235 -316 -336 -147q-19 32 -27 88t-2 119.5t25 126t53.5 107.5t84 64.5t116.5 -3.5q24 11 54 13t52.5 -13.5t16.5 -49.5q-9 -48 -37 -96.5t-58 -76.5t-47 -24q-1 1 -3.5 2t-7.5 5t-7.5 8t-2.5 11t6 15q11 15 23.5 43.5t19 64t-9.5 55.5
q-91 -60 -134.5 -189.5t-11.5 -209.5q42 -64 165 74l72 88q7 66 26.5 123t54 103.5t83 61.5t114.5 -4q24 11 54 13t52.5 -13.5t16.5 -49.5q-9 -48 -40.5 -113t-65 -109t-49.5 -40q-1 1 -3.5 2t-7.5 5t-7.5 8t-2.5 11t6 15q20 26 43.5 113t2.5 115q-91 -60 -134.5 -189.5
t-11.5 -209.5q13 -20 33.5 -21t44 15.5t49 40.5t51.5 55l47.5 58.5l42 52t30.5 33.5q8 7 16 6.5t14 -4.5l6 -5q-6 -8 -31.5 -45.5l-53.5 -76l-65.5 -86t-75 -79.5t-75.5 -51.5t-73.5 -8.5t-62.5 56z" />
    <glyph glyph-name="o_o" unicode="oo" horiz-adv-x="905" 
d="M611 419q38 61 97 40q54 -19 86 -91q39 -90 13 -202q71 -3 203 154q7 6 14 2t9 -11l-50 -70.5t-55 -67.5t-69.5 -62t-70.5 -29q-46 -111 -121.5 -175t-156.5 -31q-17 -3 -29 8q-33 23 -44.5 82.5t-0.5 133.5q-42 1 -92 20q-20 -59 -50 -110t-69 -89.5t-82.5 -51
t-90.5 6.5q-17 -3 -29 8q-37 26 -47 95.5t8.5 153.5t61.5 150q14 15 35 4.5t39.5 -38.5t15.5 -49q-28 -47 -44.5 -91.5t-21 -91t15.5 -78.5q25 -39 69 33q48 78 68 186q3 17 5 33q-1 1 -2 1q-17 8 -43 41t-43 84t13 102q20 35 51.5 43.5t62 -6.5t57.5 -48.5t39 -76.5
q16 -60 -1 -145q48 -19 88 -21q17 61 54 118q5 7 14 9q35 14 59 3q2 70 34 124zM667 121q-43 15 -67 62q-15 -44 -46 -62q-47 -116 -10 -182q17 -28 54 10q47 51 65 142q3 14 5 29q-1 0 -1 1zM682 344q-15 0 -21.5 -29t-0.5 -64t23 -49q5 27 8 58.5t1 57.5t-10 26zM224 344
q-23 0 -15 -25q7 -23 35 -43q12 68 -20 68z" />
    <glyph glyph-name="o_e" unicode="oe" horiz-adv-x="834" 
d="M679 38l182 206q8 7 14 4.5t10 -8.5l4 -7q-135 -207 -206 -290q-36 -42 -72.5 -59t-69.5 -3t-51 62q-31 83 -33 159q-57 2 -112 22q-19 -59 -49 -111t-69 -91t-83.5 -52t-91.5 6q-17 -3 -29 8q-37 26 -47 95.5t8.5 153.5t61.5 150q14 15 35 4.5t39.5 -38.5t15.5 -49
q-28 -47 -44.5 -91.5t-21 -91t15.5 -78.5q25 -39 69 33q48 78 68 186q3 17 5 33l-1 1q-15 5 -42 39t-44.5 85t12.5 103q20 35 51.5 43.5t62 -6.5t57.5 -48.5t39 -76.5q16 -60 -1 -145q45 -20 97 -25q5 48 21.5 92t36 73.5t38.5 51.5t31 32l13 11q27 21 56.5 25.5t55.5 -4
t43.5 -18.5t31.5 -22q50 -20 43 -51q-15 -62 -88 -133t-170 -101q-10 -44 -6.5 -76t14.5 -49t37.5 -6t62.5 52zM590 186q72 35 106 95q24 41 6 51q-11 6 -36 -6q-48 -55 -76 -140zM224 344q-23 0 -15 -25q7 -23 35 -43q12 68 -20 68z" />
    <glyph glyph-name="o_w" unicode="ow" horiz-adv-x="1107" 
d="M377 261h-1q-4 -50 -22.5 -111t-49 -119t-70.5 -102t-86 -60t-96 7q-17 -3 -29 8q-37 26 -47 95.5t8.5 153.5t61.5 150q14 15 35 4.5t39.5 -38.5t15.5 -49q-28 -47 -44.5 -91.5t-21 -91t15.5 -78.5q24 -37 74 53q54 97 80 216q6 26 8 47q-49 5 -79.5 23.5t-38.5 54
t23 86.5q43 69 111 35.5t99 -123.5q88 32 194 102l8 4q21 13 60 11t63 -24q33 -31 -76 -171l-38 -110q-33 -108 -29 -148q11 8 27.5 27.5l31.5 38.5t36.5 50.5l33.5 49l32.5 48.5t23.5 36l67 163q10 20 46.5 30t71.5 -8q13 -6 11 -23t-10.5 -36t-24.5 -44.5l-30.5 -47.5
t-28.5 -45.5t-19 -38.5q-28 -90 -37.5 -150.5t-5.5 -80.5t12 -27q42 22 96.5 143.5t91.5 243t42 171.5q3 30 52.5 27.5t55.5 -27.5q17 -70 -45 -230t-154 -291.5t-150 -130.5q-34 1 -59 39t-34 83t-6 80q-38 -76 -72 -114t-58 -39.5t-43 17t-29.5 45.5t-14.5 57
q-17 122 46 296q-50 -32 -124 -46zM224 344q-17 5 -19 -6q-2 -13 21 -22q9 -4 22 -5q-5 27 -24 33z" />
    <glyph glyph-name="o_n" unicode="on" horiz-adv-x="915" 
d="M85 -59q15 -35 57 24q55 78 88 205q14 53 18 99q-50 3 -80.5 18.5t-39 49t23.5 84.5q38 63 105 37.5t99 -112.5q86 35 191 107q5 3 9 3q33 11 83 4.5t50 -33.5q0 -25 -52 -81q-83 -167 -105 -292q31 90 85 185t101 128l6 6q9 11 47 14.5t72.5 -3.5t33.5 -23
q-2 -29 -62 -93q-64 -135 -74 -228q35 33 85 90.5l86.5 101.5t39.5 46q9 7 17 1.5t9 -12.5q0 -2 -41 -70t-100 -156t-96 -125q-99 -72 -104 81q-2 79 19 191q-90 -173 -117 -284q0 -1 1 -2q1 0 -3.5 -4.5t-12.5 -10.5t-17 -12t-19.5 -10.5t-18.5 -4.5q-3 0 -8.5 4
t-13.5 15.5t-15 29t-12 48t-5 68.5q0 128 70 297q-42 -24 -113 -41q6 -55 -8 -114q-36 -152 -129.5 -239t-183.5 -50q-17 -3 -29 8q-37 26 -47 95.5t8.5 153.5t61.5 150q14 15 35 4.5t39.5 -38.5t15.5 -49q-28 -47 -44.5 -91.5t-21 -91t15.5 -78.5zM223 346q-19 5 -20 -6
q-1 -13 23 -18q9 -2 19 -2q-7 22 -22 26z" />
    <glyph glyph-name="o_m" unicode="om" horiz-adv-x="1123" 
d="M546 453q34 15 88 9t54 -35q0 -25 -52 -81q-117 -209 -111 -370q112 293 179 372q11 26 53.5 36t80.5 3t38 -26q0 -27 -62 -93q-72 -153 -75 -251q87 185 157 284q18 58 37 72q12 9 46.5 14t67.5 -0.5t35 -24.5q3 -20 -49 -78q-68 -155 -85 -263q36 36 90 98l93 109.5
t42 49.5q10 7 18.5 1.5t10.5 -12.5q-204 -297 -245 -344q-27 -27 -76 -27q-27 0 -33.5 38t0.5 108.5t7 78.5q-43 -51 -98 -187q-47 -40 -78 -40q-20 0 -30.5 26.5t-11 66.5t1 72t5.5 58q-44 -96 -105 -215q1 0 -3.5 -4.5t-12.5 -10.5t-17 -12t-19.5 -10.5t-18.5 -4.5
q-3 0 -8.5 4t-13.5 15.5t-15 29t-12 48t-5 68.5q0 127 71 298q-45 -25 -113 -42q6 -55 -8 -114q-36 -152 -129.5 -239t-183.5 -50q-17 -3 -29 8q-37 26 -47 95.5t8.5 153.5t61.5 150q14 15 35 4.5t39.5 -38.5t15.5 -49q-28 -47 -44.5 -91.5t-21 -91t15.5 -78.5q24 -32 74 53
q55 96 80 215q8 34 9 60q-50 3 -80.5 18.5t-39 49t23.5 84.5q38 63 105 37.5t99 -112.5q74 30 190 107zM223 346q-19 5 -20 -6q-1 -13 23 -18q9 -2 19 -2q-7 22 -22 26z" />
    <glyph glyph-name="o_u" unicode="ou" horiz-adv-x="959" 
d="M135 202q-28 -47 -44.5 -91.5t-21 -91t15.5 -78.5q12 -6 27.5 1.5t33 30t35 58t34 90.5t29.5 121q-48 11 -77.5 33t-37 59t22.5 87q22 38 56 44.5t66.5 -14t59.5 -61t37 -89.5q76 24 179 92q12 15 59 17.5t79 -17.5q17 -12 -36 -87q-111 -245 -99 -313q31 13 135 135
q19 85 96 257q6 17 52 19t87 -16q15 -21 -44 -100q-9 -21 -39 -86t-45.5 -106.5t-20.5 -78.5q34 29 88.5 89l98 111t44.5 52q9 8 16.5 3.5t9.5 -11.5q-227 -358 -306 -358q-45 1 -49 128v9q-30 -60 -63 -97t-61.5 -46t-52.5 0.5t-39 41t-18 77.5q-1 2 -1 9q-3 108 48 240
q-50 -23 -114 -29q-3 -48 -21.5 -104.5t-49 -109.5t-70.5 -93t-86 -55t-97 4q-17 -3 -29 8q-37 26 -47 95.5t8.5 153.5t61.5 150q14 15 35 4.5t39.5 -38.5t15.5 -49zM223 346q-17 5 -19 -10q-1 -21 28 -37q8 -4 17 -7q-2 48 -26 54z" />
    <glyph glyph-name="o_v" unicode="ov" horiz-adv-x="888" 
d="M136 200q-28 -47 -44.5 -91.5t-21 -91t15.5 -78.5q12 -6 27.5 1t33 29.5t34.5 57.5t34 89t29 120q-48 11 -77.5 34t-37 60.5t23.5 88.5q18 31 43.5 41.5t52 1t51.5 -31.5t44 -56.5t27 -73.5q82 27 185 94q15 16 56.5 17.5t79.5 -20.5v-1q33 -19 -61 -139
q-20 -41 -36.5 -87t-25.5 -85.5t-14 -72.5t-3 -52.5t10 -21.5q34 -8 92.5 115.5t100.5 264.5t39 187q-1 15 24 19.5t52 -1.5t32 -18q33 -36 -2.5 -150.5t-102 -230.5t-144 -200.5t-117.5 -68.5q-48 17 -71 63t-20.5 107.5t16 123t37.5 124.5q-50 -29 -122 -37
q-10 -76 -41.5 -148.5t-74.5 -125.5t-98.5 -76.5t-109.5 -3.5q-17 -3 -29 8q-37 26 -47 95.5t8.5 153.5t61.5 150q14 15 35 4.5t39.5 -38.5t15.5 -49zM224 344q-18 5 -19 -11q-2 -20 28 -35q7 -4 17 -7q-2 46 -26 53z" />
    <glyph glyph-name="o_y" unicode="oy" horiz-adv-x="936" 
d="M136 200q-28 -47 -44.5 -91.5t-21 -91t15.5 -78.5q23 -33 72 49q55 93 81 213q6 25 8 47q-49 7 -79 26.5t-38.5 56t23.5 88.5q31 47 72 46t81.5 -41t58.5 -100q72 27 168 88q2 2 5 2q11 12 59 7t77 -29q23 -19 -46 -113q-13 -38 -38 -100.5t-38.5 -106.5t-18.5 -88
q40 31 196 251q33 129 89 240q4 13 72 18q86 6 96 -19q3 -6 -1 -14l-43 -66q-62 -109 -105.5 -259.5t-78.5 -311t-62 -236.5q-9 -27 -56 -7q-36 16 -44 35q-4 9 4 14q19 16 31 62q12 43 32 190t37 230q-105 -235 -180 -241q-48 -4 -66 86q-24 117 14 277q7 28 15 55
q-48 -26 -106 -36q-2 -50 -19 -108.5t-46.5 -113.5t-69.5 -96.5t-88 -58t-102 0.5q-17 -3 -29 8q-37 26 -47 95.5t8.5 153.5t61.5 150q14 15 35 4.5t39.5 -38.5t15.5 -49zM224 344q-19 5 -23 -10q-5 -17 21 -28q11 -5 27 -6q-3 37 -25 44z" />
    <glyph glyph-name="b_y" unicode="by" horiz-adv-x="909" 
d="M240 652q97 120 272 147q134 21 233 -21q81 -35 76 -91q-2 -29 -29 -58q-62 33 -119 50t-102 19.5t-87 -9t-72.5 -27.5t-60.5 -45.5t-48.5 -52.5t-39 -58t-30 -54.5l-22.5 -48.5q-3 -7 -5 -11q144 77 186 -9q35 -71 -11 -210q-47 -141 -135 -230q-110 -110 -212 -57
q-3 2 -7 4q-38 22 -41.5 104.5t22.5 190.5t87.5 236t144.5 231zM183 340q-83 -175 -90 -395q27 0 85 95q73 122 94 223q20 98 -39 94q-20 -2 -50 -17zM508 408q-76 -139 -87 -318q-9 -146 33 -201q43 -58 116 34q49 62 104 186q-22 -107 -54.5 -186.5t-59 -117t-67.5 -80.5
q-50 -53 -126 -71t-142.5 -6.5t-116.5 30t-62 34.5q-64 -85 36 -138q81 -42 206 -43q59 0 94 12q83 27 147 79t105 113.5t81.5 149.5t70 171t76.5 196t97 206q11 23 -30 31q-53 10 -114 -5q-21 -5 -23 -11q-56 -111 -89 -240q-156 -220 -196 -251q5 44 18.5 88t38.5 106.5
t38 100.5q69 94 46 113q-22 18 -55.5 25.5t-57.5 4.5t-27 -12z" />
    <glyph glyph-name="A_i" unicode="Ai" horiz-adv-x="1118" 
d="M656 -212q-52 32 -67 131t1 221t54 263q-65 -8 -116 -19l-84 -127.5l-88 -133.5l-70.5 -103t-70.5 -95t-48 -52q-40 -31 -75.5 -26t-65 35.5t-50.5 65.5t-32 63l-12 28q-19 45 -20 85.5t14.5 73.5t43 61.5t68 51.5t86.5 42t102 33.5t111.5 25.5t117.5 19q169 246 226 317
q105 131 162 138q20 24 96 12q64 -10 72 -29q2 -5 -3 -10q-14 -20 -68.5 -141t-107.5 -258h186q72 -2 72 -33q0 -25 -51 -80q-110 -217 -113 -319v-4q0 -18 11 -18q15 0 53.5 40t74.5 87.5l68 90.5t33 44q4 4 9 4q13 0 20 -15q-1 -5 -54 -83.5t-127 -174t-116 -126.5
q-52 -39 -70 43q-21 99 17 277q26 123 71 219q-35 2 -101 2q-173 -461 -121 -594q2 0 -2 -12t-14 -20t-22 0zM107 5q104 82 289 342q-83 -28 -154 -67.5t-115.5 -76.5t-76 -72.5t-44 -59t-9.5 -32.5q8 -29 22.5 -43t29 -14t28 5t22 11t8.5 7zM1005 540q-8 12 -8 31
q0 39 30.5 77t66.5 38q32 0 55 -36q7 -10 7 -27q0 -39 -31 -79t-66 -40q-32 0 -54 36zM658 452q34 119 78 228q-78 -101 -167 -236q60 6 89 8z" />
    <glyph glyph-name="A_h" unicode="Ah" horiz-adv-x="1279" 
d="M1263 370q-108 -286 -101 -436q5 -136 117 -105q1 -48 -45 -80q-51 -36 -101 -12q-81 40 -81 210q0 120 42 293q-188 -223 -198 -343q-93 -72 -108 3q-26 130 192 629q-51 -2 -124 -8q-220 -550 -162 -701q2 0 -2 -12t-14 -20t-22 0q-59 36 -70 154.5t13.5 259.5
t72.5 297q-46 -7 -73 -13l-155.5 -234.5t-176 -258.5t-100.5 -120q-40 -31 -75.5 -26t-65 35.5t-50.5 65.5t-32 63l-12 28q-16 45 -17 88t12 79.5t39 70.5t60.5 62t79.5 54.5t93.5 47.5t105 40.5t112 34.5t115.5 28q114 164 187.5 250t123.5 92q20 24 96 12q64 -10 72 -29
q2 -5 -3 -10q-29 -42 -120 -259q186 18 235 11q29 -2 44.5 -10t8.5 -23l-43 -66q-74 -121 -115.5 -209t-78.5 -195q90 146 155 212q6 43 75 63q58 17 86 3q12 -6 8 -16zM107 5q53 42 121.5 123t117.5 148.5l127 181.5q-74 -20 -137 -44.5t-109.5 -50t-84 -53.5t-62.5 -55
t-43 -54t-27.5 -51t-13.5 -45.5t-3.5 -37.5t4.5 -28q9 -29 23.5 -43t29 -14t28 5t21.5 11t8 7zM697 575q15 45 35 95q-36 -46 -75 -102q11 3 40 7z" />
    <glyph glyph-name="A_l" unicode="Al" horiz-adv-x="1102" 
d="M1008 859q-16 -23 -77.5 -160t-116.5 -285l81 -2q56 163 109 257q14 24 41 31.5t57 -6.5t47 -48q15 -30 17.5 -69t-9 -79t-48 -74.5t-92.5 -50.5l-79 -192q-49 -145 -36 -188q3 -12 10 -5q28 29 80.5 93l93 115.5t43.5 54.5q5 5 10 5q4 0 9 -4t8 -8l2 -4q-21 -29 -56 -85
l-65.5 -103.5t-64 -94t-63 -70t-50.5 -16.5q-43 13 -48 106t15.5 199.5t50.5 183.5q-56 2 -82 2q-150 -416 -101 -542q2 0 -2 -12t-14 -20t-22 0q-49 31 -65 120.5t-3.5 200.5t44.5 244q-81 -8 -135 -20l-44 -66.5l-44.5 -67.5l-41.5 -62l-41.5 -61.5l-37.5 -53.5
l-36.5 -50.5l-31 -40.5t-29.5 -35t-24 -23q-40 -31 -75.5 -26t-65 35.5t-50.5 65.5t-32 63l-12 28q-18 44 -20 83.5t13 70.5t40.5 58t64.5 47.5t83 37.5t98 29t108 20.5t114 14.5l53.5 77.5l53.5 78l50.5 71.5l50.5 69.5l45.5 59t45.5 52.5l40 38.5t38.5 28.5t32.5 11
q20 24 96 12q64 -10 72 -29q2 -5 -3 -10zM107 5q97 76 254 293q-76 -24 -141.5 -57t-106 -64t-69 -60.5t-39.5 -49t-8 -28.5q8 -29 22.5 -43t29 -14t28 5t22 11t8.5 7zM732 670q-57 -72 -185 -261q34 2 100 4q35 133 85 257zM1090 542l-49 -109q32 5 47 44t3 60q-1 2 -1 5z
" />
    <glyph glyph-name="A_s" unicode="As" horiz-adv-x="1174" 
d="M971 90q-15 52 -20.5 78t-5.5 80t17 107q-88 7 -167 6q-150 -417 -101 -541q2 0 -2 -12t-14 -20t-22 0q-49 31 -65 120.5t-3.5 200.5t44.5 244q-68 -7 -136 -20l-56 -85l-57.5 -86.5l-50.5 -75l-51 -74l-42.5 -58t-40.5 -50.5t-31 -31q-40 -31 -75.5 -26t-65 35.5
t-50.5 65.5t-32 63l-12 28q-18 44 -20 83.5t13 70.5t40.5 58t64.5 47.5t83 37.5t98 29t108 20.5t114 14.5l53.5 77.5l53.5 78l50.5 71.5l50.5 69.5l45.5 59t45.5 52.5l40 38.5t38.5 28.5t32.5 11q20 24 96 12q64 -10 72 -29q2 -5 -3 -10q-16 -23 -77.5 -160t-116.5 -285
q87 -1 167 -6q38 28 97 26q49 -1 49 -26q0 -6 -5 -14q-40 -99 -50 -153t-3 -106q83 48 184 175q5 2 12 -2t6 -10q-90 -147 -194 -217q20 -138 -72 -210q-66 -51 -145 -44q-70 6 -91 54q-34 77 101 156q19 11 101 53zM107 5q97 76 254 293q-76 -24 -141 -57t-105.5 -64
t-69 -60.5t-39.5 -49t-9 -28.5q8 -29 22.5 -43t29 -14t28 5t22 11t8.5 7zM732 670q-57 -72 -185 -261q34 2 100 4q35 133 85 257zM986 33q-3 -1 -14.5 -6t-14.5 -6.5t-12.5 -5.5t-12 -6t-9.5 -6.5t-9.5 -8t-7 -8.5t-6.5 -10.5t-4 -12.5q-13 -50 19.5 -62t64.5 31
q17 47 6 101z" />
    <glyph glyph-name="A_t" unicode="At" horiz-adv-x="1141" 
d="M921 -127q-104 -30 -122 44q-30 122 153 562q-67 -7 -119 -16q-193 -501 -139 -643q2 0 -2 -12t-14 -20t-22 0q-54 33 -68 135t3.5 227t57.5 270q-55 -16 -121 -40l-83.5 -126.5l-88 -131.5l-71 -102.5t-70.5 -94.5t-48 -52q-40 -31 -75.5 -26t-65 35.5t-50.5 65.5
t-32 63l-12 28q-15 41 -16.5 77t15.5 69.5t43 62t67.5 54.5t87.5 48t103.5 41.5t115.5 35.5t124 30q166 241 228 315q91 108 143 114q20 24 96 12q64 -10 72 -29q2 -5 -3 -10q-12 -18 -58.5 -119t-94.5 -221q65 8 119 12l64 146q4 13 72 18q86 6 96 -19q3 -6 -1 -14
l-70 -117l160 9q20 -4 6 -34.5t-38 -36.5q-4 -1 -8 -1q-85 6 -154 5l-24 -41q-74 -142 -124.5 -273.5t-62.5 -212.5q1 -33 42.5 9t121 142.5t109.5 134.5q10 7 18.5 1.5t10.5 -12.5q-3 -5 -68 -107.5t-119.5 -174t-83.5 -80.5zM107 5q103 82 265 308q-111 -54 -203 -117
t-133.5 -104t-38.5 -53q8 -29 22.5 -43t29 -14t28 5t22 11t8.5 7zM670 493q29 96 62 177q-67 -86 -136 -189z" />
    <glyph glyph-name="A_v" unicode="Av" horiz-adv-x="1267" 
d="M933 389q6 20 52.5 24t86.5 -21v-1q33 -19 -61 -139q-20 -41 -36.5 -87t-25.5 -85.5t-14 -72.5t-3 -52.5t10 -21.5q24 -6 61.5 57.5t72 153t62 182t34.5 144.5q-168 7 -344 -21q-188 -490 -134 -629q2 0 -2 -12t-14 -20t-22 0q-53 33 -67 133t2.5 223t54.5 266
q-69 -19 -124 -39l-60 -91l-61.5 -92.5l-55.5 -82.5l-55 -79.5l-46.5 -64t-43 -55t-33.5 -33.5q-40 -31 -75.5 -26t-65 35.5t-50.5 65.5t-32 63l-12 28q-22 47 -17 89.5t24 78t59.5 67t88.5 56.5t111.5 47t128 38.5t138.5 30.5q167 243 227 315q97 118 151 125q20 24 96 12
q64 -10 72 -29q2 -5 -3 -10q-13 -18 -62 -125.5t-99 -234.5q98 9 216.5 13.5t132.5 6.5q26 3 53.5 -2t32.5 -17q33 -36 -2.5 -150.5t-102 -230.5t-144 -200.5t-117.5 -68.5q-51 18 -73 69t-18 113.5t21.5 133t40.5 127t46 96.5zM107 5q103 81 261 302q-111 -52 -202 -113.5
t-131.5 -102t-37.5 -52.5q8 -29 22.5 -43t29 -14t28 5t22 11t8.5 7zM732 670q-57 -73 -146 -203l80 12q32 109 66 191z" />
    <glyph glyph-name="A_z" unicode="A&#x7a;" horiz-adv-x="1241" 
d="M862 398h-53q-166 -448 -115 -578q2 0 -2 -12t-14 -20t-22 0q-52 32 -66.5 129t0.5 217t52 260q-67 -8 -117 -19l-60.5 -91.5l-62 -93l-56 -83.5l-55 -80.5l-47 -64.5t-43.5 -55t-34 -34q-40 -31 -75.5 -26t-65 35.5t-50.5 65.5t-32 63l-12 28q-18 44 -19 83.5t14 71.5
t41.5 60t66.5 50.5t85.5 41t101 33t110.5 25.5t117 19q170 245 218 307q116 149 176 156q20 24 96 12q64 -10 72 -29q2 -5 -3 -10q-14 -20 -69.5 -142t-107.5 -260q129 12 297.5 4.5t154.5 -37.5q-18 -34 -60.5 -72.5t-83.5 -67t-79 -65.5t-49 -70q96 13 117 -55
q77 67 135 146q5 1 9.5 -2.5t6 -12t-8.5 -21.5q-53 -76 -137 -148q2 -97 -84 -239q-80 -132 -169 -191q-108 -71 -159 18q-10 16 -17 37q-18 84 61 155q35 33 159 111l30 19q25 73 13 102q-67 -48 -85 -27q-26 29 71 152.5t171 184.5q-121 21 -262 20zM107 5q105 84 283 333
q-82 -28 -152 -66t-114 -74t-74.5 -70t-43 -57t-9.5 -32q8 -29 22.5 -43t29 -14t28 5t22 11t8.5 7zM751 -268q6 -73 61 -20q56 56 112 179q6 13 11 25l-77 -50t-55.5 -42.5t-42 -47t-9.5 -44.5zM656 444q36 125 76 226q-63 -80 -166 -233q30 3 90 7z" />
    <glyph glyph-name="A_x" unicode="Ax" horiz-adv-x="1278" 
d="M1284 434q-18 -64 -86 -163.5t-161 -205.5q15 -67 32 -93l63 68l62.5 72l48.5 58.5t24 28.5q5 5 11 5t10.5 -3.5t5.5 -6.5l2 -4q-22 -26 -56.5 -75.5l-64.5 -94l-60.5 -85.5t-54.5 -59t-37 -5q-33 33 -61 114q-197 -189 -298 -128q-80 49 -75 231q2 120 43 265
q-68 -7 -136 -20l-56 -85l-57.5 -86.5l-50.5 -75l-51 -74l-42.5 -58t-40.5 -50.5t-31 -31q-40 -31 -75.5 -26t-65 35.5t-50.5 65.5t-32 63l-12 28q-18 44 -20 83.5t13 70.5t40.5 58t64.5 47.5t83 37.5t98 29t108 20.5t114 14.5l53.5 77.5l53.5 78l50.5 71.5l50.5 69.5
l45.5 59t45.5 52.5l40 38.5t38.5 28.5t32.5 11q20 24 96 12q64 -10 72 -29q2 -5 -3 -10q-16 -23 -77.5 -160t-116.5 -285q41 0 60 1q73 3 108 -21t25 -73q-3 -23 8 -114q52 81 95.5 156t51.5 94q11 25 60.5 15.5t61.5 -38.5zM795 361q-117 -330 -93 -424q26 -103 230 148
q-12 44 -36 143t-36 133h-65zM107 5q97 76 254 293q-76 -24 -141 -57t-105.5 -64t-69 -60.5t-39.5 -49t-9 -28.5q8 -29 22.5 -43t29 -14t28 5t22 11t8.5 7zM647 413q35 133 85 257q-57 -72 -185 -261q34 2 100 4z" />
    <glyph glyph-name="B_a" unicode="Ba" horiz-adv-x="1177" 
d="M298 907q21 12 64.5 15t80.5 -6.5t37 -30.5q0 -3 -1 -4q-44 -75 -109 -212q151 222 319 205q97 -10 101 -98q5 -94 -88 -223q-101 -138 -243 -216q-1 0 -2 -1q63 9 108 3q202 73 301 82q14 2 21 2q49 -2 80.5 -11.5t42.5 -22.5t14 -28.5t-6 -30.5q35 10 66.5 5t48.5 -16
q31 -18 -48 -102q-45 -102 -61 -179q31 27 79.5 86l86 107.5t40.5 51.5q8 6 14.5 3.5t10.5 -8.5l4 -6l-238 -359q-12 -17 -47.5 -27.5t-51.5 8.5q-12 21 2 163q-76 -119 -98 -148t-52 -37t-55 9t-31 55q-10 76 12 189.5t48 163.5q24 46 47 78q-102 -30 -158 -50
q76 -45 52 -152q-25 -111 -137 -218q-147 -139 -344 -175q-53 -10 -107 -11q-42 -1 -84.5 29.5t-60.5 81.5t18 116q29 49 100 102q8 192 79 455.5t145 361.5zM508 268q-222 -90 -349 -187q-11 -90 7 -139q-15 -41 -44 -35q-31 7 -42 62q-4 16 -4 36q-76 -97 -71 -151
q5 -47 83 -28q178 47 321 169q116 99 135 183q13 61 -36 90zM173 156q112 69 262 132q-64 7 -155 -9q-20 -3 -28 11q-5 8 4 14q115 38 223 182q88 116 110 212q18 81 -32 81h-4q-93 -6 -318 -423q-41 -113 -62 -200zM796 -12q6 -17 27 6.5t62.5 86.5t52.5 78q13 73 30 117
q13 82 -14 75q-31 -7 -84 -100q-70 -123 -78 -214q-3 -30 4 -49z" />
    <glyph glyph-name="B_e" unicode="Be" horiz-adv-x="1091" 
d="M938 41l182 206q8 7 14 4.5t10 -9.5l4 -6q-135 -207 -206 -290q-36 -42 -72.5 -59t-69.5 -3t-51 62q-28 74 -33 143.5t10.5 123t34.5 91t45 68.5l-169 -53q76 -45 52 -152q-25 -111 -137 -218q-147 -139 -344 -175q-53 -10 -107 -11q-42 -1 -84.5 29.5t-60.5 81.5t18 116
q29 49 100 102q8 192 79 455.5t145 361.5q21 12 64.5 15t80.5 -6.5t37 -30.5q0 -3 -1 -4q-44 -75 -109 -212q151 222 319 205q97 -10 101 -98q5 -94 -88 -223q-101 -138 -243 -216q-1 0 -2 -1q63 9 108 3q185 67 290 81q34 28 76 28t68 -13.5t44 -29.5q69 -27 29 -98
q-47 -84 -247 -216q-6 -38 -0.5 -64t17.5 -38t37.5 0t58.5 50zM508 270q-222 -90 -349 -187q-11 -90 7 -139q-15 -41 -44 -35q-31 7 -42 62q-4 16 -4 36q-76 -97 -71 -151q5 -47 83 -28q178 47 321 169q116 99 135 183q13 61 -36 90zM173 158q112 69 262 132q-64 7 -155 -9
q-20 -3 -28 11q-5 8 4 14q115 38 223 182q88 116 110 212q18 81 -32 81h-4q-93 -6 -318 -423q-41 -113 -62 -200zM934 340q-66 -70 -98 -194q129 118 131 176q0 23 -19 23q-7 -1 -14 -5z" />
    <glyph glyph-name="B_i" unicode="Bi" horiz-adv-x="996" 
d="M848 454q18 5 50 7t62 -5.5t30 -27.5q0 -25 -51 -80q-47 -84 -90 -212t-12 -129q15 -1 53.5 39t74.5 87.5l68 91t33 44.5q10 6 17.5 1.5t11.5 -12.5q-1 -5 -53.5 -84t-124.5 -174.5t-111 -125.5q-57 -44 -77 38q-23 95 11 265q22 107 60 191l-163 -51q76 -45 52 -152
q-25 -111 -137 -218q-147 -139 -344 -175q-53 -10 -107 -11q-42 -1 -84.5 29.5t-60.5 81.5t18 116q29 49 100 102q8 192 79 455.5t145 361.5q21 12 64.5 15t80.5 -6.5t37 -30.5q0 -3 -1 -4q-44 -75 -109 -212q151 222 319 205q97 -10 101 -98q5 -94 -88 -223
q-101 -138 -243 -216q-1 0 -2 -1q63 9 108 3q156 57 258 76q14 24 25 39zM508 268q-222 -90 -349 -187q-11 -90 7 -139q-15 -41 -44 -35q-31 7 -42 62q-4 16 -4 36q-76 -97 -71 -151q5 -47 83 -28q178 47 321 169q116 99 135 183q13 61 -36 90zM173 156q112 69 262 132
q-64 7 -155 -9q-20 -3 -28 11q-5 8 4 14q115 38 223 182q88 116 110 212q18 81 -32 81h-4q-93 -6 -318 -423q-41 -113 -62 -200zM905 541q-8 12 -8 31q0 39 30.5 77t66.5 38q32 0 55 -36q7 -10 7 -27q0 -39 -31 -79t-66 -40q-32 0 -54 36z" />
    <glyph glyph-name="B_o" unicode="Bo" horiz-adv-x="1175" 
d="M881 260q-33 -64 -35 -111.5t16.5 -68t49.5 -21.5q35 90 55 208q5 61 -24 58q-27 -2 -57 -56q-3 -5 -5 -9zM805 -62q12 -11 34 6t44 54q-52 18 -85 68q-7 -32 -9.5 -50.5t0.5 -42t16 -35.5zM817 370l-180 -53q76 -45 52 -152q-25 -111 -137 -218q-147 -139 -344 -175
q-53 -10 -107 -11q-42 -1 -84.5 29.5t-60.5 81.5t18 116q29 49 100 102q8 192 79 455.5t145 361.5q21 12 64.5 15t80.5 -6.5t37 -30.5q0 -3 -1 -4q-44 -75 -109 -212q151 222 319 205q97 -10 101 -98q5 -94 -88 -223q-101 -138 -243 -216q-1 0 -2 -1q63 9 108 3l61 17l69 19
l64.5 17t70 16t61 9.5t60.5 4.5q49 1 88 -14.5t56 -45.5t-8 -74q24 -53 -28 -169q91 61 167 151q7 6 14 2t9 -11q-142 -210 -254 -257q-116 -193 -226 -128q-18 -2 -29 8q-42 30 -45.5 126t31 201t91.5 159zM508 268q-222 -90 -349 -187q-11 -90 7 -139q-15 -41 -44 -35
q-31 7 -42 62q-4 16 -4 36q-76 -97 -71 -151q5 -47 83 -28q178 47 321 169q116 99 135 183q13 61 -36 90zM173 156q112 69 262 132q-64 7 -155 -9q-20 -3 -28 11q-5 8 4 14q115 38 223 182q88 116 110 212q18 81 -32 81h-4q-93 -6 -318 -423q-41 -113 -62 -200z" />
    <glyph glyph-name="B_u" unicode="Bu" horiz-adv-x="1216" 
d="M1034 17q34 29 88.5 89l98 111t44.5 52q9 8 16.5 3.5t9.5 -11.5q-227 -358 -306 -358q-45 1 -49 128v9q-66 -129 -136 -146q-54 -13 -82 49q-39 89 7 249q24 85 72 176l-77.5 -25l-82.5 -26q76 -45 52 -152q-25 -111 -137 -218q-147 -139 -344 -175q-53 -10 -107 -11
q-42 -1 -84.5 29.5t-60.5 81.5t18 116q29 49 100 102q8 192 79 455.5t145 361.5q21 12 64.5 15t80.5 -6.5t37 -30.5q0 -3 -1 -4q-44 -75 -109 -212q151 222 319 205q97 -10 101 -98q5 -94 -88 -223q-101 -138 -243 -216q-1 0 -2 -1q63 9 108 3l79 23t91.5 25.5t79.5 17
t79 5.5t54 -17q17 -12 -36 -87q-111 -245 -99 -313q31 13 135 135q19 85 96 257q6 17 52 19t87 -16q15 -21 -44 -100q-9 -21 -39 -86t-45.5 -106.5t-20.5 -78.5zM508 268q-222 -90 -349 -187q-11 -90 7 -139q-15 -41 -44 -35q-31 7 -42 62q-4 16 -4 36q-76 -97 -71 -151
q5 -47 83 -28q178 47 321 169q116 99 135 183q13 61 -36 90zM173 156q112 69 262 132q-64 7 -155 -9q-20 -3 -28 11q-5 8 4 14q115 38 223 182q88 116 110 212q18 81 -32 81h-4q-93 -6 -318 -423q-41 -113 -62 -200z" />
    <glyph glyph-name="B_l" unicode="Bl" horiz-adv-x="980" 
d="M780 355q57 168 109 271q42 83 97 73q43 -7 65 -61q30 -74 -10 -154q-33 -65 -108 -109q-2 -2 -7 -4.5l-7 -3.5q-105 -232 -118 -366q-3 -34 32 0q28 27 137 170q48 62 62 75q5 5 10 5q4 0 9 -4t7 -8l3 -4q-21 -29 -56 -85l-65.5 -103.5t-64 -94t-63 -70t-50.5 -16.5
q-38 11 -46.5 86.5t5 165.5t38.5 175q-63 -21 -77 -25q16 -29 12 -66t-17.5 -78t-44 -83.5t-68.5 -82.5t-90 -75.5t-109 -62.5t-125.5 -42.5t-138.5 -16.5q-273 67 -26 257q-7 111 25.5 294.5t88 353t109.5 241.5q21 12 64.5 15t80.5 -6.5t37 -30.5q0 -3 -1 -4
q-44 -75 -109 -212q151 222 319 205q98 -10 102 -98q4 -94 -89 -223q-101 -138 -243 -216q-1 0 -2 -1q129 20 191 -26q35 0 129 38zM280 279l-22 19q-5 6 -2 6q115 38 223 182q88 116 110 212q18 81 -32 81h-4q-93 -6 -318 -423q-62 -168 -76 -280q150 94 363 184
q-58 44 -221 19q-4 -1 -10 1q-2 0 -6 -0.5t-5 -0.5zM88 -174q118 31 229 102t174 149t58 135q-234 -107 -393 -225q3 -27 10 -45q2 0 -1 -8.5t-13 -17t-24 -8.5q-22 0 -36 26q-86 -77 -70 -105q11 -18 66 -3zM997 554l-56 -127q28 13 48 54.5t8 72.5z" />
    <glyph glyph-name="C_i" unicode="Ci" horiz-adv-x="802" 
d="M846 488q-158 46 -265 38q-17 -31 -41 -69q-2 -3 -5.5 -9t-4.5 -7q-96 -156 -173 -166q-45 -5 -61 39q-12 33 2 73q49 136 185 200q9 33 14 63.5t5 43.5l1 14q-3 62 -47 80q-106 -66 -202.5 -220t-141.5 -325.5t-13 -282.5q33 -116 170 -17q111 80 235 253l26 37
q37 139 95 220q26 7 64 7q78 0 78 -33q0 -25 -51 -80q-110 -217 -113 -319v-4q0 -18 11 -18q15 0 53.5 40t74.5 87.5l68 90.5t33 44q4 4 9 4q12 0 20 -15q-1 -5 -53.5 -84t-124.5 -174.5t-111 -125.5q-58 -44 -78 40q-18 76 3 214q-71 -98 -139 -168t-125.5 -106.5
t-106.5 -45.5t-85 10t-59 65.5t-30 116.5t4 167.5t41 213.5q15 59 39.5 123t59 132.5t75 121t89 89t99.5 35.5t106 -40q43 23 96 26.5t87 -25.5q11 -9 15 -28q4 -18 0 -45q-6 -55 -43 -139q79 9 130.5 7t69.5 -8q33 -12 39 -74q4 -52 -14 -65q-5 -3 -10 -2zM430 448l17 38
q-61 -40 -70 -102q-4 -28 4 -26q2 0 4 3q4 8 7 12q15 27 38 75z" />
    <glyph glyph-name="C_l" unicode="Cl" horiz-adv-x="786" 
d="M494 57l3 28q-216 -199 -353 -234t-172.5 97t38.5 432q13 50 32.5 104.5t47.5 113t59.5 109.5t70.5 92t79.5 62.5t87 18t91.5 -38.5q27 15 63 22t70 3t53.5 -29.5t11.5 -70.5q-54 -220 -195 -393q-89 -109 -158 -135q-53 -20 -56 30q-4 73 103 253q3 7 16 3q5 -2 3 -6
q-89 -177 -66 -210q11 -15 36 12q5 5 10 12v-1q23 37 52 96.5t58 137.5t26.5 141.5t-48.5 81.5q-107 -67 -199 -205.5t-133.5 -295t-9.5 -266.5q10 -35 31.5 -51t52 -13.5t66.5 17t77.5 41.5t81.5 58.5t83 70.5q23 122 73.5 268t113.5 272q5 10 31.5 16t58 -3.5t42.5 -39.5
q34 -91 -15 -214.5t-171 -216.5q-69 -178 -57 -232q5 -17 17 -2q34 36 85 98.5l87.5 109t39.5 49.5q10 7 18.5 1.5t10.5 -12.5q-130 -210 -202 -306q-77 -103 -119 -46q-34 46 -27 155q0 8 1 16zM670 303q70 74 95.5 143t12.5 109q-38 -84 -108 -252z" />
    <glyph glyph-name="C_e" unicode="Ce" horiz-adv-x="897" 
d="M10 377q13 50 32.5 104.5t47.5 113t59.5 109.5t70.5 92t79.5 62.5t87 18t91.5 -38.5q27 15 63 22t70 3t53.5 -29.5t11.5 -70.5q-54 -220 -195 -393q-89 -109 -158 -135q-53 -20 -56 30q-4 73 103 253q3 7 16 3q5 -2 3 -6q-89 -177 -66 -210q11 -15 36 12q5 5 10 12v-1
q23 37 52 96.5t58 137.5t26.5 141.5t-48.5 81.5q-106 -67 -202 -221t-141 -325.5t-13 -281.5q10 -35 33 -52.5t56 -17t71.5 12t84 35.5t89.5 51.5t91 62.5q-10 67 0.5 130t32.5 105t46 74t41 46l18 15q35 27 76 26t66 -14t43 -29q47 -18 43 -65q-10 -97 -261 -263
q-10 -80 17 -95.5t96 57.5l182 206q8 7 14 4.5t10 -8.5l4 -7q-135 -207 -206 -290q-36 -42 -72.5 -59t-69.5 -3t-51 62q-11 27 -19 60q-363 -274 -503 -176.5t-23 552.5zM740 335q-66 -70 -98 -194q129 118 131 176q0 23 -19 23q-7 -1 -14 -5z" />
    <glyph glyph-name="D_a" unicode="Da" horiz-adv-x="1220" 
d="M1303 272l-238 -359q-12 -17 -47.5 -27.5t-51.5 8.5q-12 21 2 163q-76 -119 -98 -148t-52 -37t-55 9t-31 55q-10 76 12 189.5t48 163.5q19 38 41 71q-75 -21 -85 -24q-36 -113 -104 -218t-156.5 -187.5t-200.5 -126.5t-225 -32q-61 7 -97.5 32t-42.5 62t31 87.5
t117 101.5q7 160 67 370t127 296q50 23 129 12q60 -9 58 -29q-1 -3 -3 -6q-20 -29 -67.5 -111t-114 -222t-95.5 -246q170 100 402 195q1 4 10.5 27.5t14.5 37.5q107 299 -31 388q-92 61 -263 12q-137 -38 -229 -116q-73 -63 -64 -111q-135 106 -74 197q53 77 220 112
q176 37 364 3q70 -13 122 -45t82 -77.5t44 -104t11.5 -122t-19.5 -132.5q19 5 50 14.5l46.5 14t36 8t37.5 3.5q49 -2 80.5 -11.5t42.5 -22.5t14 -28.5t-6 -30.5q35 10 66.5 5t48.5 -16q31 -18 -48 -102q-45 -102 -61 -179q31 27 79.5 86l86 107.5t40.5 51.5q8 6 14.5 3.5
t10.5 -8.5zM66 -184q41 4 95 28.5t122.5 73t141 139.5t127.5 210q-131 -55 -248 -127l-2 -2l-1 -1q-83 -52 -148 -104q-10 -73 7 -115q-5 -28 -31 -31q-30 -4 -45 30q-7 15 -9 35q-75 -118 -30 -134q8 -3 21 -2zM840 -12q6 -17 27 6.5t62.5 86.5t52.5 78q13 73 30 117
q13 82 -14 75q-31 -7 -84 -100q-70 -123 -78 -214q-3 -30 4 -49z" />
    <glyph glyph-name="D_e" unicode="De" horiz-adv-x="1134" 
d="M981 39l182 206q8 7 14 4.5t10 -9.5l4 -6q-135 -207 -206 -290q-36 -42 -72.5 -59t-69.5 -3t-51 62q-29 78 -33.5 150t13 126.5t38 91.5t47.5 67l-106 -31q-34 -114 -101.5 -221.5t-156.5 -191.5t-202.5 -129.5t-228.5 -33.5q-61 7 -97.5 32t-42.5 62t31 87.5t117 101.5
q7 160 67 370t127 296q29 18 107 14t78 -33q0 -3 -1 -4q-25 -39 -68.5 -114t-111.5 -217.5t-97 -247.5q152 90 402 196q55 122 66.5 225t-22 169.5t-106.5 83.5q-60 14 -148.5 -2.5t-166.5 -51t-133 -86t-52 -101.5q-135 106 -74 197q53 77 220 112q176 37 364 3
q69 -13 120.5 -44.5t82 -76t45 -101.5t12.5 -119.5t-18 -130.5q58 23 95 34t80.5 17.5t79 -3.5t68.5 -35q69 -27 29 -98q-47 -84 -247 -216q-6 -38 -0.5 -64t17.5 -38t37.5 0t58.5 50zM160 -82q2 0 -1 -8t-12.5 -15.5t-22.5 -7.5q-38 0 -49 65q-76 -109 -32 -133
q40 -22 144 37q137 76 249 218q74 93 118 195q-228 -100 -401 -237q-10 -72 7 -114zM977 338q-66 -70 -98 -194q129 118 131 176q0 23 -19 23q-7 -1 -14 -5z" />
    <glyph glyph-name="D_i" unicode="Di" horiz-adv-x="1039" 
d="M62 -228q-61 7 -97.5 32t-42.5 62t31 87.5t117 101.5q7 160 67 370t127 296q29 18 107 14t78 -33q0 -3 -1 -4q-25 -38 -68 -112.5t-110.5 -215.5t-97.5 -246q188 120 421 228q112 303 -17 405q-87 69 -253 30q-136 -33 -234 -112q-79 -65 -78 -123q-136 111 -69 203
q56 77 222 111q184 37 360 -4q19 -4 38 -10q140 -42 188 -142.5t21 -283.5q24 9 61 17.5t78.5 14t70.5 -1.5t29 -28q0 -25 -51 -80q-110 -217 -113 -319v-4q0 -18 11 -18q15 0 53.5 40t74.5 87.5l68 90.5t33 44q4 4 9 4q13 0 20 -15q-1 -5 -53.5 -84t-124.5 -174.5
t-111 -125.5q-57 -44 -78 39q-23 94 12 265q25 123 71 214q-8 -2 -34 -9t-39 -11q-24 -93 -71.5 -184t-115 -170t-146.5 -138t-173.5 -88.5t-189.5 -19.5zM160 -82q2 0 -1 -8t-12.5 -15.5t-22.5 -7.5q-40 0 -51 72q-24 -33 -36 -60t-11.5 -47.5t18.5 -27.5t56 0
q103 22 198 97t162.5 172t114.5 211q-214 -94 -422 -270q-10 -73 7 -116zM925 541q-8 12 -8 31q0 39 30.5 77t66.5 38q32 0 55 -36q7 -10 7 -27q0 -39 -31 -79t-66 -40q-32 0 -54 36z" />
    <glyph glyph-name="D_u" unicode="Du" horiz-adv-x="1259" 
d="M771 426q113 36 127 39q152 37 115 -47q-9 -21 -30 -50q-40 -65 -89 -197t-41 -178q31 13 135 135q19 85 96 257q6 17 52 19t87 -16q15 -21 -44 -100q-9 -21 -39 -86t-45.5 -106.5t-20.5 -78.5q34 29 88.5 89l98 111t44.5 52q9 8 16.5 3.5t9.5 -11.5q-227 -358 -306 -358
q-45 1 -49 128v9q-63 -124 -132 -144q-56 -16 -85 45q-41 88 7 255q29 101 89 213q-77 -22 -97 -37q-24 -93 -71.5 -184t-115 -170t-146.5 -138t-173.5 -88.5t-189.5 -19.5q-61 7 -97.5 32t-42.5 62t31 87.5t117 101.5q7 160 67 370t127 296q29 18 107 14t78 -33q0 -3 -1 -4
q-25 -38 -68 -112.5t-110.5 -215.5t-97.5 -246q188 120 421 228q112 303 -17 405q-87 69 -253 30q-136 -33 -234 -112q-79 -65 -78 -123q-136 111 -69 203q56 77 222 111q184 37 360 -4q19 -4 38 -10q140 -42 188 -142.5t21 -283.5zM160 -82q2 0 -1 -8t-12.5 -15.5
t-22.5 -7.5q-40 0 -51 72q-24 -33 -36 -60t-11.5 -47.5t18.5 -27.5t56 0q103 22 198 97t162.5 172t114.5 211q-214 -94 -422 -270q-10 -73 7 -116z" />
    <glyph glyph-name="E_h" unicode="Eh" horiz-adv-x="1021" 
d="M638 -99q-80 -62 -94 12q-12 70 40 244q-169 -250 -341 -340q-137 -71 -222 -16q-87 58 -76 222q1 17 3 35q12 90 53.5 163t103.5 122t121.5 79.5t127.5 52.5q-139 16 -171 107q-28 80 36 175q69 103 200 152q96 35 201 29q116 -6 138 -61q25 -60 -79 -140
q-91 -71 -264 -138q-5 1 -11.5 10t-9 16t0.5 10q80 47 175 142q93 93 73 112q-8 7 -34 0q-115 -32 -199 -126q-79 -88 -71 -164q7 -76 109 -100l83 14q17 2 25 -16t3.5 -37t-16.5 -20q-151 -13 -285 -149q-105 -105 -141 -223q-34 -111 21 -150l6 -4q101 -60 335 191
q76 80 144 170q61 171 165 403q4 14 75.5 18t90.5 -15q6 -6 6 -14q0 -16 -46 -98.5t-105 -157.5q-79 -156 -128 -299q90 146 155 212q4 26 23.5 40.5t45 17t49 0.5t41.5 -8q7 -1 11.5 -4.5t6 -12t-3 -20.5t-19.5 -32.5t-40 -47.5q-61 -132 -75 -220q30 32 71 83l69.5 86.5
t32.5 38.5q8 6 14.5 3t9.5 -10l4 -6l-199 -296q-28 -41 -63 -58q-31 -16 -41 11q-6 15 3.5 118t27.5 196q-157 -185 -166 -302z" />
    <glyph glyph-name="E_k" unicode="Ek" horiz-adv-x="997" 
d="M786 -123q-64 32 -121 211l-18 -14q-38 -125 -29 -173q-50 -41 -76 -22t-18 97q-185 -135 -323 -175.5t-206.5 25t-46.5 232.5q12 90 53.5 163t103.5 122t121.5 79.5t127.5 52.5q-139 16 -171 107q-28 80 36 175q69 103 200 152q96 35 201 29q116 -6 138 -61
q25 -60 -79 -140q-91 -71 -264 -138q-5 1 -11.5 10t-9 16t0.5 10q80 47 175 142q93 93 73 112q-8 7 -34 0q-115 -32 -199 -126q-79 -88 -71 -164q7 -76 109 -100l83 14q17 2 25 -16t3.5 -37t-16.5 -20q-151 -13 -285 -149q-105 -105 -141 -223q-34 -111 21 -150l6 -4
q100 -59 393 139q45 212 231 625q4 13 72 18q86 6 96 -19q3 -6 -1 -14l-43 -66q-63 -105 -116 -211q93 93 153 65q6 -6 16.5 -15t16 -14.5l13.5 -13.5t12 -13.5t9 -13.5t6.5 -14.5t1.5 -15t-3 -16.5q-8 -25 -92.5 -90.5t-176.5 -110.5q64 -98 98 -126q37 40 84.5 100
l80.5 103.5t35 45.5q9 7 20.5 1t12.5 -11q-4 -1 -41.5 -63l-81 -134t-89 -127.5t-65.5 -45.5zM884 345q-35 77 -123 -38q-35 -46 -67 -108q2 -6 11 -21q70 50 128 101.5t51 65.5z" />
    <glyph glyph-name="E_x" unicode="Ex" horiz-adv-x="1020" 
d="M1026 434q-18 -64 -86 -163.5t-161 -205.5q15 -67 32 -93l63 68l62.5 72l48.5 58.5t24 28.5q5 5 11 5t10.5 -3.5t5.5 -6.5l2 -4q-22 -26 -56.5 -75.5l-64.5 -94l-60.5 -85.5t-54.5 -59t-37 -5q-33 33 -61 114q-9 -9 -39 -42.5l-61 -67t-78.5 -78t-93 -80.5t-102.5 -67.5
t-109.5 -47t-110.5 -11.5t-110 33q-25 14 -33.5 40t-4 49.5t15.5 39.5q69 -28 140 -30.5t129 14t117.5 50.5t103 70t87.5 83t69 78.5t50 66.5q-19 70 -38 152q-172 -284 -358 -400q-143 -89 -239 -46q-90 41 -95 183q-2 39 4 84q12 90 53.5 163t103.5 122t121.5 79.5
t127.5 52.5q-139 16 -171 107q-28 80 36 175q69 103 200 152q96 35 201 29q116 -6 138 -61q25 -60 -79 -140q-91 -71 -264 -138q-5 1 -11.5 10t-9 16t0.5 10q80 47 175 142q93 93 73 112q-8 7 -34 0q-115 -32 -199 -126q-79 -88 -71 -164q7 -76 109 -100l83 14q17 2 25 -16
t3.5 -37t-16.5 -20q-151 -13 -285 -149q-105 -105 -141 -223q-34 -111 21 -150l6 -4q38 -22 96.5 2t113.5 69t117 111t95.5 106.5t59.5 75.5q-26 103 -43 122q5 23 60 11q63 -13 94 -48q17 -21 12 -42q-3 -23 8 -114q52 81 95.5 156t51.5 94q11 25 60.5 15.5t61.5 -38.5z
" />
    <glyph glyph-name="F_i" unicode="Fi" horiz-adv-x="976" 
d="M293 823q85 0 248 13q9 19 25 41q30 18 96 14t66 -33q0 -4 -1 -5v-1l210.5 21.5t173.5 18.5t63 7q15 0 0 -28t-43 -66.5t-30 -41.5q-15 -25 -423 -31l-99 -279q140 12 275 7h13q78 0 78 -33q0 -25 -51 -80q-110 -217 -113 -319v-4q0 -18 11 -18q15 0 53.5 40t74.5 87.5
l68 90.5t33 44q4 4 9 4q12 0 20 -15q-1 -5 -53.5 -84t-124.5 -174.5t-111 -125.5q-57 -44 -78 38q-23 94 12 265q29 144 85 241q-116 -7 -223 -25l-121 -366q-32 -100 -81.5 -160t-101.5 -75t-106 -5.5t-98.5 42t-76 75.5t-40.5 86q-16 82 3.5 151t64 116t114 84t142.5 58
t160 36q48 193 83 296q-280 2 -275 11q6 11 12 29t10 27.5t16 17.5t31 8zM304 -49q7 26 93 402q-64 -20 -115.5 -46.5t-85 -54t-57.5 -57.5t-36.5 -57.5t-18 -55.5t-4.5 -50t5 -41q21 -97 65.5 -137.5t88.5 -13t65 110.5zM860 540q-8 12 -8 31q0 39 30.5 77t66.5 38
q32 0 55 -36q7 -10 7 -27q0 -39 -31 -79t-66 -40q-32 0 -54 36z" />
    <glyph glyph-name="F_l" unicode="Fl" horiz-adv-x="960" 
d="M293 823q85 0 248 13q9 19 25 41q30 18 96 14t66 -33q0 -4 -1 -5v-1l210.5 21.5t173.5 18.5t63 7q15 0 0 -28t-43 -66.5t-30 -41.5q-15 -25 -423 -31l-113 -317q85 4 185 0q53 146 106 240q14 24 41 31.5t57 -6.5t47 -48q15 -30 17.5 -69t-9 -79t-48 -74.5t-92.5 -50.5
l-79 -192q-49 -145 -36 -188q3 -12 10 -5q28 29 80.5 93l93 115.5t43.5 54.5q5 5 10 5q4 0 9 -4t8 -8l2 -4q-21 -29 -56 -85l-65.5 -103.5t-64 -94t-63 -70t-50.5 -16.5q-37 42 -43 127t11.5 177.5t51.5 197.5q-113 -10 -192 -22l-103 -311q-32 -100 -81.5 -160t-101.5 -75
t-106 -5.5t-98.5 42t-76 75.5t-40.5 86q-16 81 3 147t63 110.5t112 77t140.5 50.5t158.5 29q53 220 90 327q-280 2 -275 11q6 11 12 29t10 27.5t16 17.5t31 8zM304 -49q13 53 82 352q-70 -20 -125 -47t-87 -54t-55 -56.5t-29 -56.5t-9 -53t4 -45q21 -97 65.5 -137.5
t88.5 -13t65 110.5zM942 528l-49 -109q33 6 47.5 46t1.5 63z" />
    <glyph glyph-name="G_e" unicode="Ge" horiz-adv-x="960" 
d="M518 22l69 44q-8 65 4 125.5t34 100.5t45 71t40 45l17 14q35 27 76 26t66 -14t43 -29q69 -27 29 -98q-47 -84 -247 -216q-6 -38 -0.5 -64t17.5 -38t37.5 0t58.5 50l182 206q8 7 14 4.5t10 -9.5l4 -6q-135 -207 -206 -290q-36 -42 -72.5 -59t-69.5 -3t-51 62
q-19 50 -26 92q-59 -42 -72 -53q0 -50 -9 -101t-32 -108t-57.5 -107.5t-89.5 -98.5t-124 -83q-38 -19 -99 28t-62 83q-3 62 104 162.5t256 195.5q6 56 -6 80q-66 -98 -155 -165.5t-166 -54.5q-62 10 -91 141q-36 163 2 376q48 269 184 422q81 91 185 125q12 7 30 3.5
t27 -8.5l28 -15.5t33 -16.5q207 68 202 -59q-3 -110 -151 -322q-93 -133 -174 -211q-23 -22 -55 -15q-45 11 -33 78q13 77 103 209q5 6 16 2q5 -1 3 -5q-89 -177 -66 -210q11 -15 36 12q5 5 10 12v-1q23 37 52 96.5t58 137.5t26.5 141.5t-48.5 81.5q-106 -66 -197 -219
t-134 -320.5t-23 -282.5q16 -88 101 -37q73 43 150 150q10 13 18 26q38 84 82 64q41 -18 59 -108q3 -19 5 -39zM188 -403q57 1 114 85.5t88 190.5q-206 -187 -224 -251q-7 -25 22 -25zM803 338q-66 -70 -98 -194q129 118 131 176q0 23 -19 23q-7 -1 -14 -5z" />
    <glyph glyph-name="H_i" unicode="Hi" horiz-adv-x="1245" 
d="M1039 949q30 18 96 14t66 -33q0 -4 -1 -5q-8 -12 -32.5 -59.5l-65.5 -133.5l-79 -172q63 7 123.5 11.5t89.5 6.5l28 1q18 -4 12 -25q-8 -26 -39 -31q-12 -3 -26 0q-109 -3 -210 -15q-209 -493 -157 -629q2 0 -2.5 -12t-14 -20t-21.5 0q-52 32 -61 135t14.5 228t69.5 271
q-123 -25 -225 -60q-81 -230 -133 -395q-32 -100 -81.5 -160t-101.5 -75t-106 -5.5t-98.5 42t-76 75.5t-40.5 86q-14 69 5.5 131.5t62.5 111t110.5 91t143.5 74t168 58.5q71 291 127 372q-71 -9 -141.5 -28.5t-136 -48.5t-106 -72.5t-40.5 -93.5q-169 137 -44 218
q99 64 324 73q182 8 274 -22q50 -17 38 -40q-23 -41 -120 -313q90 20 216 38q102 295 191 411zM1068 453q26 7 64 7q78 0 78 -33q0 -25 -51 -80q-110 -217 -113 -319v-4q0 -18 11 -18q15 0 53.5 40t74.5 87.5l68 90.5t33 44q4 4 9 4q13 0 20 -15q-1 -5 -53.5 -84
t-124.5 -174.5t-111 -125.5q-57 -44 -77 38q-24 94 11 265q36 177 108 277zM339 -49l92 398q-169 -83 -244.5 -163.5t-76.5 -162.5q-1 -129 63 -174q48 -34 100 0q48 31 66 102z" />
    <glyph glyph-name="H_t" unicode="Ht" horiz-adv-x="1268" 
d="M1050 -126q-104 -29 -122 44q-31 121 154 565q-29 -3 -96 -11q-192 -463 -142 -593q2 0 -2.5 -12t-14 -20t-21.5 0q-49 30 -59.5 125t9 211.5t61.5 255.5q-129 -32 -233 -75q-57 -161 -113 -338q-32 -100 -81.5 -160t-101.5 -75t-106 -5.5t-98.5 42t-76 75.5t-40.5 86
q-16 81 15 150.5t101.5 123t160.5 94t206 73.5q83 334 141 407q30 18 96 14t66 -33q0 -4 -1 -5q-20 -31 -130 -341q82 17 217 38q47 143 102 263.5t98 175.5q30 18 96 14t66 -33q0 -4 -1 -5q-8 -13 -35 -64.5t-71 -144.5t-83 -185q49 6 96 9q20 49 60 138q4 13 72 18
q86 6 96 -19q3 -6 -1 -14l-66 -111l132 6q13 -5 13.5 -21.5t-12.5 -33.5t-29 -16q-64 4 -140 4l-26 -44q-74 -142 -124.5 -273.5t-62.5 -212.5q1 -33 42.5 9t121 142.5t109.5 134.5q10 7 18.5 1.5t10.5 -12.5q-3 -5 -68 -107.5t-119.5 -174t-83.5 -80.5zM339 -49l77 332
l-78.5 -42.5l-69.5 -37.5t-53 -32t-44 -35t-28 -37.5t-19.5 -48.5t-3.5 -59q1 -50 15 -86.5t34.5 -54.5t46 -20.5t49 10t44 41.5t30.5 70z" />
    <glyph glyph-name="I_t" unicode="It" horiz-adv-x="860" 
d="M886 247q10 7 18.5 1.5t10.5 -12.5q-3 -5 -68 -107.5t-119.5 -174t-83.5 -80.5q-131 -39 -129 95q2 133 142 470q-64 -22 -94 -34q-57 -161 -113 -338q-32 -100 -81.5 -160t-101.5 -75t-106 -5.5t-98.5 42t-76 75.5t-40.5 86q-16 81 15 150.5t101.5 123t160.5 94
t206 73.5q76 310 133 396q-71 -9 -141 -28.5t-135.5 -48.5t-106 -72.5t-40.5 -93.5q-164 125 -51 209q90 65 305 83q183 15 285 -16q54 -16 54 -41q0 -4 -1 -5q-20 -31 -130 -341l40.5 8t54.5 10l65 147q4 13 72 18q86 6 96 -19q3 -6 -1 -14l-43 -66l-24 -40
q125 17 254.5 27.5t196.5 12.5l67 2q13 -5 13.5 -21.5t-12.5 -33.5t-29 -16q-274 17 -530 -42q-81 -150 -137.5 -294t-70.5 -231q1 -33 42.5 9t121 142.5t109.5 134.5zM318 -8l77 332q-142 -80 -224 -164.5t-72 -127.5q21 -97 65.5 -137.5t88.5 -13t65 110.5z" />
    <glyph glyph-name="K_l" unicode="Kl" horiz-adv-x="935" 
d="M322 838q-80 -20 -147.5 -51.5t-119 -85t-51.5 -114.5q-174 137 -56 223q89 65 294 80q141 11 220 -9q19 -4 35.5 -14.5t9.5 -21.5q-11 -20 -38.5 -74l-78 -160.5t-91.5 -205.5q4 -16 7 -24q44 7 115.5 50t139 111t92.5 150.5t-23 168.5q-2 3 7 6q37 11 99 0
q41 -6 62 -22q99 -74 -10 -216q-86 -112 -252 -213q-121 -74 -209 -94q34 -92 81.5 -184t86.5 -138q52 38 160 136q22 123 73 270.5t115 275.5q5 10 31.5 16t58 -3.5t42.5 -39.5q34 -91 -14.5 -214t-171.5 -216q-69 -179 -57 -233q4 -21 17 -2q34 36 85 98.5l87.5 109
t39.5 49.5q10 7 18.5 1.5t10.5 -12.5q-130 -210 -202 -306q-77 -102 -119 -46q-35 45 -28 153q0 7 1 14l-58 -71.5l-57 -69.5l-31 -38q-23 -21 -48.5 -9t-42.5 41q-128 204 -160 366q-136 -362 -94 -471q2 0 -2.5 -12t-14 -20t-21.5 0q-52 32 -62 132t15 228.5t67.5 266.5
t93.5 256.5t95 187.5zM819 301q70 74 95.5 143t12.5 109q-38 -84 -108 -252z" />
    <glyph glyph-name="K_o" unicode="Ko" horiz-adv-x="1099" 
d="M624 867q97 17 158.5 -13.5t61.5 -92.5q0 -88 -87 -189.5t-202.5 -172.5t-208.5 -90q123 -221 296 -235q10 64 42 142q70 171 187 221q82 35 145 -3q55 -33 51 -96q0 -15 -5 -30q-14 -45 -43 -94q4 -86 -37 -174.5t-113.5 -137.5t-146.5 -21q-72 29 -82 115
q-112 2 -214 72.5t-178 216.5q-126 -322 -92 -465q-13 -47 -38 -32q-70 42 -70 192q0 165 93 439.5t181 415.5q-122 -18 -223 -95.5t-95 -152.5q-100 84 -103 143q-1 39 39.5 72.5t105.5 54t139 31.5t144.5 9.5t116.5 -15.5q33 -5 51.5 -15.5t9.5 -21.5q-14 -18 -85 -167
l-127 -277q8 -22 18 -41q51 18 112 59t115 93t89 114.5t33 116.5q-3 76 -38 124zM892 205q-10 19 19 40t61 22q26 46 11 74.5t-72 17.5q-38 -9 -83.5 -93t-71.5 -177q79 26 144 86q-2 17 -8 30zM881 72q-67 -45 -141 -64q-5 -60 21 -64q33 -8 66.5 31t53.5 97z" />
    <glyph glyph-name="K_e" unicode="Ke" horiz-adv-x="1046" 
d="M893 39l183 206q8 7 14 4.5t10 -9.5l4 -6q-136 -207 -207 -290q-36 -42 -72.5 -59t-69.5 -3t-51 62q-19 50 -27 97q-89 -26 -160.5 -15t-128 53t-92 91.5t-51.5 99.5q-136 -362 -94 -471q2 0 -2.5 -12t-14 -20t-21.5 0q-52 32 -62 132t15 228.5t67.5 266.5t93.5 256.5
t95 187.5q-80 -20 -147.5 -51.5t-119 -85t-51.5 -114.5q-174 137 -56 223q89 65 294 80q141 11 220 -9q19 -4 35.5 -14.5t9.5 -21.5q-11 -20 -38.5 -74l-78 -160.5t-91.5 -205.5q4 -16 7 -24q44 7 115.5 50t139 111t92.5 150.5t-23 168.5q-2 3 7 6q37 11 99 0q41 -6 62 -22
q99 -74 -10 -216q-86 -112 -252 -213q-121 -74 -209 -94q35 -103 134 -175t210 -55q-4 60 9.5 116t35 93.5t43.5 66t38 41.5l16 13q35 27 76 26t66 -14t43 -29q73 -29 24 -106q-49 -78 -219 -193l-23 -15q-6 -38 -0.5 -64t17.5 -38t37.5 0t58.5 50zM889 338
q-66 -70 -98 -194q129 118 131 176q0 23 -19 23q-7 -1 -14 -5z" />
    <glyph glyph-name="L_i" unicode="Li" horiz-adv-x="872" 
d="M243 -19q19 74 65 296t85.5 364.5t81.5 195.5q9 5 26 8q19 25 48 32q240 57 334 -56q58 -70 40 -175q-14 -83 -63 -122q-57 -43 -110 16q-23 39 11 92q31 48 72 53q33 4 55 -26q-3 41 -32 76t-68.5 52t-87 9t-82.5 -46q-116 -294 -243 -694q-31 -96 -89 -167
q45 -27 72.5 -42t71.5 -36.5t74 -30.5t69.5 -16t70.5 -2t65 21t64 44q10 9 1 -34q-19 -92 -51 -164q-9 -20 -15 -25q-17 -16 -37.5 -24.5t-45 -7.5t-46.5 3.5t-52 17l-51.5 24.5t-55.5 33.5l-53.5 37t-55.5 42.5l-52 42l-51 42q-109 -80 -233 -74q-94 5 -131 57
q-27 36 -8 84t44 78.5t55.5 41.5t61 12t70.5 -13t73 -30.5t79 -42.5q15 23 24 54zM693 453q26 7 64 7q78 0 78 -33q0 -25 -51 -80q-110 -217 -113 -319v-4q0 -18 11 -18q15 0 53.5 40t74.5 87.5l68 90.5t33 44q4 4 9 4q12 0 20 -15q-1 -5 -53.5 -84t-124.5 -174.5
t-111 -125.5q-57 -44 -77 38q-24 94 11 265q36 177 108 277zM-5 -76q-10 -35 40 -54t106 -1q-32 25 -54.5 41t-42.5 25.5t-32.5 6.5t-16.5 -18z" />
    <glyph glyph-name="M_i" unicode="Mi" horiz-adv-x="1374" 
d="M1197 453q26 7 64 7q78 0 78 -33q0 -25 -51 -80q-110 -217 -113 -319v-4q0 -18 11 -18q15 0 53.5 40t74.5 87.5l68 90.5t33 44q4 4 9 4q12 0 20 -15q-1 -5 -53.5 -84t-124.5 -174.5t-111 -125.5q-57 -44 -77 39q-20 81 4 227q-145 -210 -190 -270q-28 -38 -63 -12
q-45 32 -52 132q-9 148 83 344q-117 -162 -289 -485q-34 -64 -63 -27q-36 45 -34 185q4 224 108 453l-24 2q-200 -282 -387 -644q-36 -70 -66 -32q-38 48 -35 210q4 245 103 521q-214 50 -278 130q-112 118 35 188q118 57 338 63q79 2 142 -5q25 -3 43.5 -5.5t43 -7
t34.5 -11t3 -13.5q-44 -67 -154 -305q32 -6 90 -13q154 201 287 225q59 11 104 -3q27 -8 14 -21q-25 -32 -117 -227l111 -3q116 124 204 145q63 16 72 -35q1 -3 1 -7q0 -3 -1 -4q-17 -20 -56 -90q101 11 160 31q-17 39 18.5 88.5t75.5 49.5q20 0 41 -19t21 -44
q0 -36 -26 -71.5t-59 -45.5q-115 -35 -263 -47q-76 -139 -132.5 -282t-57.5 -232q50 53 229 264q37 156 101 244zM326 843q-237 -40 -319 -122q-45 -45 71 -95q49 -21 122 -40q57 140 126 257zM564 -9q105 272 256 460q-60 0 -90 1q-131 -287 -166 -461zM186 49
q125 261 238 424l-74 10q-116 -258 -164 -434zM635 563q-11 -13 -31 -41q5 0 8 -1q7 14 23 42z" />
    <glyph glyph-name="N_i" unicode="Ni" horiz-adv-x="1059" 
d="M986 504q-107 -36 -270 -46q-98 -252 -101 -456q-4 -216 110 -255q89 -31 241 55q-12 -158 -105 -206q-80 -40 -177 17q-105 61 -164 200q-91 215 -11 492q21 75 55 151q-4 0 -12 0.5t-12 0.5q-169 -247 -368 -628q-41 -79 -73 -45q-39 42 -33 203q8 235 108 521
q-152 38 -240 98q-176 120 -50 202q99 66 333 86q187 17 277 -8q36 -11 36 -26q0 -4 -1 -5q-43 -65 -158 -314q47 -8 76 -11q156 217 299 283q87 41 126 7q17 -15 17 -41q0 -4 -1 -5q-80 -98 -150 -260q124 3 190 29q-22 38 14 90.5t77 52.5q20 0 41 -19t21 -44
q0 -39 -26.5 -72t-68.5 -47zM882 453q26 7 64 7q78 0 78 -33q0 -25 -51 -80q-110 -217 -113 -319v-4q0 -18 11 -18q15 0 53.5 40t74.5 87.5l68 90.5t33 44q4 4 9 4q13 0 20 -15q-1 -5 -53.5 -84t-124.5 -174.5t-111 -125.5q-57 -44 -77 38q-24 94 11 265q36 177 108 277z
M11 730q-58 -56 73 -114q48 -21 116 -39q54 141 122 267q-231 -39 -311 -114zM176 31q104 247 228 436l-63 8q-122 -273 -165 -444zM624 575l-19 -25t-24 -33q2 0 6 -0.5t5 -0.5z" />
    <glyph glyph-name="P_i" unicode="Pi" horiz-adv-x="936" 
d="M-43 559q-121 167 -11 269q86 82 278 96q186 14 335 -43q79 -30 122 -74q61 -62 46 -157q78 6 169 1q49 -5 59 -68q7 -47 -9 -71q-6 -8 -13 -5q-101 40 -243 35q-46 -89 -130.5 -174t-181 -138.5t-173.5 -54.5q-90 -254 -51 -357q-1 -5 -4 -13t-13.5 -17.5t-23.5 -2.5
q-111 71 -47 386q-110 22 -107 93q3 74 121 165q35 27 78 52q79 207 150 299q17 25 87 17q64 -8 75 -30q3 -6 0 -12q-68 -127 -91 -174q91 31 197 51q17 57 9.5 99.5t-43.5 73t-107.5 33t-184.5 -20.5q-127 -28 -210 -99.5t-83 -158.5zM817 460q79 0 79 -33q0 -24 -49 -78
q-113 -220 -117 -318v-4q0 -22 13 -22q28 0 117 114.5t110 151.5q2 0 6.5 1.5t6.5 1.5q5 0 10.5 -6.5t5.5 -10.5t-52 -84t-123.5 -175.5t-109.5 -125.5q-58 -43 -78 40q-24 95 11 264q36 176 108 276q24 8 62 8zM224 228q76 28 162 112.5t142 182.5q-100 -19 -203 -54
q-52 -112 -101 -241zM120 374q-117 -71 -114 -122q1 -35 67 -50q15 69 47 172z" />
    <glyph glyph-name="R_o" unicode="Ro" horiz-adv-x="1083" 
d="M1062 308q-14 -45 -43 -94q4 -86 -37 -174.5t-113.5 -137.5t-146.5 -21q-72 29 -82 115q-112 2 -214 72.5t-178 216.5q-126 -322 -92 -465q-13 -47 -38 -32q-70 42 -70 192q0 179 89 435t174 365q43 24 113 11q52 -10 51 -29q-1 -3 -3 -6q-16 -22 -70.5 -128t-106.5 -227
q8 -22 18 -41q107 36 192.5 136.5t85.5 208.5q0 99 -116 125q-114 25 -269 -25q-150 -49 -216 -130q-47 -58 -31 -116q-62 87 -62 157q0 68 57.5 117t144.5 71t191 22q118 0 215.5 -25.5t162 -81t64.5 -133.5q0 -89 -59 -171t-146 -134.5t-181 -71.5q123 -221 296 -235
q10 64 42 142q70 171 187 221q82 35 145 -3q55 -33 51 -96q0 -15 -5 -30zM892 205q-10 19 19 40t61 22q26 46 11 74.5t-72 17.5q-38 -9 -83.5 -93t-71.5 -177q79 26 144 86q-2 17 -8 30zM761 -56q33 -8 66.5 31t53.5 97q-67 -45 -141 -64q-5 -60 21 -64z" />
    <glyph glyph-name="R_e" unicode="Re" horiz-adv-x="1042" 
d="M889 39l182 206q8 7 14 4.5t10 -9.5l4 -6q-135 -207 -206 -290q-36 -42 -72.5 -59t-69.5 -3t-51 62q-20 52 -28 102q-50 -19 -97.5 -21t-84 8.5t-71 34.5t-58.5 48.5t-48 58.5t-37 57.5l-28 52.5q-126 -322 -92 -465q-13 -47 -38 -32q-70 42 -70 192q0 179 89 435
t174 365q43 24 113 11q52 -10 51 -29q-1 -3 -3 -6q-16 -22 -70.5 -128t-106.5 -227q8 -22 18 -41q107 36 192.5 136.5t85.5 208.5q0 99 -116 125q-114 25 -269 -25q-150 -49 -216 -130q-47 -58 -31 -116q-62 87 -62 157q0 68 57.5 117t144.5 71t191 22q118 0 215.5 -25.5
t162 -81t64.5 -133.5q0 -89 -59 -171t-146 -134.5t-181 -71.5q70 -93 86 -111q108 -123 230 -104q2 1 5 1q-3 60 10 115.5t34.5 92.5t43.5 65t38 41l16 13q35 27 76 26t66 -14t43 -29q69 -27 29 -98q-47 -84 -247 -216q-6 -38 -0.5 -64t17.5 -38t37.5 0t58.5 50zM885 338
q-66 -70 -98 -194q129 118 131 176q0 23 -19 23q-7 -1 -14 -5z" />
    <glyph glyph-name="R_i" unicode="Ri" horiz-adv-x="947" 
d="M260 247q113 72 189.5 159t104.5 161.5t25.5 136t-34.5 93.5q-29 28 -95.5 36.5t-146.5 -6.5t-155.5 -46.5t-130 -90.5t-63.5 -132q-66 87 -63.5 155.5t57.5 115.5t143 71.5t194 24.5q116 0 203.5 -19.5t137 -53.5t76 -79t23.5 -97.5t-23 -108t-62 -110.5t-94.5 -104.5
t-119.5 -92t-138 -70.5q59 -88 120.5 -140t116 -69t110.5 -7.5t102 36t93.5 71.5t82.5 89t71 97q7 8 20 1.5t13 -11.5q-30 -55 -66 -106.5t-88 -107.5t-107 -93.5t-124 -54.5t-138 -2.5t-148.5 75t-156.5 167.5q-41 -143 -46 -193q-7 -65 8 -123v-1q0 -7 -8.5 -23t-18.5 -12
q-64 27 -77.5 128.5t14 230t71 261t91.5 234t79 136.5q17 20 89 17.5t78 -25.5q1 -5 -2 -10q-13 -22 -44 -81t-84 -171t-93 -213q5 -19 14 -43zM649 25q1 110 32.5 229t88.5 199q26 7 64 7q78 0 78 -33q0 -25 -51 -80q-42 -83 -64 -138t-34 -118q-8 -42 -52 -58.5t-62 -7.5z
M827 540q-25 38 11 92t78 54q20 0 41 -19t21 -44q0 -37 -27 -74t-60.5 -44t-63.5 35z" />
    <glyph glyph-name="S_a" unicode="Sa" horiz-adv-x="1025" 
d="M1106 271l-238 -359q-12 -17 -47.5 -27.5t-51.5 8.5q-12 21 2 163q-76 -119 -98 -148t-52 -37t-55 9t-31 55q-10 76 12 189.5t48 163.5q17 34 35 61q-92 -29 -177 -63q28 -42 28 -98t-24 -113.5t-73 -114.5t-112.5 -101.5t-148.5 -73t-176 -30.5q-49 -2 -93.5 19
t-68 54.5t-4 82.5t89.5 97q149 110 409 243q-55 57 -191 54q-64 -1 -95 78q-36 93 -2 219q44 158 175 249q70 48 158 69q18 4 32 0.5t35 -14.5t34 -16q23 12 53.5 17t59 2t45 -24t9.5 -58q-13 -67 -74.5 -139.5t-129.5 -120t-119 -66.5q-19 23 10 63q47 28 96 85.5t66 114
t-37 82.5q-118 -64 -208 -190q-85 -119 -81 -202q4 -81 98 -79q139 3 209 -56q124 70 268 92q143 21 173 -30q12 -21 1 -52q35 10 66.5 5t48.5 -16q31 -18 -48 -102q-45 -102 -61 -179q31 27 79.5 86l86 107.5t40.5 51.5q8 6 14.5 3.5t10.5 -8.5zM-95 -50l-1 -1
q-29 -42 -36 -77t15.5 -52t74.5 -4q105 27 195.5 99.5t132.5 157t16 145.5q-272 -133 -397 -268zM643 -13q6 -17 27 6.5t62.5 86.5t52.5 78q13 73 30 117q13 82 -14 75q-31 -7 -84 -100q-70 -123 -78 -214q-3 -30 4 -49z" />
    <glyph glyph-name="S_e" unicode="Se" horiz-adv-x="939" 
d="M785 39l182 206q8 7 14 4.5t10 -9.5l4 -6q-135 -207 -206 -290q-36 -42 -72.5 -59t-69.5 -3t-51 62q-28 74 -33 143.5t10 123t34.5 90.5t45.5 69q-101 -35 -204 -79q30 -41 31.5 -97.5t-21.5 -114.5t-72 -115.5t-112.5 -103t-149.5 -74.5t-178 -31q-62 -2 -113.5 28
t-60 79.5t55.5 112.5q129 135 439 287q-57 44 -179 43q-64 -1 -95 78q-36 93 -2 219q44 158 175 249q70 48 158 69q18 4 32 0.5t35 -14.5t34 -16q23 12 53.5 17t59 2t45 -24t9.5 -58q-13 -67 -74.5 -139.5t-129.5 -120t-119 -66.5q-19 23 10 63q47 28 96 85.5t66 114
t-37 82.5q-118 -64 -208 -190q-85 -119 -81 -202q4 -81 98 -79q128 3 197 -47q230 100 338 116q40 11 78.5 -3.5t62.5 -35.5q69 -27 29 -98q-47 -84 -247 -216q-6 -38 -0.5 -64t17.5 -38t37.5 0t58.5 50zM-95 -50l-2 -2q-28 -42 -35 -76.5t15.5 -51.5t74.5 -4
q105 27 196.5 100t133 158.5t13.5 146.5q-276 -143 -396 -271zM781 338q-66 -70 -98 -194q129 118 131 176q0 23 -19 23q-7 -1 -14 -5z" />
    <glyph glyph-name="S_i" unicode="Si" horiz-adv-x="844" 
d="M280 564q47 28 96 85.5t66 114t-37 82.5q-118 -64 -208 -190q-85 -119 -81 -202q4 -81 98 -79q105 3 172 -32q178 86 281 110q19 5 50.5 7t61.5 -5.5t30 -27.5q0 -25 -51 -80q-110 -217 -113 -319v-4q0 -18 11 -18q15 0 53.5 40t74.5 87.5l68 90.5t33 44q10 6 17.5 1.5
t11.5 -12.5q-1 -5 -53.5 -84t-124.5 -174.5t-111 -125.5q-57 -44 -77 38q-24 95 11 265q26 128 74 221q-105 -34 -205 -82q36 -32 48.5 -78.5t0.5 -98t-40.5 -105t-78.5 -102t-110.5 -87.5t-139 -63t-161.5 -26q-60 -2 -111 27t-61.5 76.5t46.5 108.5q126 141 429 307
q-58 32 -161 31q-64 -1 -95 78q-36 93 -2 219q44 158 175 249q70 48 158 69q18 4 32 0.5t35 -14.5t34 -16q23 12 53.5 17t59 2t45 -24t9.5 -58q-13 -67 -74.5 -139.5t-129.5 -120t-119 -66.5q-19 23 10 63zM-95 -50l-2 -2q-28 -42 -35 -76.5t15.5 -51.5t74.5 -4
q56 14 111 44t98.5 67t77 80.5t51 85.5t16.5 81.5t-24 68.5q-122 -71 -212.5 -139.5t-170.5 -153.5zM724 540q-25 38 11 92t78 54q20 0 41 -19t21 -44q0 -37 -27 -74t-60.5 -44t-63.5 35z" />
    <glyph glyph-name="S_o" unicode="So" horiz-adv-x="1023" 
d="M280 564q47 28 96 85.5t66 114t-37 82.5q-118 -64 -208 -190q-85 -119 -81 -202q4 -81 98 -79q145 3 214 -60q241 94 343 101q54 7 101.5 -5t68.5 -42.5t-6 -80.5q24 -53 -28 -169q91 61 167 151q7 6 14 2t9 -11q-142 -210 -254 -257q-116 -193 -226 -128q-18 -2 -29 8
q-58 42 -42 195t87 253q-95 -31 -171 -61q19 -37 19.5 -83t-17.5 -94t-50.5 -96.5t-81.5 -91t-106.5 -76t-130 -53.5t-148.5 -22q-62 -2 -113.5 28t-60 79.5t55.5 112.5q130 134 450 277q-54 56 -190 53q-64 -1 -95 78q-36 93 -2 219q44 158 175 249q70 48 158 69
q18 4 32 0.5t35 -14.5t34 -16q23 12 53.5 17t59 2t45 -24t9.5 -58q-13 -67 -74.5 -139.5t-129.5 -120t-119 -66.5q-19 23 10 63zM-95 -50l-2 -2q-28 -42 -35 -76.5t15.5 -51.5t74.5 -4q101 26 189.5 95t133 150.5t26.5 143.5q-289 -134 -402 -255zM729 260
q-33 -64 -35 -111.5t16.5 -68t49.5 -21.5q35 90 55 208q5 61 -24 58q-27 -2 -57 -56q-3 -5 -5 -9zM653 -62q12 -11 34 6t44 54q-52 18 -85 68q-7 -32 -9.5 -50.5t0.5 -42t16 -35.5z" />
    <glyph glyph-name="S_u" unicode="Su" horiz-adv-x="1064" 
d="M877 17q34 29 88.5 89l98 111t44.5 52q9 8 16.5 3.5t9.5 -11.5q-227 -358 -306 -358q-45 1 -49 128v9q-66 -129 -135 -146q-55 -14 -83 49q-39 89 7 249q20 72 58 149q-84 -25 -171 -59q23 -36 26 -82.5t-14 -95.5t-48.5 -98.5t-80.5 -93.5t-107.5 -78.5t-132 -55.5
t-151.5 -23q-61 -2 -112 27.5t-61 78t51 110.5q133 144 446 288q-55 47 -182 46q-64 -1 -95 78q-36 93 -2 219q44 158 175 249q70 48 158 69q18 4 32 0.5t35 -14.5t34 -16q23 12 53.5 17t59 2t45 -24t9.5 -58q-13 -67 -74.5 -139.5t-129.5 -120t-119 -66.5q-19 23 10 63
q47 28 96 85.5t66 114t-37 82.5q-118 -64 -208 -190q-85 -119 -81 -202q4 -81 98 -79q135 3 205 -53q155 60 239 75q20 13 61 13.5t72 -17.5q17 -12 -36 -87q-111 -245 -99 -313q31 13 135 135q19 85 96 257q6 17 52 19t87 -16q15 -21 -44 -100q-9 -21 -39 -86t-45.5 -106.5
t-20.5 -78.5zM-95 -50l-2 -2q-28 -42 -35 -76.5t15.5 -51.5t74.5 -4q104 27 195 99t133 156t17 146q-266 -126 -398 -267z" />
    <glyph glyph-name="S_w" unicode="Sw" horiz-adv-x="1212" 
d="M280 566q47 28 96 85.5t66 114t-37 82.5q-118 -64 -208 -190q-85 -119 -81 -202q4 -81 98 -79q109 3 179 -36q202 93 292 105q23 8 54.5 3t51.5 -23q33 -31 -76 -171q-73 -201 -67 -258q11 8 27.5 27.5l31.5 38.5t36.5 50.5l33.5 49l32.5 48.5t23.5 36l67 163
q10 20 46.5 30t71.5 -8q39 -23 -51 -142q-4 -8 -23 -42l-28 -51q-28 -90 -37.5 -150.5t-5.5 -80.5t12 -27q42 22 96.5 143.5t91.5 243t42 171.5q3 30 52.5 27.5t55.5 -27.5q17 -70 -45 -230t-154 -291.5t-150 -130.5q-34 1 -59 39t-34 83t-6 80q-90 -152 -160 -131
q-39 12 -52 68q-4 15 -4 29h-1q-17 153 77 374q-114 -37 -201 -77q38 -39 45 -95.5t-13.5 -116t-68.5 -120t-113 -108.5t-153.5 -79.5t-183.5 -33.5q-61 -2 -112 27.5t-61 77.5t50 110q128 142 430 301q-58 35 -165 34q-64 -1 -95 78q-36 93 -2 219q44 158 175 249
q70 48 158 69q18 4 32 0.5t35 -14.5t34 -16q23 12 53.5 17t59 2t45 -24t9.5 -58q-13 -67 -74.5 -139.5t-129.5 -120t-119 -66.5q-19 23 10 63zM-95 -48l-2 -2q-28 -42 -35 -76.5t15.5 -51.5t74.5 -4q55 14 109 43t96.5 65.5t77.5 79t51.5 84t18.5 80.5t-20 69
q-136 -74 -259 -171l-3 -3l-1 -1q-71 -57 -123 -112z" />
    <glyph glyph-name="S_p" unicode="Sp" horiz-adv-x="1053" 
d="M280 564q47 28 96 85.5t66 114t-37 82.5q-118 -64 -208 -190q-85 -119 -81 -202q4 -81 98 -79q86 1 144 -20q142 80 257.5 130.5t159.5 50.5v-1q67 11 106 -2q21 -8 14 -21q-36 -72 -57 -95q79 35 123 24.5t57 -57t2 -110.5t-41 -134l54.5 62.5l45.5 53.5t19 22
q9 7 17 1.5t9 -12.5q-92 -139 -169 -227t-137 -123.5t-106 -31.5t-82 46q-106 -294 -106 -355l-22 -3q-55 0 -58 30q-8 116 78.5 417.5t187.5 455.5q-151 -51 -308 -142q92 -58 78 -176q-14 -116 -120 -225q-130 -133 -316 -168q-48 -9 -97 -10q-60 -2 -111 27t-61.5 76.5
t46.5 108.5q119 135 413 315q-54 24 -145 23q-64 -1 -95 78q-36 93 -2 219q44 158 175 249q70 48 158 69q18 4 32 0.5t35 -14.5t34 -16q23 12 53.5 17t59 2t45 -24t9.5 -58q-13 -67 -74.5 -139.5t-129.5 -120t-119 -66.5q-19 23 10 63zM275 256q-230 -148 -372 -308
q-32 -36 -39 -72t17.5 -54.5t76.5 -5.5q70 18 136.5 58.5t114 91.5t76 104.5t27 103t-36.5 82.5zM648 -19l22 -21q46 -51 107 43q55 88 80 214q24 121 -12 140q-15 9 -42 -8q-75 -150 -155 -368z" />
    <glyph glyph-name="S_t" unicode="St" horiz-adv-x="867" 
d="M652 -128q-104 -30 -122 44q-31 121 152 560q-186 -30 -355 -112q125 -30 149 -133q24 -102 -55 -222q-84 -129 -235 -198q-113 -53 -239 -56q-181 16 -188 123q-6 101 141 246q93 91 227 176q-23 4 -38 5q-65 5 -95 87q-36 97 1 222q46 158 182 244q66 42 148 62
q18 4 32 0.5t35 -14.5t34 -16q23 12 53.5 17t59 2t45 -24t9.5 -58q-13 -67 -74.5 -139.5t-129.5 -120t-119 -66.5q-19 23 10 63q47 28 96 85.5t66 114t-37 82.5q-118 -64 -208 -190q-85 -119 -81 -202q4 -81 98 -79q7 0 21 -0.5t20 -0.5q221 116 455 168l59 134q4 13 72 18
q86 6 96 -19q3 -6 -1 -14l-54 -91q148 16 282 0q6 -1 -0.5 -26t-22 -48.5t-31.5 -20.5q-137 22 -274 17l-28 -47q-74 -142 -124.5 -273.5t-62.5 -212.5q1 -33 42.5 9t121 142.5t109.5 134.5q10 7 18.5 1.5t10.5 -12.5q-3 -5 -68 -107.5t-119.5 -174t-83.5 -80.5zM-130 -149
q17 -60 118 -27q102 34 205 128q118 108 127 198q10 100 -128 137q-164 -107 -253.5 -233t-68.5 -203z" />
    <glyph glyph-name="T_h" unicode="Th" horiz-adv-x="801" 
d="M1268 790q22 -17 -2 -47.5t-50 -25.5q-76 18 -445 49q-90 -170 -187 -373t-123 -281q90 146 155 212q4 26 23.5 40.5t45 17t49 0.5t41.5 -8q7 -1 11.5 -4.5t6 -12t-3 -20.5t-19.5 -32.5t-40 -47.5q-61 -132 -75 -220q30 32 71 83l69.5 86.5t32.5 38.5q8 6 14.5 3t9.5 -10
l4 -6l-199 -296q-28 -41 -63 -58q-31 -16 -41 11q-6 15 3.5 118t27.5 196q-157 -185 -166 -302q-111 -67 -104 56q11 201 309 821q-91 7 -164 10q-46 -110 -121.5 -318t-128.5 -376q-32 -100 -81.5 -160t-101.5 -75t-106 -5.5t-98.5 42t-76 75.5t-40.5 86q-4 13 25 26
q49 21 93 9q30 -9 35 -33q21 -97 65.5 -137.5t88.5 -13t65 110.5q14 57 55.5 238.5t76.5 313t69 214.5q-186 -11 -350.5 -46t-253.5 -84q-25 -13 -59.5 54t-23.5 103q19 62 374.5 83.5t713.5 -4.5l57 115q6 13 75 18q87 5 94 -20q1 -6 -2 -13q-4 -8 -30 -47.5t-40 -64.5
q338 -34 435 -89z" />
    <glyph glyph-name="Z_a" unicode="Za" horiz-adv-x="1255" 
d="M1337 272l-238 -359q-12 -17 -47.5 -27.5t-51.5 8.5q-12 21 2 163q-76 -119 -98 -148t-52 -37t-55 9t-31 55q-10 76 12 189.5t48 163.5q24 48 48 79q-76 -15 -170 -49q20 -39 22.5 -86.5t-10 -96t-41 -97.5t-67.5 -93.5t-92.5 -82.5t-114 -64.5t-133.5 -39.5t-149 -9
q-153 9 -167 89q-14 78 102 186q124 114 335 205q51 25 149 67q-37 115 -233 132q-9 6 -15 17.5t-7.5 22.5t5.5 20.5t23 12.5q64 6 131 49t114.5 98t76 109.5t23.5 84.5q-73 5 -134 -0.5t-114.5 -23.5t-84.5 -56.5t-34 -95.5q-136 104 -66 183q57 63 211 84q156 20 270 -18
q117 -40 105 -123q-20 -134 -379 -335q179 -9 253 -105l35.5 11.5t35 11.5t31 10l31 9.5t27 7.5t28 7t24.5 5.5t25.5 4.5l22 2t22.5 1q49 -2 80.5 -11.5t42.5 -22.5t14 -28.5t-6 -30.5q35 10 66.5 5t48.5 -16q31 -18 -48 -102q-45 -102 -61 -179q31 27 79.5 86l86 107.5
t40.5 51.5q8 6 14.5 3.5t10.5 -8.5zM546 248q-149 -76 -289 -196q-143 -131 -177 -202q-22 -47 22 -43q11 1 26 5q108 30 206 103.5t155.5 164t56.5 168.5zM874 -12q6 -17 27 6.5t62.5 86.5t52.5 78q13 73 30 117q13 82 -14 75q-31 -7 -84 -100q-70 -123 -78 -214
q-3 -30 4 -49z" />
    <glyph glyph-name=".notdef" horiz-adv-x="257" 
 />
    <glyph glyph-name=".null" horiz-adv-x="0" 
 />
    <glyph glyph-name="nonmarkingreturn" horiz-adv-x="333" 
 />
    <glyph glyph-name="space" unicode=" " horiz-adv-x="257" 
 />
    <glyph glyph-name="exclam" unicode="!" horiz-adv-x="253" 
d="M94 -100q-15 18 -11.5 40t16 40.5t30.5 33.5q45 36 86 -18q16 -23 3 -58t-39 -56q-44 -36 -85 18zM148 107q18 70 61 275.5t79 328t78 175.5q30 18 96 14t66 -33q0 -4 -1 -5q-31 -47 -279 -731q-5 -15 -42.5 -26t-57.5 2z" />
    <glyph glyph-name="quotedbl" unicode="&#x22;" horiz-adv-x="390" 
d="M257 956q22 -14 22 -46q0 -26 -14 -48q-28 -44 -80 -87t-76 -43q-5 0 -8 3q-7 7 -7 16q0 10 9 25.5l23.5 39t23.5 44.5q2 6 9.5 39.5t19.5 54.5t33 21t45 -19zM425 956q27 -16 27 -57q0 -25 -12 -43q-28 -44 -104 -98.5t-104 -54.5q-6 0 -7 2q-4 4 -4 10q0 15 42.5 66
t54.5 79q2 6 9.5 39.5t19.5 54.5t33 21t45 -19z" />
    <glyph glyph-name="numbersign" unicode="#" horiz-adv-x="703" 
d="M-34 198q33 -4 148 -4l42 114q-125 5 -128 10q-9 12 -9 24q0 23 23.5 42t53.5 19q24 -2 62 -2h32q27 74 37 114q1 23 24.5 38.5t48.5 15.5q29 0 29 -20q0 -13 -39 -146l152 6q44 124 51 152q9 24 46.5 45t64.5 21q18 0 18 -12q0 -4 -1 -6q-19 -67 -62 -194q27 1 53.5 2.5
t46 2.5t35 2t24.5 2h8q15 0 15 -14q0 -25 -37 -67.5t-65 -46.5q-18 -2 -27 -2q-10 0 -34 1.5t-38 1.5q-15 0 -21 -1l-33 -94q11 0 21.5 0.5t18 1t13.5 1t9 0.5h4q24 0 24 -20q0 -25 -32.5 -59t-64.5 -36h-34q-30 -76 -35 -84q-15 -19 -51 -35t-62 -16q-23 0 -23 14q0 2 2 8
q20 45 46 119h-131q-38 -116 -47 -135q-11 -20 -47 -36t-63 -16q-25 0 -25 15q0 4 1 7q1 1 67 168q-174 7 -178 13q-8 9 -8 24q0 24 22.5 43t52.5 19zM401 299q-49 1 -142 5l-35 -105h139q26 66 38 100z" />
    <glyph glyph-name="dollar" unicode="$" horiz-adv-x="482" 
d="M109 -91l-11 -26q-2 -17 -13.5 -30t-21.5 -13q-14 0 -14 23l13 41h-10h-5q-43 0 -77.5 23t-34.5 58t40 72.5t129 73.5q7 -3 7 -8t-3 -6q-42 -25 -69 -61.5t-27 -64.5q0 -33 38 -33q11 0 31 5l111 317q-9 1 -30 1h-14q-1 0 -2.5 1.5t-2.5 1.5q-33 4 -51 36t-18 80
q0 61 25 123.5t80 114.5t128 65q7 3 13 3q9 0 21 -7q17 47 18 49q8 14 28.5 22t42.5 8q34 0 34 -17q0 -4 -1 -6l-23 -54q31 -1 47 -25t16 -60q0 -53 -28 -103.5t-68 -56.5q-11 5 -11 23q0 8 3 17q23 28 23 65q0 32 -17 56l-121 -291q63 -9 95 -42.5t32 -83.5
q0 -89 -87 -179.5t-215 -111.5zM258 264l-117 -279q70 35 116.5 94t46.5 111q0 51 -46 74zM210 332l103 288q-62 -48 -104.5 -116t-42.5 -116q0 -47 44 -56z" />
    <glyph glyph-name="percent" unicode="%" horiz-adv-x="833" 
d="M110 287q-53 8 -51 104q2 102 56 204q58 110 129 118q6 1 12 1q34 -1 59 -19.5t37 -46.5q50 -22 86 -28.5t65.5 4t50 27.5t50.5 51q35 8 91 -11q53 -18 38 -39q-14 -12 -67.5 -75.5t-129 -162.5t-145 -200t-115.5 -197t-39 -146q2 0 -4.5 -9t-14.5 -13.5t-18 3.5
q-32 30 -28 91.5t30.5 137t72 162.5t96.5 166.5t104 149.5q-20 -6 -58 -2.5t-61 15.5q-10 -43 -29.5 -93t-50.5 -104t-75 -80.5t-91 -7.5zM503 -21q-53 8 -51 104q2 102 56 204q58 110 129 118q6 1 12 1q47 -1 76 -34.5t29 -76.5q0 -12 -8 -43t-23 -72.5t-36.5 -82.5
t-49.5 -73.5t-61.5 -45.5t-72.5 1zM534 8q33 -6 75 84q47 100 60 194q8 63 -13 59q-7 -2 -16 -10q-18 -17 -49 -71t-53.5 -131t-3.5 -125zM141 316q33 -6 75 84q47 100 60 194q8 63 -13 59q-7 -2 -16 -10q-18 -17 -49 -71t-53.5 -131t-3.5 -125z" />
    <glyph glyph-name="ampersand" unicode="&#x26;" horiz-adv-x="674" 
d="M321 262q19 -2 44 -1.5t54.5 2.5t59 5.5l57 7t48.5 6.5l34 5l13 2q28 0 20 -40q-8 -44 -38 -69q-11 -8 -22 -10q-7 -1 -43 -1q-69 -227 -206 -290q-99 -46 -195 8q-81 45 -108 133q-36 113 44 216q66 84 201 141q-119 10 -120 84q-1 64 80 141q85 80 180 99q58 12 101 -8
q102 33 104 -35q2 -54 -51 -128q-45 -64 -77 -64q-5 0 -9 2q-1 1 -3.5 2t-7.5 4.5t-7.5 7.5t-2.5 10t6 13q15 17 30.5 53.5t12.5 64.5q-79 -6 -159 -63q-73 -50 -70 -90q4 -49 131 -47q21 0 23.5 -28.5t-16.5 -36.5q-193 -72 -254 -203q-41 -87 -9 -159q24 -55 73 -59
q65 -6 120 89q34 58 57 148q-20 1 -34 2.5t-30.5 2.5t-27 2.5t-20 3t-13.5 3t-4 3.5q3 8 6 20.5t5.5 20.5t5.5 15.5t7 11t10 3.5z" />
    <glyph glyph-name="quotesingle" unicode="'" horiz-adv-x="221" 
d="M367 956q21 -13 22.5 -42t-14.5 -52q-31 -50 -90.5 -95.5t-73.5 -31.5q-6 10 -7 16.5t5.5 19.5t14 24t18.5 29.5t18 35.5q3 7 8 29.5t10.5 39.5t16 32t29 14.5t43.5 -19.5z" />
    <glyph glyph-name="parenleft" unicode="(" horiz-adv-x="552" 
d="M553 842q41 3 77.5 -25.5t28.5 -54.5q-52 -18 -107.5 -68.5t-103 -119t-92 -151t-74.5 -165.5t-51 -162t-21 -139.5t16 -99.5l-10 -11q-41 -37 -66 1q-1 1 -2 3q-27 33 -30 116.5t15.5 187.5t58.5 219.5t92.5 213.5t123.5 169t145 86z" />
    <glyph glyph-name="parenright" unicode=")" horiz-adv-x="440" 
d="M65 -144q-41 -3 -77.5 25.5t-28.5 54.5q52 18 107.5 68.5t103 119t92 151t74.5 165.5t51 162t21 139.5t-16 99.5l10 11q41 37 66 -1q1 -1 2 -3q27 -33 30 -116.5t-15.5 -187.5t-58.5 -219.5t-92.5 -213.5t-123.5 -169t-145 -86z" />
    <glyph glyph-name="asterisk" unicode="*" horiz-adv-x="441" 
d="M167 438q5 -3 13 -6l19 -7t18 -7l-16.5 43.5l-12.5 33.5l-5 11q-6 20 19 20q35 0 64 -24q9 -7 13 -15q8 -20 19 -58q95 65 102 72q18 12 23 -23q7 -45 -11 -78q-4 -8 -9 -12q-5 -5 -30 -20q71 -23 73 -21q25 -9 -3 -36q-30 -29 -61 -30q-5 0 -9 1q-9 2 -36 11
q21 -81 17 -87q-14 -21 -38.5 -13t-33.5 36q-6 24 -22 73q-103 -58 -111 -55q-24 9 -22 42t27 49l31 17q-78 33 -80 41q-8 24 13 38.5t49 3.5z" />
    <glyph glyph-name="plus" unicode="+" horiz-adv-x="360" 
d="M118 66q13 38 26 90q-145 9 -150 16q-19 25 4.5 58t59.5 33q37 -5 109 -3q32 146 32 157q7 28 40 3q34 -26 44 -65q3 -12 2 -21q-1 -14 -18 -72l46 2t42 2t32.5 2t22.5 2h8q28 0 9 -42q-20 -44 -57 -68q-12 -7 -22 -9q-17 -3 -114 1q-46 -153 -56 -156q-28 -13 -48.5 11
t-11.5 59z" />
    <glyph glyph-name="comma" unicode="," horiz-adv-x="247" 
d="M158 6q21 -13 22.5 -42t-14.5 -52q-31 -50 -90.5 -95.5t-73.5 -31.5q-6 10 -7 16.5t5.5 19.5t14 24t18.5 29.5t18 35.5q3 7 8 29.5t10.5 39.5t16 32t29 14.5t43.5 -19.5z" />
    <glyph glyph-name="hyphen" unicode="-" horiz-adv-x="605" 
d="M147 223q19 -2 46.5 -1.5t62 2.5t69 5.5l67.5 7t58 6.5l41 5l16 2q28 0 20 -40q-8 -44 -38 -69q-11 -8 -22 -10q-31 -4 -194 4t-160 17q3 8 6 20.5t5.5 20.5t5.5 15.5t7 11t10 3.5z" />
    <glyph glyph-name="period" unicode="." horiz-adv-x="231" 
d="M12 -102q-17 16 -18 39t8.5 42t25.5 35q39 39 88 -12q20 -22 13 -57.5t-30 -58.5q-38 -38 -87 12z" />
    <glyph glyph-name="slash" unicode="/" horiz-adv-x="231" 
d="M0 -98q-23 -16 -79 -12q-49 4 -47 23q0 4 3 9q1 1 73 144.5l103 206.5l98 205.5l129 281.5q37 11 84 -10q43 -20 29 -43q-27 -39 -95 -192l-152 -334t-146 -279z" />
    <glyph glyph-name="zero" unicode="0" horiz-adv-x="654" 
d="M152 -24q58 -10 135 135q81 152 127 350q43 179 9 210q-16 16 -50 -15q-25 -25 -70 -98.5t-93 -179t-66.5 -210.5t8.5 -192zM90 -83q-90 14 -105 156q-15 149 53 345q72 206 186 310q81 74 166 73q99 -1 159 -70t60 -159q0 -26 -16.5 -90.5t-47.5 -150.5t-76 -170.5
t-102.5 -152t-127 -94.5t-149.5 3z" />
    <glyph glyph-name="one" unicode="1" horiz-adv-x="403" 
d="M280 798l1 1q35 16 126.5 5t87.5 -36q0 -3 -1 -4q-18 -22 -75 -122t-124.5 -233t-115 -272.5t-38.5 -213.5l-34 -25q-33 -21 -51 -19q-22 2 -27.5 54.5t5 137t31 183t52.5 202.5t67 184l-40.5 -28l-40.5 -28t-20 -11q-58 6 -20 44q161 161 217 181z" />
    <glyph glyph-name="two" unicode="2" horiz-adv-x="630" 
d="M421 -17q15 -22 19 -49t-10 -33q-1 0 -1 -1q-10 4 -73 12t-155 14t-155 1q-70 -48 -123 -18q-38 22 -36 65q2 51 63 77q34 14 82 16q129 131 237 313q123 207 101 292q-7 29 -33 39q-51 2 -81 -43t-36 -100t-9.5 -101.5t-7.5 -46.5q-95 -3 -114 71q-17 68 36 154
q58 94 153 127q5 2 11 4q96 29 182 2q111 -33 109 -144q-2 -198 -366 -578q121 -23 207 -73z" />
    <glyph glyph-name="three" unicode="3" horiz-adv-x="659" 
d="M361 369q150 -59 133 -180q-13 -97 -124 -194q-109 -95 -229 -120q-139 -29 -199 64q-44 68 -35 193q6 51 63 23l20 -13q-1 0 -4.5 -14.5t-4 -35.5t4.5 -42.5t23.5 -39t49.5 -21.5q108 -15 215 55q80 54 102 117q24 68 -45 96q-43 17 -117 13q-84 -73 -162 -58
q-51 11 -66 51q-17 46 34 84t155 47q111 98 169 200q63 109 2 127q-1 1 -3 1q-43 11 -72.5 -6.5t-43 -50.5t-20.5 -67t-10 -59t-6 -25q-96 -3 -111 58q-13 54 43 119q62 72 158 95q175 41 250 -32q60 -58 27 -158q-37 -114 -171 -209z" />
    <glyph glyph-name="four" unicode="4" horiz-adv-x="605" 
d="M397 793q37 8 119.5 0.5t78.5 -31.5q0 -3 -1 -4q-15 -18 -88 -174.5t-131 -305.5q24 3 48 5.5t35 4.5l12 1q33 0 27 -48q-6 -50 -41 -87q-18 -19 -37 -21q-24 -4 -98 -7q-41 -130 -30 -209l-34 -25q-33 -21 -51 -19q-26 2 -32 72.5t7 175.5q-244 -4 -260 25q-12 26 -3 56
t27 45q48 46 121.5 142t132.5 181t116 152.5t82 70.5zM245 456q-46 -61 -165 -203l122 8q15 91 43 195z" />
    <glyph glyph-name="five" unicode="5" horiz-adv-x="659" 
d="M643 704q-151 -80 -293 -88q-53 -96 -129 -191q263 -24 304 -152q29 -93 -62 -209q-81 -102 -202 -158q-140 -65 -229 -15q-100 55 -91 245q2 13 7.5 21t13 10t16 1.5t17 -4t15 -7.5t10.5 -7t4 -4q-33 -140 61 -156q76 -14 189 49q97 55 133 116q42 70 -38 95
q-99 31 -363 -21q-20 34 -20 74t30 60q58 106 87.5 181t82.5 249q53 -16 165 -20t201.5 1.5t98.5 12.5l1 -1q14 -6 10 -33t-19 -49z" />
    <glyph glyph-name="six" unicode="6" horiz-adv-x="609" 
d="M240 -136q-139 -26 -214 86q-70 104 -54 272q19 190 135 339q150 193 399 223q44 5 90 5q49 0 32 -86q-120 1 -215 -56t-159 -152q197 40 264 -77q53 -93 9 -240q-42 -139 -139 -232q-71 -67 -148 -82zM210 418q-52 -107 -62 -219t26 -181q36 -60 99 -8q59 49 96 150
q46 124 8 198q-40 78 -167 60z" />
    <glyph glyph-name="seven" unicode="7" horiz-adv-x="576" 
d="M110 772q17 -2 46 -2.5t62.5 0.5t71.5 2.5t76.5 4.5t75.5 5.5t68.5 5.5t56 5t38.5 3l14 2q34 0 27 -49q-7 -51 -42 -87q-19 -19 -39 -21q-56 -81 -108.5 -166t-112 -194t-92.5 -205.5t-25 -155.5l-34 -25q-33 -21 -51 -19q-23 2 -24.5 55.5t16 139t46 184t68.5 200.5
t80 179q-243 2 -258 30q-16 30 1.5 69.5t38.5 38.5z" />
    <glyph glyph-name="eight" unicode="8" horiz-adv-x="610" 
d="M367 342q155 -182 90 -320q-43 -92 -167 -135q-118 -40 -222 -12q-103 27 -121 107q-29 133 192 346q24 24 52 48q-42 22 -69.5 56t-37 71.5t-7 78.5t20 77.5t44 68.5t65.5 51t83.5 25.5t98.5 -8.5q188 6 224 -93q28 -80 -51 -191q-73 -103 -195 -170zM262 282
q-68 -35 -112 -74t-60.5 -72t-17.5 -63.5t10 -51.5t29 -34q68 -51 132 -8q56 38 69 119q16 99 -50 184zM372 723q-70 -38 -107.5 -78.5t-41.5 -76t6.5 -63.5t34.5 -53q232 248 108 271z" />
    <glyph glyph-name="nine" unicode="9" horiz-adv-x="634" 
d="M425 799q94 -12 139 -126q51 -126 17 -298q-40 -204 -179 -338q-168 -165 -431 -163q-49 0 -32 86q231 -1 374 208q-157 -49 -232 54q-62 85 -43 228q18 145 106 247q111 128 270 104q5 -1 11 -2zM357 245q52 107 61.5 218.5t-26.5 180.5q-36 60 -99 8q-59 -49 -96 -150
q-46 -124 -7 -198q41 -77 167 -59z" />
    <glyph glyph-name="colon" unicode=":" horiz-adv-x="250" 
d="M82 -90q-15 18 -11.5 40t16 40.5t30.5 33.5q45 36 86 -18q16 -23 3 -58t-39 -56q-44 -36 -85 18zM103 218q-18 31 -6 60.5t41 52.5q46 37 86 -18q16 -23 3.5 -57.5t-40.5 -56.5q-43 -34 -84 19z" />
    <glyph glyph-name="semicolon" unicode=";" horiz-adv-x="248" 
d="M123 218q-18 31 -6 60.5t41 52.5q46 37 86 -18q16 -23 3.5 -57.5t-40.5 -56.5q-43 -34 -84 19zM206 21q21 -13 22.5 -42t-14.5 -52q-31 -50 -90.5 -95.5t-73.5 -31.5q-6 10 -7 16.5t5.5 19.5t14 24t18.5 29.5t18 35.5q3 7 8 29.5t10.5 39.5t16 32t29 14.5t43.5 -19.5z
" />
    <glyph glyph-name="less" unicode="&#x3c;" horiz-adv-x="506" 
d="M350 -41q-49 41 -254 171q-30 12 -28 42.5t32 49.5q35 17 109.5 67l132 90.5t58.5 42.5q24 15 31 -22q8 -44 -12 -81q-6 -11 -13 -17q-14 -12 -82.5 -52l-130.5 -73q50 -34 142 -107.5t92 -80.5q1 -29 -25 -38.5t-52 8.5z" />
    <glyph glyph-name="equal" unicode="=" horiz-adv-x="518" 
d="M158 343q14 -2 35 -2.5t45 -0.5t51 0.5t54 1.5l52.5 2t47.5 2t38.5 2t26.5 2h10q28 0 9 -42q-20 -44 -57 -68q-12 -7 -22 -9q-29 -4 -188.5 4.5t-165.5 16.5q-19 25 4.5 58t59.5 33zM88 163q14 -2 35 -2.5t45 -0.5t51 0.5t54 1.5l52.5 2t47.5 2t38.5 2t26.5 2h10
q28 0 9 -42q-20 -44 -57 -68q-12 -7 -22 -9q-29 -4 -188.5 4.5t-165.5 16.5q-19 25 4.5 58t59.5 33z" />
    <glyph glyph-name="greater" unicode="&#x3e;" horiz-adv-x="463" 
d="M167 -41q-26 -18 -52 -8.5t-25 38.5q0 7 91.5 80t141.5 108q-179 96 -212 125q-26 22 -27 75q0 46 20 49q6 1 13 -4q1 -2 58.5 -42.5l132 -90.5t109.5 -67q29 -19 31.5 -49t-25.5 -42q-223 -143 -256 -172z" />
    <glyph glyph-name="question" unicode="?" horiz-adv-x="485" 
d="M124 -100q-12 15 -12 36q0 32 26 59.5t57 27.5q30 0 50 -27q10 -13 10 -32q0 -32 -25.5 -62t-56.5 -30q-28 0 -49 28zM274 148q-14 -70 -57 -50q-32 15 -53 62q-10 21 -10 38q0 40 41 96t97.5 109.5l112 104.5t88.5 94t22 67q-67 147 -163 -9q-28 -46 -66 -139
q-15 -37 -49 11q-17 25 -17 34q1 53 23.5 123t60.5 128.5t89 76t109 -34.5q253 -80 141 -265q-51 -83 -207 -223q-122 -110 -146 -137q-63 -69 -16 -86z" />
    <glyph glyph-name="at" unicode="@" horiz-adv-x="883" 
d="M555 -169q13 3 18.5 -7.5t1.5 -23.5t-14 -15q-255 -107 -404 3q-108 80 -127 245q-19 164 56 317q78 160 221 222q154 66 347 -3q83 -30 127 -86.5t48 -121.5t-14.5 -136t-55 -133t-79.5 -110t-83 -68q0 -1 1 -2l-3 -1q-95 -47 -114 -17q-6 9 -6.5 59.5t4.5 114.5
q-77 -123 -104 -159q-21 -28 -52 -36.5t-56.5 8.5t-29.5 55q-11 78 11 193t49 160q60 137 139 134q49 -3 80.5 -12.5t42.5 -22t14 -28t-6 -30.5q35 10 66.5 5t48.5 -16q30 -15 -38 -91q-62 -162 -57 -265q79 67 128 144t61 147.5t-5 131t-69 101t-131 51.5
q-151 21 -271 -115q-101 -113 -136 -276q-35 -166 22 -271q67 -122 234 -91q62 12 135 46zM345 -12q37 25 146 177q9 64 26 108q15 91 -15 86t-79 -88q-69 -119 -79 -226q-3 -32 1 -57z" />
    <glyph glyph-name="A" unicode="A" horiz-adv-x="838" 
d="M656 -212q-74 45 -74 218q0 142 50 347q-68 -7 -136 -20l-56 -85l-57.5 -86.5l-50.5 -75l-51 -74l-42.5 -58t-40.5 -50.5t-31 -31q-33 -27 -65 -27q-44 0 -86.5 48.5t-63.5 96.5l-20 48q-20 47 -20 90q0 63 43 111.5t119.5 80t164 50.5t194.5 29l53.5 77.5l53.5 78
l50.5 71.5l50.5 69.5l45.5 59t45.5 52.5l40 38.5t38.5 28.5t32.5 11q12 15 56 15q39 0 75.5 -11t36.5 -24q0 -4 -3 -7q-16 -23 -77.5 -160t-116.5 -285l198 -8q14 -3 14 -16q0 -12 -12 -24t-28 -12q-30 0 -86 3.5t-82 3.5h-23q-113 -313 -113 -464q0 -47 12 -77v-1
q0 -7 -7 -21t-19 -14q-7 0 -12 4zM107 5q97 76 254 293q-91 -29 -165.5 -70t-115 -78t-62 -65.5t-21.5 -42.5v-3q16 -57 56 -57q13 0 26 5.5t20.5 11t7.5 6.5zM647 413q35 133 85 257q-57 -72 -185 -261q34 2 100 4z" />
    <glyph glyph-name="B" unicode="B" horiz-adv-x="716" 
d="M298 907q21 12 64.5 15t80.5 -6.5t37 -30.5q0 -3 -1 -4q-44 -75 -109 -212q151 222 319 205q97 -10 101 -98q5 -94 -88 -223q-101 -138 -243 -216q-1 0 -2 -1q174 27 223 -62q39 -74 -22 -190q-65 -123 -201 -213q-165 -107 -356 -110q-30 -1 -64 16t-57.5 49.5t-29.5 72
t24.5 91t99.5 100.5q8 192 79 455.5t145 361.5zM262 189q11 -4 12.5 -14.5t-7.5 -13.5q-48 -18 -106 -66q-15 -100 5 -153q-15 -41 -44 -35q-31 7 -42 62q-4 16 -4 36q-76 -97 -71 -151q5 -47 83 -28q178 47 321 169q116 98 135 182.5t-77 106.5q-68 15 -187 -5
q-20 -3 -28 11q-5 8 4 14q115 38 223 182q88 116 110 212q18 81 -32 81h-4q-56 -4 -154 -138.5t-164 -284.5q-33 -74 -64 -209q42 22 91 42z" />
    <glyph glyph-name="C" unicode="C" horiz-adv-x="522" 
d="M10 383q13 50 32.5 104.5t47.5 113t59.5 109.5t70.5 92t79.5 62.5t87 18t91.5 -38.5q27 15 63 22t70 3t53.5 -29.5t11.5 -70.5q-54 -220 -195 -393q-89 -109 -158 -135q-53 -20 -56 30q-4 73 103 253q3 7 16 3q5 -2 3 -6q-89 -177 -66 -210q11 -15 36 12q5 5 10 12v-1
q23 37 52 96.5t58 137.5t26.5 141.5t-48.5 81.5q-106 -67 -202 -221t-141 -325.5t-13 -281.5q34 -118 174 -19q112 79 237 249q27 37 50 73q14 21 38 20q19 -1 14 -17q-2 -3 -4 -7q-212 -329 -389 -427q-135 -77 -206 8q-81 99 -41 365q12 82 36 175z" />
    <glyph glyph-name="D" unicode="D" horiz-adv-x="759" 
d="M62 -228q-61 7 -97.5 32t-42.5 62t31 87.5t117 101.5q7 160 67 370t127 296q29 18 107 14t78 -33q0 -3 -1 -4q-26 -40 -70 -116t-112.5 -220.5t-96.5 -250.5q59 29 130 57q9 -2 9.5 -14.5t-6.5 -15.5q-69 -25 -148 -99q-11 -75 6 -121q-5 -28 -31 -31q-30 -4 -45 30
q-7 15 -9 35q-75 -118 -30 -134q8 -3 21 -2q29 3 65.5 16.5t84.5 39.5t98.5 70.5t100.5 103t98.5 145t84.5 188.5q107 299 -31 388q-92 61 -263 12q-137 -38 -229 -116q-73 -63 -64 -111q-135 106 -74 197q53 77 220 112q176 37 364 3t242 -199q50 -155 -27 -365
q-74 -203 -227 -350q-181 -174 -384 -180q-32 -1 -63 2z" />
    <glyph glyph-name="E" unicode="E" horiz-adv-x="580" 
d="M144 -90q41 -24 107 6t128 86t123.5 124.5t94 109.5t39.5 52q4 4 9 1t9.5 -9.5t3.5 -9.5q-174 -300 -365 -428q-145 -96 -245 -59q-91 35 -103 167q-4 47 3 104q12 90 53.5 163t103.5 122t121.5 79.5t127.5 52.5q-139 16 -171 107q-28 80 36 175q69 103 200 152
q96 35 201 29q116 -6 138 -61q25 -60 -79 -140q-91 -71 -264 -138q-5 1 -11.5 10t-9 16t0.5 10q80 47 175 142q93 93 73 112q-8 7 -34 0q-115 -32 -199 -126q-79 -88 -71 -164q7 -76 109 -100l83 14q17 2 25 -16t3.5 -37t-16.5 -20q-151 -13 -285 -149q-105 -105 -141 -223
q-34 -111 21 -150z" />
    <glyph glyph-name="F" unicode="F" horiz-adv-x="696" 
d="M293 823q85 0 248 13q9 19 25 41q21 11 61.5 14.5t72.5 -6.5t27 -33l210.5 21.5t173.5 18.5t63 7q21 0 -13.5 -54t-59.5 -82q-21 -25 -423 -31q-28 -73 -113 -317q96 3 172.5 0.5t124.5 -7.5l47 -4q20 -4 12 -19q-12 -19 -39 -18q-202 -6 -343 -30q-78 -226 -103 -311
q-59 -199 -186 -239q-98 -30 -197 41q-89 63 -121 167q-41 130 41 234q115 145 436 174q53 220 90 327q-280 2 -275 11q6 11 12 29t10 27.5t16 17.5t31 8zM304 -49q8 31 82 352q-70 -20 -125 -46.5t-87 -53.5t-55 -57t-29 -57t-9 -53t4 -45q21 -97 65.5 -137.5t88.5 -13
t65 110.5z" />
    <glyph glyph-name="G" unicode="G" horiz-adv-x="623" 
d="M555 -62q9 -62 41.5 -92t85.5 -13q-22 -78 -76.5 -97t-99.5 34q-53 62 -55 192q-120 -166 -248 -175q-104 -7 -172 92q-81 119 -64 317q7 83 33 172q15 50 34.5 103.5t48 112.5t60 110t70 92.5t78.5 63t86 18t91 -38.5q142 73 162 -23q15 -74 -40 -201q-45 -103 -89 -133
q-39 -27 -48 37q44 94 43 169.5t-49 97.5q-106 -67 -202 -221t-141 -325.5t-13 -281.5q16 -55 78 -58q77 -4 158 72q93 86 138 236q4 22 7 33t8.5 33t11 34l13.5 28.5t17.5 23.5t22 12.5t27.5 2t33 -13.5q20 -12 21 -25q0 -17 -42 -116q-6 -13 -9 -21q-38 -144 -20 -251z
" />
    <glyph glyph-name="H" unicode="H" horiz-adv-x="965" 
d="M1039 949q30 18 96 14t66 -33q0 -4 -1 -5q-10 -15 -46 -86t-91.5 -192.5t-100.5 -234.5l182 -11q20 -4 12 -19q-12 -19 -39 -18q-94 -3 -178 -9q-138 -365 -95 -476q2 0 -2.5 -12t-14 -20t-21.5 0q-44 27 -57.5 103t-2 173t42.5 216q-131 -18 -229 -43l-89 -270
q-32 -100 -81.5 -160t-101.5 -75t-106 -5.5t-98.5 42t-76 75.5t-40.5 86q-14 72 4.5 132.5t60.5 102.5t108 75.5t139 53.5t161 34q84 352 144 440q-71 -9 -141.5 -28.5t-136 -48.5t-106 -72.5t-40.5 -93.5q-167 133 -47 215q94 64 315 77q182 11 279 -20q52 -16 46 -39
q0 -2 -1 -4q-68 -164 -154 -408q110 9 211 9q48 166 113.5 318t116.5 217zM339 -49q7 28 69 298q-159 -60 -223.5 -121.5t-64.5 -136.5q0 -74 28 -117t65 -46t74 29.5t52 93.5z" />
    <glyph glyph-name="I" unicode="I" horiz-adv-x="557" 
d="M99 31q21 -97 65.5 -137.5t88.5 -13t65 110.5q12 46 66 288t96 385t83 203q-71 -9 -141.5 -28.5t-136 -48.5t-106 -72.5t-40.5 -93.5q-168 140 -40 221q100 63 326 71q179 6 269 -24q49 -17 37 -39q-17 -31 -116 -305.5t-165 -481.5q-28 -86 -68 -142.5t-83.5 -78.5
t-90.5 -24t-89.5 17.5t-78.5 49t-61 67t-33 74.5q-6 28 100 13q46 -7 53 -11z" />
    <glyph glyph-name="J" unicode="J" horiz-adv-x="523" 
d="M695 860h-1q0 -1 0.5 -2.5t0.5 -2.5q0 -4 -1 -5q-25 -36 -162 -432q49 -3 96.5 -8.5t71.5 -9.5l23 -4q20 -4 12 -19q-12 -19 -39 -18q-80 7 -182 9l-101 -305q-32 -100 -81.5 -160t-101.5 -75t-106 -5.5t-98.5 42t-76 75.5t-40.5 86q-18 91 2 161t64.5 112.5t114.5 70
t140 38.5t152 13q81 347 142 441q-155 -21 -290 -78q-163 -68 -134 -135q3 -6 7 -12q30 -41 123.5 8.5t187.5 152.5q4 2 10 -6.5t10 -20.5t2 -18q-186 -234 -323 -264q-85 -19 -120 46q-35 66 4 167q6 15 13 30q58 105 268 154q165 38 308 23q107 -13 105 -49zM281 -12
q11 44 87 374q-269 -27 -330 -160q-40 -85 16 -182q40 -72 102 -99q70 -31 107 25q11 17 18 42z" />
    <glyph glyph-name="K" unicode="K" horiz-adv-x="671" 
d="M322 838q-80 -20 -147.5 -51.5t-119 -85t-51.5 -114.5q-174 137 -56 223q89 65 294 80q141 11 220 -9q19 -4 35.5 -14.5t9.5 -21.5q-11 -20 -38.5 -74l-78 -160.5t-91.5 -205.5q4 -16 7 -24q44 7 115.5 50t139 111t92.5 150.5t-23 168.5q-2 3 7 6q37 11 99 0
q41 -6 62 -22q99 -74 -10 -216q-86 -112 -252 -213q-121 -74 -209 -94q34 -92 81.5 -184t86.5 -138q36 40 82 96.5l76.5 96t33.5 42.5q9 7 20.5 1t12.5 -11q-183 -300 -224 -353q-23 -21 -48.5 -9t-42.5 41q-128 204 -160 366q-136 -362 -94 -471q2 0 -2.5 -12t-14 -20
t-21.5 0q-52 32 -62 132t15 228.5t67.5 266.5t93.5 256.5t95 187.5z" />
    <glyph glyph-name="L" unicode="L" horiz-adv-x="592" 
d="M219 -70q20 21 64 219t97.5 414.5t94.5 276.5q30 16 94 14q53 36 121 15q67 -21 87 -81q34 -100 -93 -235q-54 -58 -134 -117q-11 0 -14.5 9.5t3.5 14.5q73 51 120 160q39 88 23 125q-14 34 -73 -16q-118 -306 -234 -670q-31 -96 -89 -167q45 -27 72.5 -42t71.5 -36.5
t74 -30.5t69.5 -16t70.5 -2t65 21t64 44q10 9 1 -34q-19 -92 -51 -164q-9 -20 -15 -25q-17 -16 -37.5 -24.5t-45 -7.5t-46.5 3.5t-52 17l-51.5 24.5t-55.5 33.5l-53.5 37t-55.5 42.5l-52 42l-51 42q-109 -80 -233 -74q-94 5 -131 57q-27 36 -8 84t44 78.5t55.5 41.5t61 12
t70.5 -13t73 -30.5t79 -42.5zM-5 -73q-10 -35 40 -54t106 -1q-32 25 -54.5 41t-42.5 25.5t-32.5 6.5t-16.5 -18z" />
    <glyph glyph-name="M" unicode="M" horiz-adv-x="1094" 
d="M171 -183q-36 -70 -66 -32q-38 48 -35 211q5 265 118 561q58 149 138 286q-69 -12 -132.5 -31.5t-122 -48.5t-94 -70.5t-35.5 -88.5q-170 134 -41 215q100 64 326 76q102 6 183 -3q25 -3 43.5 -5.5t43 -7t34.5 -11t3 -13.5q-18 -26 -81 -151t-146 -320t-121 -335
q322 668 571 713q59 11 104 -3q27 -8 14 -21q-36 -48 -156 -311.5t-155 -435.5q127 332 316 529q115 119 199 135q60 12 67 -41v-3q0 -3 -1 -4q-13 -14 -55.5 -89.5t-93 -176.5t-89.5 -213.5t-40 -182.5q38 40 94.5 105.5l97 113.5t41.5 49q6 4 12 -5t7 -16
q-198 -285 -227 -323q-28 -38 -63 -12q-45 32 -52 132q-9 148 83 344q-117 -162 -289 -485q-34 -64 -63 -27q-36 44 -34 185q4 226 109 457q24 51 52 100q-115 -145 -241 -351.5t-223 -394.5z" />
    <glyph glyph-name="N" unicode="N" horiz-adv-x="779" 
d="M591 -141q-44 -46 -79 0q-46 60 -39 210q11 238 151 502q-207 -276 -452 -746q-41 -78 -73 -45q-38 41 -33 200q8 264 131 585q53 140 125 275q-69 -11 -133 -31t-123 -49t-95 -70.5t-36 -88.5q-171 128 -43 212q100 65 331 82q183 14 271 -13q36 -11 36 -26q0 -4 -1 -5
q-18 -26 -83 -155t-149.5 -329t-120.5 -340q200 470 431 684q125 115 215 119q57 2 66 -41q1 -7 1 -14q0 -4 -1 -5q-14 -19 -65.5 -115.5l-115 -226.5t-112 -270.5t-47.5 -220.5q38 40 95.5 106l99 115.5t42.5 50.5q6 4 12 -5t7 -16q-175 -289 -213 -329z" />
    <glyph glyph-name="O" unicode="O" horiz-adv-x="776" 
d="M726 245l-41 -90q84 47 182 159q3 1 6.5 3t12 4.5t9.5 -2t-2 -14.5q-21 -44 -93 -115t-154 -109q-61 -108 -130.5 -182t-133.5 -108t-126 -37.5t-111 22.5t-85 79t-52 125.5t-8 169t43 202.5q79 242 198 339q49 126 162 182q110 54 216 15q111 -41 155 -164
q65 -184 -48 -479zM573 677v-7.5t-3.5 -14.5t-9.5 -16t-21 -6.5t-35 9.5q-85 41 -163 -29q-12 -42 -9 -90q8 -133 55.5 -245t128.5 -144q49 91 96 211q104 269 38 387q-39 69 -121 60q-54 -6 -103 -47q38 -6 75 -23t55 -31zM174 318q-83 -229 -48 -368q23 -91 89 -100
q84 -11 189 113q34 40 68 94q-158 40 -238 316q-1 5 -13 60q-23 -51 -47 -115z" />
    <glyph glyph-name="P" unicode="P" horiz-adv-x="601" 
d="M247 816q-126 -29 -209.5 -100.5t-83.5 -157.5q-62 87 -62 157q0 68 57.5 117t144.5 71t191 22q118 0 216 -25.5t162 -81t64 -132.5t-54 -169.5t-133 -166.5t-171.5 -124.5t-165.5 -51.5q-63 -184 -63 -285q0 -44 11 -70v-1q0 -7 -7.5 -21t-19.5 -14q-6 0 -11 4
q-70 43 -70 192q0 179 89 434.5t174 365.5q14 18 60 18q37 0 70 -10.5t33 -24.5q0 -3 -2 -7q-14 -22 -50.5 -93t-95 -197t-99.5 -236q76 28 161.5 110.5t144 185t58.5 179.5q0 133 -176 133q-73 0 -163 -21z" />
    <glyph glyph-name="Q" unicode="Q" horiz-adv-x="761" 
d="M242 691q41 118 151 174q109 56 218 23q115 -35 163 -153q80 -199 -70 -540l-18 -40q84 47 182 159q3 1 6.5 3t12 4.5t9.5 -2t-2 -14.5q-21 -44 -93 -115t-154 -109q-77 -128 -142 -193.5t-179 -140.5l86 -22.5t80.5 -18.5t79 -12t70 -2.5t65 8.5t53 23.5t45.5 40
t32 60.5q9 0 19.5 -55t6 -121t-31.5 -89q-19 -16 -43.5 -25t-56.5 -9t-61 2t-71.5 13.5l-73 20t-81 27.5l-79 30l-83 33l-79.5 32q-81 -38 -150 -56.5t-129 -7.5t-77 64l-1 3q-7 27 -7 48.5t6 36t18.5 25t27.5 16t36 7.5t40 1.5t44 -3.5t44 -6t43 -8q2 0 4 0.5t4 0.5
q-66 59 -91 160t-10 209.5t50 214.5t86 187.5t101 115.5zM342 613q-15 -85 -3 -167t40 -148t65.5 -110.5t72.5 -53.5q49 91 96 211q104 269 38 387q-39 69 -121 60q-54 -6 -103 -47q38 -6 75 -23t54 -31l18 -14v-7.5t-3.5 -14.5t-9.5 -16t-21 -6.5t-35 9.5q-85 41 -163 -29z
M235 373q-1 5 -13 60q-107 -210 -104 -391q2 -136 65 -178q69 -48 174 50q56 52 116 143q-158 40 -238 316z" />
    <glyph glyph-name="R" unicode="R" horiz-adv-x="667" 
d="M260 247q113 72 189.5 159t104.5 161.5t25.5 136t-34.5 93.5q-29 28 -95.5 36.5t-146.5 -6.5t-155.5 -46.5t-130 -90.5t-63.5 -132q-66 87 -63.5 155.5t57.5 115.5t143 71.5t194 24.5q116 0 203.5 -19.5t137 -53.5t76 -79t23.5 -97.5t-23 -108t-62 -110.5t-94.5 -104.5
t-119.5 -92t-138 -70.5q36 -67 87.5 -126.5t95.5 -88.5q36 39 86 101.5l85.5 109t38.5 49.5q4 4 11 4q5 0 10.5 -3.5t8.5 -6.5t3 -4q-23 -34 -84 -142t-108 -172.5t-76 -59.5q-66 11 -136.5 95.5t-120.5 188.5q-41 -143 -46 -193q-7 -65 8 -123v-1q0 -7 -8.5 -23t-18.5 -12
q-64 27 -77.5 128.5t14 230t71 261t91.5 234t79 136.5q17 20 89 17.5t78 -25.5q1 -5 -2 -10q-13 -22 -44 -81t-84 -171t-93 -213q5 -19 14 -43z" />
    <glyph glyph-name="S" unicode="S" horiz-adv-x="564" 
d="M280 564q47 28 96 85.5t66 114t-37 82.5q-118 -64 -208 -190q-85 -119 -81 -202q4 -81 98 -79q190 5 248 -102q47 -88 -11 -211q-59 -125 -191 -211q-143 -92 -313 -96q-79 -3 -134 42q-62 51 -30 120q43 90 241 170q10 -4 11 -12t-6 -12q-84 -46 -134 -127
q-45 -73 -21 -108q20 -28 84 -12q140 36 249 148q96 99 104 192q9 100 -98 134q-50 16 -124 15q-64 -1 -95 78q-36 93 -2 219q44 158 175 249q70 48 158 69q18 4 32 0.5t35 -14.5t34 -16q23 12 53.5 17t59 2t45 -24t9.5 -58q-13 -67 -74.5 -139.5t-129.5 -120t-119 -66.5
q-19 23 10 63z" />
    <glyph glyph-name="T" unicode="T" horiz-adv-x="360" 
d="M44 836q87 0 254 13q11 20 19 31q29 17 93 14t69 -30l223.5 22l185 19t67.5 7q15 0 0 -28t-43 -66.5t-30 -41.5q-15 -27 -447 -31q-35 -98 -152.5 -449.5t-158.5 -465.5q-5 -15 -42.5 -26t-57.5 2q17 67 62 267.5l89 380.5t81 289q-286 2 -281 11q6 11 12 29t10 27.5
t16 17.5t31 8z" />
    <glyph glyph-name="U" unicode="U" horiz-adv-x="749" 
d="M630 885q-3 9 29 29q64 40 119 36q73 -5 61 -104q-23 -181 -81.5 -350.5t-134.5 -294t-161 -216.5t-165.5 -134.5t-142.5 -32.5q-86 21 -115 141t-4.5 273.5t93 317.5t161.5 268q-67 -13 -127 -33.5t-114 -48.5t-86 -67.5t-32 -83.5q-167 129 -39 213q100 66 326 82
q184 13 275 -15q40 -12 40 -29q-129 -119 -246 -364.5t-136 -433.5q2 -143 60 -136q63 7 166 168q121 190 202 428q90 266 52 387z" />
    <glyph glyph-name="V" unicode="V" horiz-adv-x="729" 
d="M-87 571q-175 140 -22 223q118 63 368 75q178 8 244 -14q28 -10 12 -22q-58 -104 -106 -208.5t-80 -190t-55.5 -164t-35.5 -138t-18 -104.5t-5 -69.5t7 -28.5q26 -17 147 178t242.5 433.5t153.5 341.5q2 8 28 18t58 15t61 -1.5t37 -32t-14 -75.5q-123 -263 -271 -503
t-290.5 -389.5t-219.5 -116.5q-51 22 -58 155.5t20 296.5t74 322.5t94 233.5q-68 -12 -130 -32t-118 -49t-89.5 -69t-33.5 -85z" />
    <glyph glyph-name="W" unicode="W" horiz-adv-x="962" 
d="M1003 916q2 8 28 18t58 15t61 -1.5t37 -32t-14 -75.5q-213 -456 -418 -759q-221 -324 -319 -284q-31 12 -48 62q-18 51 1 211t66 290q-91 -122 -160 -233.5t-98.5 -174l-50.5 -108.5t-32 -58t-27 -2q-51 33 -61.5 131.5t12.5 225.5t63.5 264t89.5 254.5t93 188.5
q-69 -12 -133 -31.5t-122 -48.5t-93 -70t-35 -87q-176 132 -42 217q104 66 341 83q185 13 273 -13q40 -13 31 -31v-3t-1 -2q-19 -29 -85 -157t-153 -328.5t-124 -340.5q150 330 373 578q140 156 233 199q66 29 67 -21q0 -13 -4 -29q-58 -104 -106.5 -204.5t-81.5 -180
t-57.5 -150.5t-37.5 -123t-20 -91t-6.5 -59.5t6.5 -24.5q25 -17 135.5 187t219 448t141.5 351z" />
    <glyph glyph-name="X" unicode="X" horiz-adv-x="650" 
d="M-111 -247q-33 -3 -52 81q-1 6 -2 9q36 10 105.5 108t188.5 286l38 61q-79 284 -32 602q-55 -15 -104.5 -36.5t-93.5 -50.5t-70 -68.5t-26 -83.5q-139 137 -23 224q86 64 266 77q147 11 218 -19q34 -15 31 -35q-113 -190 -67 -455q223 339 366 473q14 9 92 -15
q92 -28 94 -54q1 -6 -5 -11l-64 -47q-79 -62 -186 -192.5t-249 -324.5q61 -155 158 -240q80 75 213 222q8 7 19 2t10 -11q-1 0 -30.5 -46t-91.5 -126.5t-130 -152.5q-17 -15 -38 -15.5t-47 17t-52.5 46.5t-54.5 74t-51 98q-145 -200 -223 -297.5t-107 -99.5z" />
    <glyph glyph-name="Y" unicode="Y" 
d="M559 840q-72 -67 -154 -212.5t-136 -303t-50 -249.5q82 91 311 405q105 284 195 424q10 12 95 7q103 -6 104 -31q0 -5 -4 -10q-203 -240 -483 -1006q60 -4 126 -11t137 -15.5t99 -11.5q30 -3 -8 -40q-50 -48 -127 -77q-59 -22 -96 -12q-91 26 -183 46q-57 -159 -191 -217
q-107 -47 -211 -11q-89 30 -116 103q-18 47 -2 102q48 163 455 150q26 72 81.5 238.5l72.5 216.5q-198 -303 -220 -328q-48 -48 -93 -3q-53 53 -58 184q-7 208 116 439q60 112 148 218q-74 -11 -146.5 -32t-140 -51.5t-109 -74t-41.5 -92.5q-174 143 -20 225q118 64 370 72
q185 7 259 -18q31 -11 20 -24zM-25 -276q-5 -39 32 -84q50 -60 114 -47q88 17 158 171q-295 50 -304 -40z" />
    <glyph glyph-name="Z" unicode="Z" horiz-adv-x="794" 
d="M447 257q10 -3 16.5 -21t-1.5 -22q-108 -63 -245 -197t-144 -185q-4 -33 55 -17q157 44 283 170q115 117 133 231q19 126 -98 182q-56 27 -141 34q-9 6 -15 17.5t-7.5 22.5t5.5 20.5t23 12.5q64 6 131 49t114.5 98t76 109.5t23.5 84.5q-73 5 -134 -0.5t-114.5 -23.5
t-84.5 -56.5t-34 -95.5q-136 104 -66 183q57 63 211 84q156 20 270 -18q117 -40 105 -123q-20 -134 -379 -335q204 -9 271 -131q56 -102 -1 -240q-56 -135 -192 -229q-173 -121 -389 -108q-153 9 -167 90q-14 77 103 185q142 131 392 229z" />
    <glyph glyph-name="bracketleft" unicode="[" horiz-adv-x="564" 
d="M659 759q-19 14 -44.5 7.5t-41.5 -25.5q-112 -134 -235.5 -391t-136.5 -415q-1 -9 0.5 -16.5t3.5 -12.5t6.5 -9.5t8 -7t9.5 -5.5t8.5 -3.5t9 -2.5t7.5 -2q15 -5 17.5 -16.5t-5 -20.5t-17.5 -8l-17 2q-75 3 -116 17q-43 15 -43.5 91t34.5 187t91 238.5t128 254.5t144 226
q34 11 104 2t110 -34q9 -6 -1.5 -36.5t-23.5 -19.5z" />
    <glyph glyph-name="backslash" unicode="\" horiz-adv-x="242" 
d="M417 -75l-20 -22q-17 -17 -56 -14t-47 16q-62 98 -146 279l-152 334t-95 192q-16 23 28 43q48 20 85 10l129 -281.5l98 -205.5l103 -206.5t73 -144.5z" />
    <glyph glyph-name="bracketright" unicode="]" horiz-adv-x="550" 
d="M4 -72q19 -14 44.5 -7.5t41.5 25.5q112 134 235.5 391t136.5 415q1 9 -0.5 16.5t-3.5 12.5t-6.5 9.5t-8 7t-9.5 5.5t-8.5 3.5t-9 2.5t-7.5 2q-15 5 -17.5 16.5t5 20.5t17.5 8l17 -2q75 -3 116 -17q43 -15 43.5 -91t-34.5 -187t-91 -238.5t-128 -254.5t-144 -226
q-34 -11 -104 -2t-110 34q-9 6 1.5 36.5t23.5 19.5z" />
    <glyph glyph-name="asciicircum" unicode="^" horiz-adv-x="523" 
d="M459 477q14 -16 3.5 -31t-35.5 -14q-6 1 -64 58t-86 88q-94 -100 -123 -121q-26 -17 -79 -12q-33 3 -30 14q1 3 4 6q2 1 41 33.5l87.5 75t66.5 62.5q19 17 45.5 17t35.5 -17q3 -3 24 -30l37.5 -47.5l38 -45.5t34.5 -36z" />
    <glyph glyph-name="underscore" unicode="_" horiz-adv-x="642" 
d="M78 7q20 -2 53.5 -1.5t77.5 3.5t90.5 7l91.5 8t80 7.5t57 6.5l23 2q28 0 20 -40q-8 -44 -38 -69q-11 -8 -22 -10q-33 -5 -251.5 0.5t-215.5 14.5q3 8 6 20.5t5.5 20.5t5.5 15.5t7 11t10 3.5z" />
    <glyph glyph-name="grave" unicode="`" horiz-adv-x="363" 
d="M-9 956q24 19 45 19t33 -21t19.5 -54.5t9.5 -39.5q12 -28 54.5 -79t42.5 -66q0 -6 -4 -10q-1 -2 -7 -2q-28 0 -104 54.5t-104 98.5q-12 18 -12 43q0 41 27 57z" />
    <glyph glyph-name="a" unicode="a" horiz-adv-x="461" 
d="M543 272l-238 -359q-12 -17 -47.5 -27.5t-51.5 8.5q-12 21 2 163q-76 -119 -98 -148t-52 -37t-55 9t-31 55q-10 76 12 189.5t48 163.5q34 66 66.5 101t72.5 33q49 -2 80.5 -11.5t42.5 -22.5t14 -28.5t-6 -30.5q35 10 66.5 5t48.5 -16q31 -18 -48 -102q-45 -102 -61 -179
q31 27 79.5 86l86 107.5t40.5 51.5q8 6 14.5 3.5t10.5 -8.5zM80 -12q6 -17 27 6.5t62.5 86.5t52.5 78q13 73 30 117q13 82 -14 75q-31 -7 -84 -100q-70 -123 -78 -214q-3 -30 4 -49z" />
    <glyph glyph-name="b" unicode="b" horiz-adv-x="432" 
d="M221 697q51 13 126 7q43 -5 39 -15q-94 -109 -180 -294q144 77 186 -9q35 -71 -11 -210q-47 -141 -135 -230q-110 -110 -212 -57q-3 2 -7 4q-29 17 -33.5 89.5t14 172.5t49.5 204.5t75.5 197.5t88.5 140zM183 343q-83 -175 -90 -395q27 0 85 95q73 122 94 223
q20 98 -39 94q-20 -2 -50 -17z" />
    <glyph glyph-name="c" unicode="c" horiz-adv-x="372" 
d="M-13 -69q-19 32 -27 88t-2 119.5t25 126t53.5 107.5t84 64.5t116.5 -3.5q24 11 54 13t52.5 -13.5t16.5 -49.5q-9 -48 -37 -96.5t-58 -76.5t-47 -24q-1 1 -3.5 2t-7.5 5t-7.5 8t-2.5 11t6 15q11 15 23.5 43.5t19 64t-9.5 55.5q-91 -60 -134.5 -189.5t-11.5 -209.5
q13 -20 33.5 -21t44 15.5t49 40.5t51.5 55l47.5 58.5l42 52t30.5 33.5q8 7 16 6.5t14 -5.5l6 -4q-6 -8 -31.5 -45.5l-53.5 -76l-65.5 -86t-75 -79.5t-75.5 -51.5t-73.5 -8.5t-62.5 56z" />
    <glyph glyph-name="d" unicode="d" horiz-adv-x="497" 
d="M301 22q0 -8 1 -14t2 -10t3.5 -6t3.5 -3t4 0l4.5 1.5t4.5 3.5l4 4t4 5l4 4q33 38 77 96.5l74 99.5t33 44q10 7 18.5 1.5t10.5 -12.5l-54.5 -84.5l-57.5 -89l-55 -83l-65 -93.5q-27 -34 -60.5 -11.5t-45.5 72.5q-2 -2 -11.5 -16.5t-14 -20t-14 -15.5t-19.5 -16
q-131 -47 -173 63q-36 94 3 248q37 144 108 217q82 84 157 7q18 -19 35 -47q65 186 132 321q4 13 77 16q87 3 94 -18q2 -6 -4 -13q-61 -77 -172 -314.5t-108 -336.5zM167 42l59 165l42 119q-54 60 -111 -44q-49 -87 -68 -213q-15 -102 12 -105q21 -3 66 78z" />
    <glyph glyph-name="e" unicode="e" horiz-adv-x="375" 
d="M222 39l182 206q8 7 14 4.5t10 -9.5l4 -6q-135 -207 -206 -290q-36 -42 -72.5 -59t-69.5 -3t-51 62q-24 63 -31 124t1 107t23.5 87.5t35.5 70t38 49t30 30.5l12 10q35 27 76 26t66 -14t43 -29q69 -27 29 -98q-47 -84 -247 -216q-6 -38 -0.5 -64t17.5 -38t37.5 0t58.5 50z
M218 338q-66 -70 -98 -194q129 118 131 176q0 23 -19 23q-7 -1 -14 -5z" />
    <glyph glyph-name="f" unicode="f" horiz-adv-x="359" 
d="M205 625q1 10 74 13q92 3 89 -19q0 -1 -1 -2q-3 -8 -48 -77q-82 -140 -181 -394q95 35 131 -21q29 25 60 59t50.5 58.5t20.5 25.5t3 0t3.5 -2.5t3.5 -3t3 -2.5q4 -3 -12 -33.5t-48.5 -75t-66.5 -78.5q14 -99 -52 -248q-62 -142 -141 -206q-94 -74 -152 21q-7 11 -13 24
q-33 72 10 273.5t122 401t145 286.5zM15 -313q31 -32 79 58q50 95 68 209q4 27 5 48q-47 -1 -75 23q-104 -293 -77 -338z" />
    <glyph glyph-name="g" unicode="g" horiz-adv-x="470" 
d="M0 -433q-19 88 25.5 162.5t157.5 184.5q2 10 4 30q-120 -106 -173 -30q-44 62 -25 208q21 150 90 250q80 117 178 72q28 -13 57 -40q6 15 20 45q4 13 72 18q86 6 96 -19q3 -6 -1 -14l-43 -66q-68 -111 -114 -295q69 70 121 133q14 3 26 -4q4 -2 2 -6q-62 -93 -168 -204
q-12 -53 -26.5 -131t-24.5 -126t-23 -98.5t-28 -79t-33 -36.5v-1q-25 -12 -52 -18t-54.5 -3.5t-50 20t-33.5 48.5zM296 360q-62 49 -119 -59q-48 -91 -61 -211q-11 -98 16 -100q28 -2 84 109q32 138 80 261zM87 -358q4 -41 29 -63q20 -16 30 4q7 18 11 49t8.5 96.5
t8.5 104.5q-94 -111 -87 -191z" />
    <glyph glyph-name="h" unicode="h" horiz-adv-x="441" 
d="M58 -99q-80 -62 -93 12q-23 129 158 567q38 94 85 198q4 13 72 18q86 6 96 -19q3 -6 -1 -14l-43 -66q-149 -244 -231 -485q90 146 155 212q4 26 23.5 40.5t45 17t49 0.5t41.5 -8q7 -1 11.5 -4.5t6 -12t-3 -20.5t-19.5 -32.5t-40 -47.5q-61 -132 -75 -220q30 32 71 83
l69.5 86.5t32.5 38.5q8 6 14.5 3t9.5 -10l4 -6l-199 -296q-28 -41 -63 -58q-31 -16 -41 11q-6 15 3.5 118t27.5 196q-157 -185 -166 -302z" />
    <glyph glyph-name="i" unicode="i" horiz-adv-x="280" 
d="M103 453q26 7 64 7q78 0 78 -33q0 -25 -51 -80q-110 -217 -113 -319v-4q0 -18 11 -18q15 0 53.5 40t74.5 87.5l68 90.5t33 44q4 4 9 4q12 0 20 -15q-1 -5 -53.5 -84t-124.5 -174.5t-111 -125.5q-57 -44 -77 38q-24 94 11 265q36 177 108 277zM160 540q-25 38 11 92t78 54
q20 0 41 -19t21 -44q0 -37 -27 -74t-60.5 -44t-63.5 35z" />
    <glyph glyph-name="j" unicode="j" horiz-adv-x="221" 
d="M-101 -423q11 52 39 260.5t65 338.5q-66 -88 -93 -109q-9 -5 -15.5 -2.5t-10.5 7.5l-3 6q107 119 163 222q25 64 55 124q4 13 77 16q87 4 94 -18q2 -6 -4 -13q-49 -63 -90.5 -163.5t-63 -180.5t-51.5 -209t-44 -179q-2 -7 -5 -19t-5 -19l-4.5 -16.5t-4.5 -15.5l-4.5 -13
t-5 -11t-6 -8.5t-6.5 -6.5t-7 -3q-58 -12 -70 12zM151 540q-18 29 6 75.5t55 65.5q45 29 83 -31q15 -23 -9 -72.5t-52 -67.5q-46 -29 -83 30z" />
    <glyph glyph-name="k" unicode="k" horiz-adv-x="417" 
d="M206 -123q-29 15 -55.5 58t-40 78.5t-30.5 89.5q-2 5 -3 -1q-49 -144 -39 -201q-80 -62 -93 12q-23 129 158 567q38 94 85 198q4 13 72 18q86 6 96 -19q3 -6 -1 -14l-43 -66q-63 -105 -116 -211q93 93 153 65q6 -6 16.5 -15t16 -14.5l13.5 -13.5t12 -13.5t9 -13.5
t6.5 -14.5t1.5 -15t-3 -16.5q-8 -25 -92.5 -90.5t-176.5 -110.5q64 -98 98 -126q37 40 84.5 100l80.5 103.5t35 45.5q9 7 20.5 1t12.5 -11q-4 -1 -41.5 -63l-81 -134t-89 -127.5t-65.5 -45.5zM304 345q-35 77 -123 -38q-35 -46 -67 -108q2 -6 11 -21q70 50 128 101.5
t51 65.5z" />
    <glyph glyph-name="l" unicode="l" horiz-adv-x="264" 
d="M-27 55q13 126 69 301.5t131 325.5q5 10 31.5 16t58 -3.5t42.5 -39.5q34 -91 -14.5 -214t-171.5 -216q-69 -179 -57 -233q4 -21 17 -2q34 36 85 98.5l87.5 109t39.5 49.5q10 7 18.5 1.5t10.5 -12.5q-130 -210 -202 -306q-77 -103 -119 -46q-34 46 -27 155q0 8 1 16z
M149 301q70 74 95.5 143t12.5 109q-38 -84 -108 -252z" />
    <glyph glyph-name="m" unicode="m" horiz-adv-x="664" 
d="M396 121q-43 -51 -98 -187q-47 -40 -78 -40q-20 0 -30.5 26.5t-11 66.5t1 72t5.5 58q-44 -96 -105 -215q1 0 -3.5 -4.5t-12.5 -10.5t-17 -12t-19.5 -10.5t-18.5 -4.5q-3 0 -8.5 4t-13.5 15.5t-15 29t-12 48t-5 68.5q0 177 132 428q35 15 88.5 9t53.5 -35q0 -25 -52 -81
q-117 -209 -111 -370q112 293 179 372q11 26 53.5 36t80.5 3t38 -26q0 -27 -62 -93q-72 -153 -75 -251q87 185 157 284q18 58 37 72q12 9 46.5 14t67.5 -0.5t35 -24.5q3 -20 -49 -78q-68 -155 -85 -263q36 36 90 98l93 109.5t42 49.5q10 7 18.5 1.5t10.5 -12.5
q-204 -297 -245 -344q-27 -27 -76 -27q-27 0 -33.5 38t0.5 108.5t7 78.5z" />
    <glyph glyph-name="n" unicode="n" horiz-adv-x="456" 
d="M87 453q21 8 53.5 9.5t60.5 -7t28 -28.5q0 -25 -52 -81q-83 -167 -105 -292q31 90 85 185t101 128l6 6q9 11 47 14.5t72.5 -3.5t33.5 -23q-2 -29 -62 -93q-64 -135 -74 -228q35 33 85 90.5l86.5 101.5t39.5 46q9 7 17 1.5t9 -12.5q0 -2 -41 -70t-100 -156t-96 -125
q-99 -72 -104 81q-2 79 19 191q-90 -173 -117 -284q0 -1 1 -2q1 0 -3.5 -4.5t-12.5 -10.5t-17 -12t-19.5 -10.5t-18.5 -4.5q-3 0 -8.5 4t-13.5 15.5t-15 29t-12 48t-5 68.5q0 177 132 428z" />
    <glyph glyph-name="o" unicode="o" horiz-adv-x="459" 
d="M24 -116q-35 25 -42 101t10 159.5t59.5 159t96.5 97.5q75 30 155 12q75 -17 82 -66q5 -27 -14 -59q24 -53 -28 -169q91 61 167 151q7 6 14 2t9 -11q-142 -210 -254 -257q-116 -193 -226 -128q-18 -2 -29 8zM165 260q-33 -64 -35 -111.5t16.5 -68t49.5 -21.5q35 90 55 208
q5 61 -24 58q-27 -2 -57 -56q-3 -5 -5 -9zM89 -62q12 -11 34 6t44 54q-52 18 -85 68q-7 -32 -9.5 -50.5t0.5 -42t16 -35.5z" />
    <glyph glyph-name="p" unicode="p" horiz-adv-x="489" 
d="M182 524q2 12 66 15q80 3 84 -19q1 -4 -1 -8q-36 -72 -57 -95q79 35 123 24.5t57 -57t2 -110.5t-41 -134l54.5 62.5l45.5 53.5t19 22q9 7 17 1.5t9 -12.5q-92 -139 -169 -227t-137 -123.5t-106 -31.5t-82 46q-106 -294 -106 -355l-22 -3q-55 0 -58 30q-4 57 21 183
t66.5 266t100 274.5t114.5 197.5zM84 -19l22 -21q46 -51 107 43q55 88 80 214q24 121 -12 140q-15 9 -42 -8q-75 -150 -155 -368z" />
    <glyph glyph-name="q" unicode="q" horiz-adv-x="422" 
d="M376 459q2 9 40 14t73.5 -1t31.5 -25q-1 -6 -39 -65q-74 -121 -160.5 -340t-138.5 -393l52 64t45 57q5 3 22 -10l-151 -247h-1v-2l-22 -3q-55 0 -58 30q-8 110 73 394q-133 -78 -176 11q-35 75 5 221t119 234q95 106 185 46q27 -18 52 -51q27 43 48 66zM303 357
q-22 52 -84 -17q-63 -69 -106 -183q-48 -126 -10 -161q18 -17 58 -5q43 146 142 366z" />
    <glyph glyph-name="r" unicode="r" horiz-adv-x="359" 
d="M417 285q8 6 13.5 3.5t8.5 -8.5l3 -6q-20 -27 -66 -95l-72.5 -104.5t-70 -88t-85.5 -90.5q-9 -8 -28.5 -17.5t-41 -13t-30.5 10.5q-14 23 22 203t76 232q-24 -2 -33 -2q-4 -7 -22 -30l-45.5 -58l-42.5 -54h-3.5t-8 0.5t-8 3t-4 7t4.5 11.5q61 89 91 119l2 2q-31 3 -46 12
t-7 29.5t45 50.5q35 28 46.5 34.5t19.5 2.5q23 -11 112 -9q75 1 84 -15q5 -9 -2 -24q-5 -8 -25 -45l-29 -53.5l-27.5 -52t-29.5 -60.5l-25 -58t-24 -64t-17 -61q29 21 75 69.5t84.5 93.5l71 84t34.5 41z" />
    <glyph glyph-name="s" unicode="s" horiz-adv-x="336" 
d="M239 84q15 -155 -84 -221q-67 -45 -147 -29q-66 13 -81 57q-23 62 81 134q49 35 125 68q-9 31 -12.5 45.5t-10.5 49t-5 54t5 60.5q-42 -63 -127 -159q-12 -13 -18 18l-2 10q23 25 57 71l68 96t43 62q17 23 76 34q67 12 79 -16q5 -12 -3 -29q-66 -148 -52 -251
q83 48 184 175q5 2 12 -2t6 -10q-90 -147 -194 -217zM148 36q-3 -1 -14.5 -6t-14.5 -6.5t-12.5 -5.5t-12 -6t-9.5 -6.5t-9.5 -8t-7 -8.5t-6.5 -10.5t-4 -12.5q-9 -32 5.5 -51.5t38.5 -14.5t40 35q20 36 6 101z" />
    <glyph glyph-name="t" unicode="t" horiz-adv-x="303" 
d="M329 247q10 7 18.5 1.5t10.5 -12.5q-3 -5 -68 -107.5t-119.5 -174t-83.5 -80.5q-130 -39 -129 92q2 134 148 486q-63 5 -58 13q6 11 12 29t10 27.5t16 17.5t31 8h29l58 131q4 13 72 18q86 6 96 -19q3 -6 -1 -14l-71 -113q25 1 42.5 3t23.5 3t7 1q7 0 10 -3.5t2 -10
t-3.5 -13.5t-7.5 -16.5l-8.5 -16t-9 -15t-6.5 -11.5q-12 -20 -107 -24q-74 -142 -124.5 -273.5t-62.5 -212.5q1 -33 42.5 9t121 142.5t109.5 134.5z" />
    <glyph glyph-name="u" unicode="u" horiz-adv-x="500" 
d="M314 17q34 29 88.5 89l98 111t44.5 52q9 8 16.5 3.5t9.5 -11.5q-227 -358 -306 -358q-45 1 -49 128v9q-66 -129 -135 -146q-55 -14 -83 49q-39 88 6 247q27 96 84 199q4 17 55.5 21t84.5 -17q17 -12 -36 -87q-111 -245 -99 -313q31 13 135 135q19 85 96 257q6 17 52 19
t87 -16q15 -21 -44 -100q-9 -21 -39 -86t-45.5 -106.5t-20.5 -78.5z" />
    <glyph glyph-name="v" unicode="v" horiz-adv-x="429" 
d="M93 388q6 20 52.5 24t86.5 -21v-1q33 -19 -61 -139q-20 -41 -36.5 -87t-25.5 -85.5t-14 -72.5t-3 -52.5t10 -21.5q34 -8 92.5 115.5t100.5 264.5t39 187q-1 15 24 19.5t52 -1.5t32 -18q33 -36 -2.5 -150.5t-102 -230.5t-144 -200.5t-117.5 -68.5q-51 18 -73 69t-18 113.5
t21.5 133t40.5 127t46 96.5z" />
    <glyph glyph-name="w" unicode="w" 
d="M214 45q-38 -76 -72 -114t-58 -39.5t-43 17t-29.5 45.5t-14.5 57q-12 88 12.5 186.5t80.5 224.5q8 22 57 26t83 -24q33 -31 -76 -171q-73 -201 -67 -258q11 8 27.5 27.5l31.5 38.5t36.5 50.5l33.5 49l32.5 48.5t23.5 36l67 163q10 20 46.5 30t71.5 -8q13 -6 11 -23
t-10.5 -36t-24.5 -44.5l-30.5 -47.5t-28.5 -45.5t-19 -38.5q-28 -90 -37.5 -150.5t-5.5 -80.5t12 -27q42 22 96.5 143.5t91.5 243t42 171.5q3 30 52.5 27.5t55.5 -27.5q17 -70 -45 -230t-154 -291.5t-150 -130.5q-34 1 -59 39t-34 83t-6 80z" />
    <glyph glyph-name="x" unicode="x" horiz-adv-x="440" 
d="M446 434q-18 -64 -86 -163.5t-161 -205.5q15 -67 32 -93l63 68l62.5 72l48.5 58.5t24 28.5q5 5 11 5t10.5 -3.5t5.5 -6.5l2 -4q-22 -26 -56.5 -75.5l-64.5 -94l-60.5 -85.5t-54.5 -59t-37 -5q-33 33 -61 114q-225 -222 -281 -207q-21 6 -22 42q103 29 273 265
q-12 43 -32 127.5t-33.5 129t-25.5 58.5q5 23 60 11q63 -13 94 -48q17 -21 12 -42q-3 -23 8 -114q52 81 95.5 156t51.5 94q11 25 60.5 15.5t61.5 -38.5z" />
    <glyph glyph-name="y" unicode="y" horiz-adv-x="477" 
d="M241 -414q-9 -27 -56 -7q-36 16 -44 35q-4 9 4 14q19 16 31 62q12 43 32 190t37 230q-105 -236 -180 -242q-46 -3 -65 82q-25 113 11 273q23 105 68 186q3 9 27 12t57.5 -4.5t55.5 -25.5q23 -19 -46 -113q-13 -38 -38 -100.5t-38.5 -106.5t-18.5 -88q40 31 196 251
q33 129 89 240q4 13 72 18q86 6 96 -19q3 -6 -1 -14l-43 -66q-62 -109 -105.5 -259.5t-78.5 -311t-62 -236.5z" />
    <glyph glyph-name="z" unicode="z" horiz-adv-x="403" 
d="M25 197h-3.5t-8 0.5t-8 3t-4 7t4.5 11.5q54 78 88 115q-38 9 -42.5 31t34.5 64q42 41 66.5 55t37.5 10.5t36 -21.5q222 10 224 -34q0 -7 -5 -15q-26 -36 -86.5 -87.5l-114 -100t-71.5 -87.5q96 13 117 -55q77 67 135 146q5 1 9.5 -2.5t6 -12t-8.5 -21.5
q-53 -76 -137 -148q2 -98 -83 -239q-80 -132 -170 -191q-107 -71 -159 18q-10 16 -17 37q-18 84 61 155q35 33 159 111l30 19q25 73 13 102q-66 -49 -85 -27q-25 29 52.5 130t151.5 164q-67 -10 -120 -5l-26.5 -34.5l-41 -53zM-87 -268q6 -74 61 -19q58 57 115 183
q4 10 8 19q-53 -34 -76 -50t-55 -42t-43.5 -47t-9.5 -44z" />
    <glyph glyph-name="braceleft" unicode="{" horiz-adv-x="436" 
d="M175 358q-19 5 -7 26t30 17q3 -1 5 -2q21 -6 57 51.5t70 132.5t77 149t73 94q66 48 164 39q69 -7 85 -35q7 -13 -3 -26q-71 -25 -129 -80.5t-95.5 -114.5l-73 -114.5t-80 -90.5t-99.5 -33q51 -38 68 -91.5t5 -107.5t-31.5 -102t-40 -90.5t-21.5 -58.5q-1 -24 5 -42
t13 -24.5t11 -15.5t-1 -16q-11 -15 -74.5 4.5t-75.5 52.5q-18 48 -3 103.5t40 116.5l48 112.5t21.5 91.5t-38.5 54z" />
    <glyph glyph-name="bar" unicode="|" horiz-adv-x="319" 
d="M116 -165l-27 11q1 21 6 173t5.5 208t3.5 250.5t-1 298.5q28 25 79 26q48 2 45 -24v-3q-8 -47 -3.5 -390.5t-14.5 -504.5q-2 -16 -37 -35t-56 -10z" />
    <glyph glyph-name="braceright" unicode="}" horiz-adv-x="433" 
d="M490 352q18 -5 7 -25q-12 -22 -30 -19q-2 0 -4 1q-22 6 -50.5 -52t-53 -134.5t-58.5 -152t-64 -96.5q-65 -49 -162 -42q-70 5 -87 33q-7 13 3 26q71 27 123.5 84t82.5 117l58.5 116.5t68.5 92t94 34.5q-51 37 -64.5 89.5t3.5 106t42 102l48.5 91.5t24.5 59q1 30 -9.5 49
t-18.5 28t-2 19q11 15 75.5 -2.5t77.5 -49.5q13 -37 4 -84.5t-34 -96l-50.5 -97t-44 -88t-15.5 -69t35 -40.5z" />
    <glyph glyph-name="asciitilde" unicode="~" horiz-adv-x="594" 
d="M98 123q-4 -2 -13.5 4t-16 13.5t-3.5 9.5l5 6l11.5 13.5t16.5 17.5t22.5 18.5t27.5 17.5t32.5 13.5t36.5 6.5t41.5 -2.5t44.5 -14.5q39 -18 73.5 -27t56 -8.5t37.5 4t23 7.5l7 4q36 24 44 4q9 -21 -20 -52q-4 -5 -9 -9q-2 -2 -7.5 -6.5t-18.5 -13.5t-27.5 -17.5
t-33.5 -16t-37.5 -11.5t-39 -1t-38.5 13l-30 18.5t-27.5 16.5t-23 11.5t-24.5 8.5t-22 2t-26.5 -2t-27.5 -10.5t-34 -17.5z" />
    <glyph glyph-name="exclamdown" unicode="&#xa1;" horiz-adv-x="253" 
d="M318 864q15 -18 11.5 -40t-16 -40.5t-30.5 -33.5q-45 -36 -86 18q-16 23 -3 58t39 56q44 36 85 -18zM264 657q-18 -70 -61 -275.5t-79 -328t-78 -175.5q-30 -18 -96 -14t-66 33q0 4 1 5q31 47 279 731q5 15 42.5 26t57.5 -2z" />
    <glyph glyph-name="yen" unicode="&#xa5;" horiz-adv-x="913" 
d="M422 -227q33 -3 114 -3q3 4 35 55q-139 7 -143 13q-19 25 4.5 58t59.5 33q26 -3 133 -3q63 133 178 487q-49 -62 -120.5 -178.5l-120 -190t-69.5 -73.5q-34 0 -63.5 28t-44.5 69.5t-21.5 89.5t5.5 89q-228 -167 -430 -182q-139 -9 -203 57q-62 64 -17 161q13 28 34 56
q80 -114 191.5 -148.5t224 4.5t213.5 136q88 318 226 469q85 92 150 80q56 -11 63 -97q1 -5 1 -10q3 -67 -78 -184t-202 -222q-63 -188 -54 -294q78 86 357 469q81 245 150 362q8 12 88 9q102 -5 109 -31q2 -6 -2 -12l-50 -61q-34 -44 -71.5 -111.5t-87 -179.5l-76.5 -176
l-89.5 -220.5l-77.5 -192.5l58.5 2t53.5 2t42 1.5t30 1.5h10q28 0 9 -42q-20 -44 -57 -68q-12 -7 -22 -9q-25 -3 -168 2q-6 -16 -20 -46l57.5 2t51.5 2t40.5 1.5t28.5 1.5h10q28 0 9 -39q-20 -41 -57 -63q-12 -7 -22 -9q-13 -2 -162 2q-79 -169 -118 -189q-76 -37 -168 128
q57 20 113 69q-96 7 -99 11q-19 24 4 53.5t60 29.5z" />
    <glyph glyph-name="section" unicode="&#xa7;" horiz-adv-x="535" 
d="M379 219q-39 -94 -128 -98q26 -87 -1 -156v-2q-34 -83 -110 -96q-62 -11 -104 28q-45 41 -25 102q7 16 36.5 29.5t35.5 -0.5q-7 -27 12.5 -52.5t44.5 -27.5t44 26q10 23 6.5 51t-21.5 57.5l-36 61.5l-36.5 62.5t-22.5 61t6 56t48.5 48t105.5 37.5q-22 30 -32.5 54
t-10.5 54.5t24.5 63.5t74.5 68q67 47 141 29q16 10 39 15t45 3.5t35 -16t8 -41.5q-9 -49 -33.5 -103t-51 -88.5t-42.5 -30.5q-1 1 -3.5 2t-7.5 5t-7.5 8t-2.5 11t6 15q16 22 27 73.5t-2 93.5q-56 -20 -81.5 -46t-23.5 -54t13 -62t26.5 -70.5t17.5 -80t-14 -89.5v-2zM212 282
q-7 -27 10.5 -51t42.5 -26t48 23q17 51 -36 124q-57 -27 -67 -67z" />
    <glyph glyph-name="dieresis" unicode="&#xa8;" horiz-adv-x="500" 
d="M175 519q-6 7 -6 23q0 29 23 57t49 28q24 0 41 -26q5 -7 5 -20q0 -29 -22.5 -59t-49.5 -30q-24 0 -40 27zM345 519q-6 7 -6 23q0 29 23 57t49 28q24 0 41 -26q5 -7 5 -20q0 -29 -22.5 -59t-49.5 -30q-24 0 -40 27z" />
    <glyph glyph-name="copyright" unicode="&#xa9;" horiz-adv-x="828" 
d="M413 655q135 0 235 -61t150.5 -162.5t50.5 -228.5q0 -187 -127.5 -319t-308.5 -132q-109 0 -193.5 35t-137 97t-79 142.5t-26.5 176.5q0 135 59 239.5t157.5 158.5t219.5 54zM289 -181q101 -28 195 -5.5t171.5 97t111.5 179.5q50 161 -16.5 307t-213.5 191
q-146 48 -286 -31.5t-190 -239.5q-32 -110 -15 -210t82 -178t161 -110zM230 -47q-14 39 -17.5 95t4.5 116.5t28.5 117.5t54 97t81.5 56.5t111 -5.5q106 46 115 -26q7 -57 -42 -143q-40 -70 -75 -79q-9 -3 -17 1q-1 1 -3.5 2t-7.5 5t-7.5 8t-2.5 11t6 15q11 15 23.5 43.5
t19 64t-9.5 55.5q-88 -58 -143.5 -183t-29.5 -223q20 -38 68 -3q48 37 73 105q10 31 11 59q2 1 6 2.5t14 1.5t18 -4.5t15.5 -18t10.5 -36.5q13 -51 -46 -121t-130 -88q-90 -22 -127 72q0 1 -1 3z" />
    <glyph glyph-name="guillemotleft" unicode="&#xab;" horiz-adv-x="806" 
d="M350 -137q-49 41 -254 171q-30 12 -28 42.5t32 49.5q35 17 109.5 67l132 90.5t58.5 42.5q24 15 31 -22q8 -44 -12 -81q-6 -11 -13 -17q-14 -12 -82.5 -52l-130.5 -73q50 -34 142 -107.5t92 -80.5q1 -29 -25 -38.5t-52 8.5zM630 -137q-49 41 -254 171q-30 12 -28 42.5
t32 49.5q35 17 109.5 67l132 90.5t58.5 42.5q24 15 31 -22q8 -44 -12 -81q-6 -11 -13 -17q-14 -12 -82 -52t-131 -73q50 -34 142 -107.5t92 -80.5q1 -29 -25 -38.5t-52 8.5z" />
    <glyph glyph-name="logicalnot" unicode="&#xac;" horiz-adv-x="605" 
d="M147 223q19 -2 46.5 -1.5t62 2.5t69 5.5l67.5 7t58 6.5l41 5l16 2q17 0 20.5 -17.5t-4.5 -39.5q8 -65 2 -148q-1 -7 -11 -12.5t-24 -8t-27.5 -2t-23 7t-9.5 16.5q1 40 -1 84q-81 0 -200 7t-116 15t6 20.5t5.5 20.5t5.5 15.5t7 11t10 3.5z" />
    <glyph glyph-name="registered" unicode="&#xae;" horiz-adv-x="597" 
d="M307 506q135 0 213.5 -86.5t78.5 -216.5q0 -125 -85.5 -213.5t-206.5 -88.5q-143 0 -217.5 84.5t-74.5 217.5q0 136 84 219.5t208 83.5zM224 -54q98 -32 191.5 21t128.5 160q34 108 -10.5 206t-143.5 128q-98 32 -191.5 -21t-127.5 -161q-35 -107 10 -204t143 -129z
M425 116q2 1 1 -3q-6 -19 -29 -40q-9 -9 -14 -9q-23 1 -52 32.5t-47 67.5q-48 -120 -35 -174q-5 -17 -14 -12q-26 16 -26 72q0 67 33.5 163t65.5 137q20 12 49 2q15 -5 11 -12q-21 -24 -66 -132q0 -2 6 -16q41 14 72.5 51.5t31.5 78.5q0 47 -65.5 49.5t-125.5 -33.5
q-56 -34 -45 -71q-24 33 -24 59q0 38 43.5 58.5t104.5 20.5q69 0 117 -24t48 -67q0 -49 -45 -89.5t-100 -51.5q24 -30 57 -46t48 -11z" />
    <glyph glyph-name="twosuperior" unicode="&#xb2;" horiz-adv-x="428" 
d="M295 423q7 -10 9 -23.5t-5 -16.5q-5 2 -35.5 6t-75 6.5t-74.5 0.5q-38 -27 -64 -5q-21 17 -9 41q14 29 66 31q48 48 93 116.5t64 124t-10 70.5q-32 1 -46 -34t-15 -70.5t-3 -35.5q-52 -2 -56.5 42.5t35.5 88.5q27 30 62 40q59 18 104 -5q71 -36 9 -152q-43 -80 -149 -190
q59 -11 100 -35z" />
    <glyph glyph-name="threesuperior" unicode="&#xb3;" horiz-adv-x="393" 
d="M262 614q84 -33 58 -105q-21 -56 -90 -98q-77 -48 -131 -28q-58 22 -51 119q3 27 34 9l5 -4q-2 0 -4 -16.5t6 -34.5t31 -21q60 -9 115 36q44 36 36 67q-8 32 -78 29q-47 -42 -87 -24q-27 12 -22 36q7 35 76 45q7 1 15 2q66 59 88 111q16 37 -9 43q-32 8 -48 -16.5
t-19.5 -53t-4.5 -28.5q-51 -2 -53 33t40 68q25 20 56 27q80 19 115.5 -12t13 -85.5t-91.5 -98.5z" />
    <glyph glyph-name="paragraph" unicode="&#xb6;" horiz-adv-x="493" 
d="M567 742l-341 -872q-5 -18 -21 -31t-32 -11.5t-20 21.5q-1 4 66 196q-130 -213 -179 -213q-16 0 -21 27q-1 8 143 416q-50 -30 -94 -9t-57.5 90t28.5 192q62 168 203 224q87 35 157 16q38 -11 36 -29q0 -3 -1 -5l-1 -2l-310 -781q90 119 146 215q190 536 209 584
q41 7 69.5 1t19.5 -29z" />
    <glyph glyph-name="periodcentered" unicode="&#xb7;" horiz-adv-x="416" 
d="M152 218q-18 31 -6 60.5t41 52.5q45 37 86 -18q16 -23 3.5 -57.5t-40.5 -56.5q-43 -34 -84 19z" />
    <glyph glyph-name="onesuperior" unicode="&#xb9;" horiz-adv-x="328" 
d="M167 808q17 8 61.5 3t42.5 -18v-2q-30 -35 -105 -189t-67 -221l-3 -2q-2 -2 -7 -5.5t-10.5 -6.5t-11.5 -5t-10 -2q-11 1 -13.5 26.5t3 67t15.5 89.5t25.5 98.5t32.5 89.5q-49 -33 -50 -33q-26 3 -9 22q77 77 106 88z" />
    <glyph glyph-name="ordmasculine" unicode="&#xba;" horiz-adv-x="323" 
d="M290 489q-50 -112 -105 -157t-102 -17q-13 -2 -21 6q-25 18 -30 72.5t7 114t42.5 113.5t69.5 70q42 14 87 13t70 -27.5t2 -66.5q19 -37 -20 -121zM156 570q-34 -68 -47 -114.5t-11 -63t10 -32.5q11 -4 34.5 23t44.5 69q21 41 37 143q3 37 -15 34q-21 -3 -46 -45
q-4 -7 -7 -14z" />
    <glyph glyph-name="guillemotright" unicode="&#xbb;" horiz-adv-x="806" 
d="M149 -140q-26 -18 -52 -8.5t-25 38.5q0 7 92 80.5t142 107.5q-63 33 -131 73.5t-82 51.5q-26 22 -27 75q0 46 20 49q6 1 13 -4q1 -2 58.5 -42.5l132 -90.5t109.5 -67q30 -19 32 -49.5t-28 -42.5q-205 -130 -254 -171zM429 -140q-26 -18 -52 -8.5t-25 38.5q0 7 92 80.5
t142 107.5q-63 33 -131 73.5t-82 51.5q-26 22 -27 75q0 46 20 49q6 1 13 -4q1 -2 58.5 -42.5l132 -90.5t109.5 -67q30 -19 32 -49.5t-28 -42.5q-205 -130 -254 -171z" />
    <glyph glyph-name="onequarter" unicode="&#xbc;" horiz-adv-x="997" 
d="M242 677q25 11 89.5 4t61.5 -24v-3q-12 -14 -53 -80.5t-88.5 -154t-81.5 -180t-27 -141.5l-28 -19q-20 -11 -31 -10q-16 1 -20 36t3.5 91t22 121t37 133.5t47.5 121.5q-12 -7 -29 -18.5t-28 -18t-14 -7.5q-41 5 -15 29q114 107 154 120zM267 -200q-23 -16 -80 -12
q-50 4 -48 23q0 4 3 9q1 1 58.5 114l79.5 156.5l74 149l99 206.5l98 214q37 11 85 -10q45 -20 30 -44q-28 -39 -97 -192.5l-154 -334.5t-148 -279zM784 436q9 1 23.5 1.5t31.5 0.5t33 -1.5t29.5 -4t21 -7t6.5 -10.5v-2q-11 -12 -65 -117.5t-97 -206.5l70 8q27 0 20 -37
q-8 -39 -37 -59q-10 -8 -20 -9q-15 -3 -72 -5q-31 -87 -23 -141l-30 -20q-20 -11 -32 -10q-38 3 -19 168q-178 -4 -191 16q-8 18 -2 38t19 30q44 38 118 132l133 163.5t83 72.5zM672 209l-38 -43.5l-45.5 -51l-38.5 -42.5l90 6q11 63 32 131z" />
    <glyph glyph-name="onehalf" unicode="&#xbd;" horiz-adv-x="999" 
d="M339 -209q-23 -16 -79 -12q-49 4 -47 23q0 4 3 9q1 1 73 144.5l103 206.5l98 205.5l129 281.5q37 11 84 -10q43 -20 29 -43q-27 -39 -95 -192l-152 -334t-146 -279zM831 -77q9 -12 11 -28t-6 -19q-5 2 -41.5 7t-88.5 8t-88 0q-44 -30 -75 -6q-24 19 -12 47q14 37 79 39
q92 94 158.5 222t15.5 147q-29 1 -46.5 -24.5t-21 -57t-5 -58.5t-4.5 -27q-60 -2 -66 48q-7 50 38 103q33 40 77 53q66 20 118 -4q79 -37 30 -152q-44 -103 -190 -256q70 -13 117 -42zM304 677q25 11 89.5 4t61.5 -24v-3q-12 -14 -53 -80.5t-88.5 -154t-81.5 -180
t-27 -141.5l-28 -19q-20 -11 -31 -10q-16 1 -20 36t3.5 91t22 121t37 133.5t47.5 121.5q-12 -7 -29 -18.5t-28 -18t-14 -7.5q-41 5 -15 29q114 107 154 120z" />
    <glyph glyph-name="threequarters" unicode="&#xbe;" horiz-adv-x="996" 
d="M304 450q104 -41 81 -127q-19 -68 -102 -128q-88 -64 -164 -58q-86 7 -98 108q-3 26 -1 57q4 34 43 12l9 -6q-3 0 -6 -22t7.5 -46t41.5 -28q76 -11 146 43q56 43 56 84q0 47 -83 49q-10 1 -22 0q-59 -51 -110 -33q-33 11 -35 39q-2 37 52 58q29 10 69 14q78 69 112 137
q30 59 -7 68q-33 8 -53.5 -10.5t-26.5 -45.5t-9.5 -50.5t-5.5 -23.5q-66 -2 -71 42q-4 42 44 85q36 32 83 43q122 28 165 -29q35 -48 -5 -121q-34 -62 -110 -111zM344 -180q-23 -16 -79 -12q-49 4 -47 23q0 4 3 9q1 1 73 144.5l103 206.5l98 205.5l129 281.5q37 11 84 -10
q43 -20 29 -43q-27 -39 -95 -192l-152 -334t-146 -279zM834 439q9 1 23.5 1.5t31.5 0.5t33 -1.5t29.5 -4t21 -7t6.5 -10.5v-2q-11 -12 -65 -117.5t-97 -206.5l70 8q27 0 20 -37q-8 -39 -37 -59q-10 -8 -20 -9q-15 -3 -72 -5q-31 -87 -23 -141l-30 -20q-20 -11 -32 -10
q-38 3 -19 168q-178 -4 -191 16q-8 18 -2 38t19 30q44 38 118 132l133 163.5t83 72.5zM722 212l-38 -43.5l-45.5 -51l-38.5 -42.5l90 6q11 63 32 131z" />
    <glyph glyph-name="questiondown" unicode="&#xbf;" horiz-adv-x="485" 
d="M484 878q12 -15 12 -36q0 -32 -26 -59.5t-57 -27.5q-30 0 -50 27q-10 13 -10 32q0 32 25.5 62t56.5 30q28 0 49 -28zM374 679q59 -29 72.5 -70.5t-10.5 -87t-66.5 -94.5t-94.5 -97.5l-95.5 -91t-69 -80t-16.5 -59.5q56 -134 154 14q40 60 74 144q15 37 49 -11
q17 -25 17 -34q-1 -53 -23.5 -123t-60.5 -128.5t-89 -76t-109 34.5q-90 24 -131.5 58.5t-41.5 96.5q0 44 19 89t50 82.5t70 74t80 68l79.5 61t68 55t47 48t15 42.5t-27.5 36q0 3 1 6.5t4 15t7.5 17t11.5 11.5t16 -1z" />
    <glyph glyph-name="Agrave" unicode="&#xc0;" horiz-adv-x="838" 
d="M846 1191q6 -11 43.5 -63t58.5 -90.5t10 -49.5q-14 -15 -93.5 33t-129.5 106q-25 26 8 58q31 31 68 28q24 -2 35 -22zM656 -212q-74 45 -74 218q0 142 50 347q-68 -7 -136 -20l-56 -85l-57.5 -86.5l-50.5 -75l-51 -74l-42.5 -58t-40.5 -50.5t-31 -31q-33 -27 -65 -27
q-44 0 -86.5 48.5t-63.5 96.5l-20 48q-20 47 -20 90q0 63 43 111.5t119.5 80t164 50.5t194.5 29l53.5 77.5l53.5 78l50.5 71.5l50.5 69.5l45.5 59t45.5 52.5l40 38.5t38.5 28.5t32.5 11q12 15 56 15q39 0 75.5 -11t36.5 -24q0 -4 -3 -7q-16 -23 -77.5 -160t-116.5 -285
l198 -8q14 -3 14 -16q0 -12 -12 -24t-28 -12q-30 0 -86 3.5t-82 3.5h-23q-113 -313 -113 -464q0 -47 12 -77v-1q0 -7 -7 -21t-19 -14q-7 0 -12 4zM107 5q97 76 254 293q-91 -29 -165.5 -70t-115 -78t-62 -65.5t-21.5 -42.5v-3q16 -57 56 -57q13 0 26 5.5t20.5 11t7.5 6.5z
M647 413q35 133 85 257q-57 -72 -185 -261q34 2 100 4z" />
    <glyph glyph-name="Aacute" unicode="&#xc1;" horiz-adv-x="838" 
d="M1047 1188q20 34 68 17q38 -15 50 -44q9 -21 -7 -37q-50 -58 -129.5 -106t-93.5 -33q-11 11 10 49.5t58.5 90.5t43.5 63zM656 -212q-74 45 -74 218q0 142 50 347q-68 -7 -136 -20l-56 -85l-57.5 -86.5l-50.5 -75l-51 -74l-42.5 -58t-40.5 -50.5t-31 -31q-33 -27 -65 -27
q-44 0 -86.5 48.5t-63.5 96.5l-20 48q-20 47 -20 90q0 63 43 111.5t119.5 80t164 50.5t194.5 29l53.5 77.5l53.5 78l50.5 71.5l50.5 69.5l45.5 59t45.5 52.5l40 38.5t38.5 28.5t32.5 11q12 15 56 15q39 0 75.5 -11t36.5 -24q0 -4 -3 -7q-16 -23 -77.5 -160t-116.5 -285
l198 -8q14 -3 14 -16q0 -12 -12 -24t-28 -12q-30 0 -86 3.5t-82 3.5h-23q-113 -313 -113 -464q0 -47 12 -77v-1q0 -7 -7 -21t-19 -14q-7 0 -12 4zM107 5q97 76 254 293q-91 -29 -165.5 -70t-115 -78t-62 -65.5t-21.5 -42.5v-3q16 -57 56 -57q13 0 26 5.5t20.5 11t7.5 6.5z
M647 413q35 133 85 257q-57 -72 -185 -261q34 2 100 4z" />
    <glyph glyph-name="Atilde" unicode="&#xc3;" horiz-adv-x="838" 
d="M795 1002q-5 -3 -18 10t-9 18l5 8l11.5 16t17.5 20.5t23 21.5t28.5 17.5t33 10.5t37.5 -1t42 -16q51 -29 91.5 -34t56.5 5l15 9q30 25 37 4q8 -24 -18 -56q-3 -4 -6 -7q-101 -101 -168 -54q-6 5 -24.5 18.5t-23 17t-19 12t-20.5 9t-18.5 2.5t-22 -2.5l-23 -11
t-28.5 -17.5zM656 -212q-74 45 -74 218q0 142 50 347q-68 -7 -136 -20l-56 -85l-57.5 -86.5l-50.5 -75l-51 -74l-42.5 -58t-40.5 -50.5t-31 -31q-33 -27 -65 -27q-44 0 -86.5 48.5t-63.5 96.5l-20 48q-20 47 -20 90q0 63 43 111.5t119.5 80t164 50.5t194.5 29l53.5 77.5
l53.5 78l50.5 71.5l50.5 69.5l45.5 59t45.5 52.5l40 38.5t38.5 28.5t32.5 11q12 15 56 15q39 0 75.5 -11t36.5 -24q0 -4 -3 -7q-16 -23 -77.5 -160t-116.5 -285l198 -8q14 -3 14 -16q0 -12 -12 -24t-28 -12q-30 0 -86 3.5t-82 3.5h-23q-113 -313 -113 -464q0 -47 12 -77v-1
q0 -7 -7 -21t-19 -14q-7 0 -12 4zM107 5q97 76 254 293q-91 -29 -165.5 -70t-115 -78t-62 -65.5t-21.5 -42.5v-3q16 -57 56 -57q13 0 26 5.5t20.5 11t7.5 6.5zM647 413q35 133 85 257q-57 -72 -185 -261q34 2 100 4z" />
    <glyph glyph-name="Adieresis" unicode="&#xc4;" horiz-adv-x="838" 
d="M838 982q-6 7 -6 23q0 29 23 57t49 28q24 0 41 -26q5 -8 5 -20q0 -29 -22.5 -59t-49.5 -30q-24 0 -40 27zM1008 982q-6 7 -6 23q0 29 23 57t49 28q24 0 41 -26q5 -8 5 -20q0 -29 -22.5 -59t-49.5 -30q-24 0 -40 27zM656 -212q-74 45 -74 218q0 142 50 347
q-68 -7 -136 -20l-56 -85l-57.5 -86.5l-50.5 -75l-51 -74l-42.5 -58t-40.5 -50.5t-31 -31q-33 -27 -65 -27q-44 0 -86.5 48.5t-63.5 96.5l-20 48q-20 47 -20 90q0 63 43 111.5t119.5 80t164 50.5t194.5 29l53.5 77.5l53.5 78l50.5 71.5l50.5 69.5l45.5 59t45.5 52.5l40 38.5
t38.5 28.5t32.5 11q12 15 56 15q39 0 75.5 -11t36.5 -24q0 -4 -3 -7q-16 -23 -77.5 -160t-116.5 -285l198 -8q14 -3 14 -16q0 -12 -12 -24t-28 -12q-30 0 -86 3.5t-82 3.5h-23q-113 -313 -113 -464q0 -47 12 -77v-1q0 -7 -7 -21t-19 -14q-7 0 -12 4zM107 5q97 76 254 293
q-91 -29 -165.5 -70t-115 -78t-62 -65.5t-21.5 -42.5v-3q16 -57 56 -57q13 0 26 5.5t20.5 11t7.5 6.5zM647 413q35 133 85 257q-57 -72 -185 -261q34 2 100 4z" />
    <glyph glyph-name="AE" unicode="&#xc6;" horiz-adv-x="1418" 
d="M1479 886q14 -14 8.5 -33.5t-24 -36t-34.5 -13.5q-219 43 -425 36q-155 -236 -241 -425q64 0 126 -2t93 -4l30 -2q21 -4 11 -26q-9 -24 -34 -26h-5q-132 10 -244 6q-114 -278 -34 -377q58 -71 193 -27q141 45 282 185q92 91 156 200q25 43 39 -8q-132 -221 -325 -350
q-170 -113 -309 -105q-130 9 -172 128q-44 125 23 343q-60 -9 -97 -16l-56 -85l-57.5 -86.5l-50.5 -75l-51 -74l-42.5 -58t-40.5 -50.5t-31 -31q-40 -31 -75.5 -26t-65 35.5t-50.5 65.5t-32 63l-12 28q-18 44 -20 83.5t13 70.5t40.5 58t64.5 47.5t83 37.5t98 29t108 20.5
t114 14.5l62 90l65 94l56 78.5l59.5 79t50.5 60.5q-100 -28 -174 -72q-25 -15 -61.5 36.5t-26.5 87.5q13 48 142.5 73t294 25t329.5 -18t249 -48zM107 5q97 76 254 293q-76 -24 -141 -57t-105.5 -64t-69 -60.5t-39.5 -49t-9 -28.5q8 -29 22.5 -43t29 -14t28 5t22 11t8.5 7z
M727 663q-63 -82 -180 -254l68 3q42 117 112 251z" />
    <glyph glyph-name="Ccedilla" unicode="&#xc7;" horiz-adv-x="522" 
d="M10 382q13 50 32.5 104.5t47.5 113t59.5 109.5t70.5 92t79.5 62.5t87 18t91.5 -38.5q27 15 63 22t70 3t53.5 -29.5t11.5 -70.5q-54 -220 -195 -393q-89 -109 -158 -135q-53 -20 -56 30q-4 73 103 253q3 7 16 3q5 -2 3 -6q-89 -177 -66 -210q11 -15 36 12q5 5 10 12v-1
q23 37 52 96.5t58 137.5t26.5 141.5t-48.5 81.5q-106 -67 -202 -221t-141 -325.5t-13 -281.5q34 -118 174 -19q112 79 237 249q27 37 50 73q14 21 38 20q19 -1 14 -17q-2 -3 -4 -7q-147 -227 -276.5 -343.5t-221.5 -118.5q-5 -7 -20 -26t-22 -30t-7 -19q-2 -29 44 0
q20 13 32 26q8 9 22.5 -4t24.5 -30l11 -17q-84 -51 -150 -45q-50 5 -48 42q2 42 73 108q-87 27 -106 174.5t44 403.5z" />
    <glyph glyph-name="Egrave" unicode="&#xc8;" horiz-adv-x="580" 
d="M596 1191q6 -11 43.5 -63t58.5 -90.5t10 -49.5q-14 -15 -93.5 33t-129.5 106q-25 26 8 58q31 31 68 28q24 -2 35 -22zM144 -90q41 -24 107 6t128 86t123.5 124.5t94 109.5t39.5 52q4 4 9 1t9.5 -9.5t3.5 -9.5q-174 -300 -365 -428q-145 -96 -245 -59q-91 35 -103 167
q-4 47 3 104q12 90 53.5 163t103.5 122t121.5 79.5t127.5 52.5q-139 16 -171 107q-28 80 36 175q69 103 200 152q96 35 201 29q116 -6 138 -61q25 -60 -79 -140q-91 -71 -264 -138q-5 1 -11.5 10t-9 16t0.5 10q80 47 175 142q93 93 73 112q-8 7 -34 0q-115 -32 -199 -126
q-79 -88 -71 -164q7 -76 109 -100l83 14q17 2 25 -16t3.5 -37t-16.5 -20q-151 -13 -285 -149q-105 -105 -141 -223q-34 -111 21 -150z" />
    <glyph glyph-name="Eacute" unicode="&#xc9;" horiz-adv-x="580" 
d="M657 1188q20 34 68 17q38 -15 50 -44q9 -21 -7 -37q-50 -58 -129.5 -106t-93.5 -33q-11 11 10 49.5t58.5 90.5t43.5 63zM144 -90q41 -24 107 6t128 86t123.5 124.5t94 109.5t39.5 52q4 4 9 1t9.5 -9.5t3.5 -9.5q-174 -300 -365 -428q-145 -96 -245 -59q-91 35 -103 167
q-4 47 3 104q12 90 53.5 163t103.5 122t121.5 79.5t127.5 52.5q-139 16 -171 107q-28 80 36 175q69 103 200 152q96 35 201 29q116 -6 138 -61q25 -60 -79 -140q-91 -71 -264 -138q-5 1 -11.5 10t-9 16t0.5 10q80 47 175 142q93 93 73 112q-8 7 -34 0q-115 -32 -199 -126
q-79 -88 -71 -164q7 -76 109 -100l83 14q17 2 25 -16t3.5 -37t-16.5 -20q-151 -13 -285 -149q-105 -105 -141 -223q-34 -111 21 -150z" />
    <glyph glyph-name="Edieresis" unicode="&#xcb;" horiz-adv-x="580" 
d="M498 1002q-6 7 -6 23q0 29 23 57t49 28q24 0 41 -26q5 -7 5 -20q0 -29 -22.5 -59t-49.5 -30q-24 0 -40 27zM668 1002q-6 7 -6 23q0 29 23 57t49 28q24 0 41 -26q5 -7 5 -20q0 -29 -22.5 -59t-49.5 -30q-24 0 -40 27zM144 -90q41 -24 107 6t128 86t123.5 124.5t94 109.5
t39.5 52q4 4 9 1t9.5 -9.5t3.5 -9.5q-174 -300 -365 -428q-145 -96 -245 -59q-91 35 -103 167q-4 47 3 104q12 90 53.5 163t103.5 122t121.5 79.5t127.5 52.5q-139 16 -171 107q-28 80 36 175q69 103 200 152q96 35 201 29q116 -6 138 -61q25 -60 -79 -140
q-91 -71 -264 -138q-5 1 -11.5 10t-9 16t0.5 10q80 47 175 142q93 93 73 112q-8 7 -34 0q-115 -32 -199 -126q-79 -88 -71 -164q7 -76 109 -100l83 14q17 2 25 -16t3.5 -37t-16.5 -20q-151 -13 -285 -149q-105 -105 -141 -223q-34 -111 21 -150z" />
    <glyph glyph-name="Igrave" unicode="&#xcc;" horiz-adv-x="557" 
d="M636 1191q6 -11 43.5 -63t58.5 -90.5t10 -49.5q-14 -15 -93.5 33t-129.5 106q-25 26 8 58q31 31 68 28q24 -2 35 -22zM99 31q21 -97 65.5 -137.5t88.5 -13t65 110.5q12 46 66 288t96 385t83 203q-71 -9 -141.5 -28.5t-136 -48.5t-106 -72.5t-40.5 -93.5q-168 140 -40 221
q100 63 326 71q179 6 269 -24q49 -17 37 -39q-17 -31 -116 -305.5t-165 -481.5q-28 -86 -68 -142.5t-83.5 -78.5t-90.5 -24t-89.5 17.5t-78.5 49t-61 67t-33 74.5q-6 28 100 13q46 -7 53 -11z" />
    <glyph glyph-name="Iacute" unicode="&#xcd;" horiz-adv-x="557" 
d="M727 1188q20 34 68 17q38 -15 50 -44q9 -21 -7 -37q-50 -58 -129.5 -106t-93.5 -33q-11 11 10 49.5t58.5 90.5t43.5 63zM99 31q21 -97 65.5 -137.5t88.5 -13t65 110.5q12 46 66 288t96 385t83 203q-71 -9 -141.5 -28.5t-136 -48.5t-106 -72.5t-40.5 -93.5
q-168 140 -40 221q100 63 326 71q179 6 269 -24q49 -17 37 -39q-17 -31 -116 -305.5t-165 -481.5q-28 -86 -68 -142.5t-83.5 -78.5t-90.5 -24t-89.5 17.5t-78.5 49t-61 67t-33 74.5q-6 28 100 13q46 -7 53 -11z" />
    <glyph glyph-name="Idieresis" unicode="&#xcf;" horiz-adv-x="557" 
d="M558 1002q-6 7 -6 23q0 29 23 57t49 28q24 0 41 -26q5 -7 5 -20q0 -29 -22.5 -59t-49.5 -30q-24 0 -40 27zM728 1002q-6 7 -6 23q0 29 23 57t49 28q24 0 41 -26q5 -7 5 -20q0 -29 -22.5 -59t-49.5 -30q-24 0 -40 27zM99 31q21 -97 65.5 -137.5t88.5 -13t65 110.5
q12 46 66 288t96 385t83 203q-71 -9 -141.5 -28.5t-136 -48.5t-106 -72.5t-40.5 -93.5q-168 140 -40 221q100 63 326 71q179 6 269 -24q49 -17 37 -39q-17 -31 -116 -305.5t-165 -481.5q-28 -86 -68 -142.5t-83.5 -78.5t-90.5 -24t-89.5 17.5t-78.5 49t-61 67t-33 74.5
q-6 28 100 13q46 -7 53 -11z" />
    <glyph glyph-name="Eth" unicode="&#xd0;" horiz-adv-x="759" 
d="M21 390q28 -4 105 0q64 239 138 334q29 18 107 14t78 -33q0 -3 -1 -4q-75 -113 -165 -296l48.5 6t36.5 5l13 1q28 0 20 -40q-8 -44 -38 -69q-11 -8 -22 -10q-20 -3 -107 0q-44 -102 -65 -184q59 29 130 57q9 -2 9.5 -14.5t-6.5 -15.5q-69 -25 -148 -99q-11 -75 6 -121
q-5 -28 -31 -31q-30 -4 -45 30q-7 15 -9 35q-75 -118 -30 -134q8 -3 21 -2q29 3 65.5 16.5t84.5 39.5t98.5 70.5t100.5 103t98.5 145t84.5 188.5q107 299 -31 388q-92 61 -263 12q-137 -38 -229 -116q-73 -63 -64 -111q-135 106 -74 197q53 77 220 112q176 37 364 3
t242 -199q50 -155 -27 -365q-74 -203 -227 -350q-181 -174 -384 -180q-32 -1 -63 2q-61 7 -97.5 32t-42.5 62t31 87.5t117 101.5q4 104 35 246q-55 3 -87 7t-31 8q3 8 6 20.5t5.5 20.5t5.5 15.5t7 11t10 3.5z" />
    <glyph glyph-name="Ntilde" unicode="&#xd1;" horiz-adv-x="779" 
d="M483 1069q-5 -3 -18 10t-9 18l5 7q5 8 11.5 17t17.5 20.5t23 21.5t28.5 17.5t33 10.5t37.5 -1t42 -16q51 -29 91.5 -34t56.5 4l15 10q30 25 37 4q8 -24 -18 -56q-3 -4 -6 -7q-101 -101 -168 -54q-6 5 -24.5 18.5t-23 17t-19 12t-20.5 9t-18.5 2.5t-22 -2.5l-23 -11
t-28.5 -17.5zM591 -141q-44 -46 -79 0q-46 60 -39 210q11 238 151 502q-207 -276 -452 -746q-41 -78 -73 -45q-38 41 -33 200q8 264 131 585q53 140 125 275q-69 -11 -133 -31t-123 -49t-95 -70.5t-36 -88.5q-171 128 -43 212q100 65 331 82q183 14 271 -13q36 -11 36 -26
q0 -4 -1 -5q-18 -26 -83 -155t-149.5 -329t-120.5 -340q200 470 431 684q125 115 215 119q57 2 66 -41q1 -7 1 -14q0 -4 -1 -5q-14 -19 -65.5 -115.5l-115 -226.5t-112 -270.5t-47.5 -220.5q38 40 95.5 106l99 115.5t42.5 50.5q6 4 12 -5t7 -16q-175 -289 -213 -329z" />
    <glyph glyph-name="Ograve" unicode="&#xd2;" horiz-adv-x="689" 
d="M576 1191q6 -11 43.5 -63t58.5 -90.5t10 -49.5q-14 -15 -93.5 33t-129.5 106q-25 26 8 58q31 31 68 28q24 -2 35 -22zM726 245l-41 -90q84 47 182 159q3 1 6.5 3t12 4.5t9.5 -2t-2 -14.5q-21 -44 -93 -115t-154 -109q-61 -108 -130.5 -182t-133.5 -108t-126 -37.5
t-111 22.5t-85 79t-52 125.5t-8 169t43 202.5q79 242 198 339q49 126 162 182q110 54 216 15q111 -41 155 -164q65 -184 -48 -479zM573 677v-7.5t-3.5 -14.5t-9.5 -16t-21 -6.5t-35 9.5q-85 41 -163 -29q-12 -42 -9 -90q8 -133 55.5 -245t128.5 -144q49 91 96 211
q104 269 38 387q-39 69 -121 60q-54 -6 -103 -47q38 -6 75 -23t55 -31zM174 318q-83 -229 -48 -368q23 -91 89 -100q84 -11 189 113q34 40 68 94q-158 40 -238 316q-1 5 -13 60q-23 -51 -47 -115z" />
    <glyph glyph-name="Oacute" unicode="&#xd3;" horiz-adv-x="689" 
d="M647 1188q20 34 68 17q38 -15 50 -44q9 -21 -7 -37q-50 -58 -129.5 -106t-93.5 -33q-11 11 10 49.5t58.5 90.5t43.5 63zM726 245l-41 -90q84 47 182 159q3 1 6.5 3t12 4.5t9.5 -2t-2 -14.5q-21 -44 -93 -115t-154 -109q-61 -108 -130.5 -182t-133.5 -108t-126 -37.5
t-111 22.5t-85 79t-52 125.5t-8 169t43 202.5q79 242 198 339q49 126 162 182q110 54 216 15q111 -41 155 -164q65 -184 -48 -479zM573 677v-7.5t-3.5 -14.5t-9.5 -16t-21 -6.5t-35 9.5q-85 41 -163 -29q-12 -42 -9 -90q8 -133 55.5 -245t128.5 -144q49 91 96 211
q104 269 38 387q-39 69 -121 60q-54 -6 -103 -47q38 -6 75 -23t55 -31zM174 318q-83 -229 -48 -368q23 -91 89 -100q84 -11 189 113q34 40 68 94q-158 40 -238 316q-1 5 -13 60q-23 -51 -47 -115z" />
    <glyph glyph-name="Otilde" unicode="&#xd5;" horiz-adv-x="689" 
d="M485 1002q-5 -3 -18 10t-9 18l5 8l11.5 16t17.5 20.5t23 21.5t28.5 17.5t33 10.5t37.5 -1t42 -16q51 -29 91.5 -34t56.5 5l15 9q30 25 37 4q8 -24 -18 -56q-3 -4 -6 -7q-101 -101 -168 -54q-6 5 -24.5 18.5t-23 17t-19 12t-20.5 9t-18.5 2.5t-22 -2.5l-23 -11
t-28.5 -17.5zM726 245l-41 -90q84 47 182 159q3 1 6.5 3t12 4.5t9.5 -2t-2 -14.5q-21 -44 -93 -115t-154 -109q-61 -108 -130.5 -182t-133.5 -108t-126 -37.5t-111 22.5t-85 79t-52 125.5t-8 169t43 202.5q79 242 198 339q49 126 162 182q110 54 216 15q111 -41 155 -164
q65 -184 -48 -479zM573 677v-7.5t-3.5 -14.5t-9.5 -16t-21 -6.5t-35 9.5q-85 41 -163 -29q-12 -42 -9 -90q8 -133 55.5 -245t128.5 -144q49 91 96 211q104 269 38 387q-39 69 -121 60q-54 -6 -103 -47q38 -6 75 -23t55 -31zM174 318q-83 -229 -48 -368q23 -91 89 -100
q84 -11 189 113q34 40 68 94q-158 40 -238 316q-1 5 -13 60q-23 -51 -47 -115z" />
    <glyph glyph-name="Odieresis" unicode="&#xd6;" horiz-adv-x="689" 
d="M548 1002q-6 7 -6 23q0 29 23 57t49 28q24 0 41 -26q5 -7 5 -20q0 -29 -22.5 -59t-49.5 -30q-24 0 -40 27zM718 1002q-6 7 -6 23q0 29 23 57t49 28q24 0 41 -26q5 -7 5 -20q0 -29 -22.5 -59t-49.5 -30q-24 0 -40 27zM726 245l-41 -90q84 47 182 159q3 1 6.5 3t12 4.5
t9.5 -2t-2 -14.5q-21 -44 -93 -115t-154 -109q-61 -108 -130.5 -182t-133.5 -108t-126 -37.5t-111 22.5t-85 79t-52 125.5t-8 169t43 202.5q79 242 198 339q49 126 162 182q110 54 216 15q111 -41 155 -164q65 -184 -48 -479zM573 677v-7.5t-3.5 -14.5t-9.5 -16t-21 -6.5
t-35 9.5q-85 41 -163 -29q-12 -42 -9 -90q8 -133 55.5 -245t128.5 -144q49 91 96 211q104 269 38 387q-39 69 -121 60q-54 -6 -103 -47q38 -6 75 -23t55 -31zM174 318q-83 -229 -48 -368q23 -91 89 -100q84 -11 189 113q34 40 68 94q-158 40 -238 316q-1 5 -13 60
q-23 -51 -47 -115z" />
    <glyph glyph-name="Oslash" unicode="&#xd8;" horiz-adv-x="776" 
d="M154 -277q-23 -16 -79 -12q-49 4 -47 23q0 4 3 9l45 90q-65 79 -76.5 209t43.5 310q79 242 198 339q46 118 147.5 173.5t203.5 30.5l38 83q37 11 84 -10q43 -20 29 -43q-13 -19 -46 -84q54 -48 80.5 -125t16 -199.5t-67.5 -271.5l-41 -90q84 47 182 159q3 1 6.5 3t12 4.5
t9.5 -2t-2 -14.5q-21 -44 -93 -115t-154 -109q-75 -131 -161 -211.5t-162.5 -104.5t-144.5 -2zM612 345q106 275 34 392l-235 -505q45 -74 105 -98q49 91 96 211zM174 318q-88 -241 -45 -379l152 305q-28 61 -47 129q-1 5 -13 60q-23 -51 -47 -115zM472 57q-62 14 -112 67
q-64 -137 -135 -274q52 -2 116.5 50t130.5 157zM332 523q5 -73 19 -135l128 264q-71 20 -138 -39q-12 -42 -9 -90zM426 745q41 -6 84 -27q24 50 35 75q-60 0 -119 -48z" />
    <glyph glyph-name="Ugrave" unicode="&#xd9;" horiz-adv-x="749" 
d="M486 1191q6 -11 43.5 -63t58.5 -90.5t10 -49.5q-14 -15 -93.5 33t-129.5 106q-25 26 8 58q31 31 68 28q24 -2 35 -22zM630 885q-3 9 29 29q64 40 119 36q73 -5 61 -104q-23 -181 -81.5 -350.5t-134.5 -294t-161 -216.5t-165.5 -134.5t-142.5 -32.5q-86 21 -115 141
t-4.5 273.5t93 317.5t161.5 268q-67 -13 -127 -33.5t-114 -48.5t-86 -67.5t-32 -83.5q-167 129 -39 213q100 66 326 82q184 13 275 -15q40 -12 40 -29q-129 -119 -246 -364.5t-136 -433.5q2 -143 60 -136q63 7 166 168q121 190 202 428q90 266 52 387z" />
    <glyph glyph-name="Uacute" unicode="&#xda;" horiz-adv-x="749" 
d="M607 1188q20 34 68 17q38 -15 50 -44q9 -21 -7 -37q-50 -58 -129.5 -106t-93.5 -33q-11 11 10 49.5t58.5 90.5t43.5 63zM630 885q-3 9 29 29q64 40 119 36q73 -5 61 -104q-23 -181 -81.5 -350.5t-134.5 -294t-161 -216.5t-165.5 -134.5t-142.5 -32.5q-86 21 -115 141
t-4.5 273.5t93 317.5t161.5 268q-67 -13 -127 -33.5t-114 -48.5t-86 -67.5t-32 -83.5q-167 129 -39 213q100 66 326 82q184 13 275 -15q40 -12 40 -29q-129 -119 -246 -364.5t-136 -433.5q2 -143 60 -136q63 7 166 168q121 190 202 428q90 266 52 387z" />
    <glyph glyph-name="Udieresis" unicode="&#xdc;" horiz-adv-x="749" 
d="M388 1002q-6 7 -6 23q0 29 23 57t49 28q24 0 41 -26q5 -7 5 -20q0 -29 -22.5 -59t-49.5 -30q-24 0 -40 27zM558 1002q-6 7 -6 23q0 29 23 57t49 28q24 0 41 -26q5 -7 5 -20q0 -29 -22.5 -59t-49.5 -30q-24 0 -40 27zM630 885q-3 9 29 29q64 40 119 36q73 -5 61 -104
q-23 -181 -81.5 -350.5t-134.5 -294t-161 -216.5t-165.5 -134.5t-142.5 -32.5q-86 21 -115 141t-4.5 273.5t93 317.5t161.5 268q-67 -13 -127 -33.5t-114 -48.5t-86 -67.5t-32 -83.5q-167 129 -39 213q100 66 326 82q184 13 275 -15q40 -12 40 -29q-129 -119 -246 -364.5
t-136 -433.5q2 -143 60 -136q63 7 166 168q121 190 202 428q90 266 52 387z" />
    <glyph glyph-name="Yacute" unicode="&#xdd;" 
d="M717 1188q20 34 68 17q38 -15 50 -44q9 -21 -7 -37q-50 -58 -129.5 -106t-93.5 -33q-11 11 10 49.5t58.5 90.5t43.5 63zM559 840q-72 -67 -154 -212.5t-136 -303t-50 -249.5q82 91 311 405q105 284 195 424q10 12 95 7q103 -6 104 -31q0 -5 -4 -10q-203 -240 -483 -1006
q60 -4 126 -11t137 -15.5t99 -11.5q30 -3 -8 -40q-50 -48 -127 -77q-59 -22 -96 -12q-91 26 -183 46q-57 -159 -191 -217q-107 -47 -211 -11q-89 30 -116 103q-18 47 -2 102q48 163 455 150q26 72 81.5 238.5l72.5 216.5q-198 -303 -220 -328q-48 -48 -93 -3q-53 53 -58 184
q-7 208 116 439q60 112 148 218q-74 -11 -146.5 -32t-140 -51.5t-109 -74t-41.5 -92.5q-174 143 -20 225q118 64 370 72q185 7 259 -18q31 -11 20 -24zM-25 -276q-5 -39 32 -84q50 -60 114 -47q88 17 158 171q-295 50 -304 -40z" />
    <glyph glyph-name="Thorn" unicode="&#xde;" horiz-adv-x="469" 
d="M231 644q0 -1 1 -1q3 10 40.5 15.5t72.5 -1t31 -25.5q-1 -5 -10 -21l-2 -3l-27 -41q-35 -56 -80 -155q154 81 190 -12q30 -75 -26 -223q-55 -144 -143 -231q-103 -102 -181 -44q-13 10 -25 25l-3 3q-65 -197 -64 -234l-22 -3q-55 0 -58 30q-6 77 37 261t119.5 380
t149.5 280zM106 -37q46 -51 106 43q56 87 81 214q24 120 -11 141q-17 9 -47 -11q-1 -1 -3 -2l-3 -1.5t-2 -0.5q-74 -171 -141 -364q6 -5 20 -19z" />
    <glyph glyph-name="germandbls" unicode="&#xdf;" horiz-adv-x="752" 
d="M522 807q-22 -6 -54 -54l-1 -2q-16 -24 -79.5 -160.5t-137.5 -315t-119 -353t-18 -244.5q2 0 -2.5 -12t-14 -20t-21.5 0q-60 37 -63.5 169t35.5 294t95.5 321t113.5 265q61 118 132.5 167.5t144 32.5t146.5 -92q78 -87 64 -181t-87 -173t-165 -106q20 -20 34 -48
q82 46 176 92l14 -29l-174 -103q32 -108 -14 -236q-41 -117 -116 -162q-83 -50 -166 21q-86 71 -33.5 164.5t248.5 213.5q-10 49 -39 77q-59 0 -106 34l-7 5l-2 1q-20 18 9 24q15 2 43 1q27 -1 51 -8q86 39 166 152q79 112 83 196q4 80 -76 79q-26 0 -60 -10zM303 11
q37 -50 87 -1q49 48 68 140q6 29 6 57q-106 -69 -146.5 -115.5t-14.5 -80.5z" />
    <glyph glyph-name="agrave" unicode="&#xe0;" horiz-adv-x="461" 
d="M215 705q6 -11 43.5 -63t58.5 -90.5t10 -49.5q-14 -15 -93.5 33t-129.5 106q-25 26 8 58q31 31 68 28q24 -2 35 -22zM543 272l-238 -359q-12 -17 -47.5 -27.5t-51.5 8.5q-12 21 2 163q-76 -119 -98 -148t-52 -37t-55 9t-31 55q-10 76 12 189.5t48 163.5q34 66 66.5 101
t72.5 33q49 -2 80.5 -11.5t42.5 -22.5t14 -28.5t-6 -30.5q35 10 66.5 5t48.5 -16q31 -18 -48 -102q-45 -102 -61 -179q31 27 79.5 86l86 107.5t40.5 51.5q8 6 14.5 3.5t10.5 -8.5zM80 -12q6 -17 27 6.5t62.5 86.5t52.5 78q13 73 30 117q13 82 -14 75q-31 -7 -84 -100
q-70 -123 -78 -214q-3 -30 4 -49z" />
    <glyph glyph-name="aacute" unicode="&#xe1;" horiz-adv-x="461" 
d="M365 705q20 34 68 17q38 -15 50 -44q9 -21 -7 -37q-50 -58 -129.5 -106t-93.5 -33q-11 11 10 49.5t58.5 90.5t43.5 63zM543 272l-238 -359q-12 -17 -47.5 -27.5t-51.5 8.5q-12 21 2 163q-76 -119 -98 -148t-52 -37t-55 9t-31 55q-10 76 12 189.5t48 163.5q34 66 66.5 101
t72.5 33q49 -2 80.5 -11.5t42.5 -22.5t14 -28.5t-6 -30.5q35 10 66.5 5t48.5 -16q31 -18 -48 -102q-45 -102 -61 -179q31 27 79.5 86l86 107.5t40.5 51.5q8 6 14.5 3.5t10.5 -8.5zM80 -12q6 -17 27 6.5t62.5 86.5t52.5 78q13 73 30 117q13 82 -14 75q-31 -7 -84 -100
q-70 -123 -78 -214q-3 -30 4 -49z" />
    <glyph glyph-name="acircumflex" unicode="&#xe2;" horiz-adv-x="461" 
d="M406 506q12 -14 3.5 -27t-28.5 -12q-9 1 -56.5 30.5t-64.5 51.5q-58 -27 -99 -60q-21 -15 -65 -11q-25 3 -23 13q0 2 3 5q2 1 33.5 29.5l70.5 66t53 55.5q15 14 36.5 14.5t28.5 -14.5q92 -124 108 -141zM543 272l-238 -359q-12 -17 -47.5 -27.5t-51.5 8.5q-12 21 2 163
q-76 -119 -98 -148t-52 -37t-55 9t-31 55q-10 76 12 189.5t48 163.5q34 66 66.5 101t72.5 33q49 -2 80.5 -11.5t42.5 -22.5t14 -28.5t-6 -30.5q35 10 66.5 5t48.5 -16q31 -18 -48 -102q-45 -102 -61 -179q31 27 79.5 86l86 107.5t40.5 51.5q8 6 14.5 3.5t10.5 -8.5zM80 -12
q6 -17 27 6.5t62.5 86.5t52.5 78q13 73 30 117q13 82 -14 75q-31 -7 -84 -100q-70 -123 -78 -214q-3 -30 4 -49z" />
    <glyph glyph-name="atilde" unicode="&#xe3;" horiz-adv-x="461" 
d="M82 531q-5 -3 -18 10t-9 18l5 7q5 8 11.5 17t17.5 20.5t23 21.5t28.5 17.5t33 10.5t37.5 -1t42 -16q51 -29 91.5 -34t55.5 4l16 10q30 25 37 4q8 -24 -18 -56q-3 -4 -6 -7q-101 -101 -168 -54q-6 5 -24.5 18.5t-23 17t-19 12t-20.5 9t-18.5 2.5t-22 -2.5l-23 -11
t-28.5 -17.5zM543 272l-238 -359q-12 -17 -47.5 -27.5t-51.5 8.5q-12 21 2 163q-76 -119 -98 -148t-52 -37t-55 9t-31 55q-10 76 12 189.5t48 163.5q34 66 66.5 101t72.5 33q49 -2 80.5 -11.5t42.5 -22.5t14 -28.5t-6 -30.5q35 10 66.5 5t48.5 -16q31 -18 -48 -102
q-45 -102 -61 -179q31 27 79.5 86l86 107.5t40.5 51.5q8 6 14.5 3.5t10.5 -8.5zM80 -12q6 -17 27 6.5t62.5 86.5t52.5 78q13 73 30 117q13 82 -14 75q-31 -7 -84 -100q-70 -123 -78 -214q-3 -30 4 -49z" />
    <glyph glyph-name="adieresis" unicode="&#xe4;" horiz-adv-x="461" 
d="M155 519q-6 7 -6 23q0 29 23 57t49 28q24 0 41 -26q5 -7 5 -20q0 -29 -22.5 -59t-49.5 -30q-24 0 -40 27zM325 519q-6 7 -6 23q0 29 23 57t49 28q24 0 41 -26q5 -7 5 -20q0 -29 -22.5 -59t-49.5 -30q-24 0 -40 27zM543 272l-238 -359q-12 -17 -47.5 -27.5t-51.5 8.5
q-12 21 2 163q-76 -119 -98 -148t-52 -37t-55 9t-31 55q-10 76 12 189.5t48 163.5q34 66 66.5 101t72.5 33q49 -2 80.5 -11.5t42.5 -22.5t14 -28.5t-6 -30.5q35 10 66.5 5t48.5 -16q31 -18 -48 -102q-45 -102 -61 -179q31 27 79.5 86l86 107.5t40.5 51.5q8 6 14.5 3.5
t10.5 -8.5zM80 -12q6 -17 27 6.5t62.5 86.5t52.5 78q13 73 30 117q13 82 -14 75q-31 -7 -84 -100q-70 -123 -78 -214q-3 -30 4 -49z" />
    <glyph glyph-name="ccedilla" unicode="&#xe8;" horiz-adv-x="375" 
d="M-13 -72q-19 32 -27 88t-2 119.5t25 126t53.5 107.5t84 64.5t116.5 -3.5q24 11 54 13t52.5 -13.5t16.5 -49.5q-9 -48 -37 -96.5t-58 -76.5t-47 -24q-1 1 -3.5 2t-7.5 5t-7.5 8t-2.5 11t6 15q11 15 23.5 43.5t19 64t-9.5 55.5q-91 -60 -134.5 -189.5t-11.5 -209.5
q13 -20 33.5 -21t44 15.5t49 40.5t51.5 55l47.5 58.5l42 52t30.5 33.5q8 7 16 6.5t14 -4.5l6 -5q-6 -7 -41.5 -59l-70 -100t-85.5 -100t-93 -74q4 -17 -26 -55t-30 -51q-2 -28 30 -14q18 8 31 22q8 9 22.5 -4t24.5 -30l11 -17q-84 -51 -150 -45q-50 5 -48 42q2 42 73 108
q9 9 11 28q-58 -6 -96 58z" />
    <glyph glyph-name="eacute" unicode="&#xe9;" horiz-adv-x="375" 
d="M315 705q20 34 68 17q38 -15 50 -44q9 -21 -7 -37q-50 -58 -129.5 -106t-93.5 -33q-11 11 10 49.5t58.5 90.5t43.5 63zM222 39l182 206q8 7 14 4.5t10 -9.5l4 -6q-135 -207 -206 -290q-36 -42 -72.5 -59t-69.5 -3t-51 62q-24 63 -31 124t1 107t23.5 87.5t35.5 70t38 49
t30 30.5l12 10q35 27 76 26t66 -14t43 -29q69 -27 29 -98q-47 -84 -247 -216q-6 -38 -0.5 -64t17.5 -38t37.5 0t58.5 50zM218 338q-66 -70 -98 -194q129 118 131 176q0 23 -19 23q-7 -1 -14 -5z" />
    <glyph glyph-name="ecircumflex" unicode="&#xea;" horiz-adv-x="375" 
d="M406 506q12 -14 3.5 -27t-28.5 -12q-9 1 -56.5 30.5t-64.5 51.5q-58 -27 -99 -60q-21 -15 -65 -11q-25 3 -23 13q0 2 3 5q2 1 33.5 29.5l70.5 66t53 55.5q15 14 36.5 14.5t28.5 -14.5q92 -124 108 -141zM222 39l182 206q8 7 14 4.5t10 -9.5l4 -6q-135 -207 -206 -290
q-36 -42 -72.5 -59t-69.5 -3t-51 62q-24 63 -31 124t1 107t23.5 87.5t35.5 70t38 49t30 30.5l12 10q35 27 76 26t66 -14t43 -29q69 -27 29 -98q-47 -84 -247 -216q-6 -38 -0.5 -64t17.5 -38t37.5 0t58.5 50zM218 338q-66 -70 -98 -194q129 118 131 176q0 23 -19 23
q-7 -1 -14 -5z" />
    <glyph glyph-name="edieresis" unicode="&#xeb;" horiz-adv-x="375" 
d="M155 519q-6 7 -6 23q0 29 23 57t49 28q24 0 41 -26q5 -7 5 -20q0 -29 -22.5 -59t-49.5 -30q-24 0 -40 27zM325 519q-6 7 -6 23q0 29 23 57t49 28q24 0 41 -26q5 -7 5 -20q0 -29 -22.5 -59t-49.5 -30q-24 0 -40 27zM222 39l182 206q8 7 14 4.5t10 -9.5l4 -6
q-135 -207 -206 -290q-36 -42 -72.5 -59t-69.5 -3t-51 62q-24 63 -31 124t1 107t23.5 87.5t35.5 70t38 49t30 30.5l12 10q35 27 76 26t66 -14t43 -29q69 -27 29 -98q-47 -84 -247 -216q-6 -38 -0.5 -64t17.5 -38t37.5 0t58.5 50zM218 338q-66 -70 -98 -194q129 118 131 176
q0 23 -19 23q-7 -1 -14 -5z" />
    <glyph glyph-name="igrave" unicode="&#xec;" horiz-adv-x="280" 
d="M103 458q26 7 64 7q78 0 78 -33q0 -25 -51 -80q-110 -217 -113 -319v-4q0 -18 11 -18q15 0 53.5 40t74.5 87.5l68 90.5t33 44q4 4 9 4q12 0 20 -15q-1 -5 -53.5 -84t-124.5 -174.5t-111 -125.5q-57 -44 -77 38q-24 94 11 265q36 177 108 277zM105 705q6 -11 43.5 -63
t58.5 -90.5t10 -49.5q-14 -15 -93.5 33t-129.5 106q-25 26 8 58q31 31 68 28q24 -2 35 -22z" />
    <glyph glyph-name="iacute" unicode="&#xed;" horiz-adv-x="280" 
d="M103 453q26 7 64 7q78 0 78 -33q0 -25 -51 -80q-110 -217 -113 -319v-4q0 -18 11 -18q15 0 53.5 40t74.5 87.5l68 90.5t33 44q4 4 9 4q12 0 20 -15q-1 -5 -53.5 -84t-124.5 -174.5t-111 -125.5q-57 -44 -77 38q-24 94 11 265q36 177 108 277zM265 705q20 34 68 17
q38 -15 50 -44q9 -21 -7 -37q-50 -58 -129.5 -106t-93.5 -33q-11 11 10 49.5t58.5 90.5t43.5 63z" />
    <glyph glyph-name="icircumflex" unicode="&#xee;" horiz-adv-x="286" 
d="M103 458q26 7 64 7q78 0 78 -33q0 -25 -51 -80q-110 -217 -113 -319v-4q0 -18 11 -18q15 0 53.5 40t74.5 87.5l68 90.5t33 44q4 4 9 4q12 0 20 -15q-1 -4 -54 -83t-125 -174.5t-110 -126.5q-25 -13 -36 -13q-26 0 -39.5 41.5t-13.5 109.5q0 118 36 250t95 192zM356 512
q12 -14 3.5 -27t-28.5 -12q-9 1 -56.5 30.5t-64.5 51.5q-58 -27 -99 -60q-21 -15 -65 -11q-25 3 -23 13q0 2 3 5q2 1 33.5 29.5l70.5 66t53 55.5q15 14 36.5 14.5t28.5 -14.5q92 -124 108 -141z" />
    <glyph glyph-name="idieresis" unicode="&#xef;" horiz-adv-x="286" 
d="M103 451q26 7 64 7q78 0 78 -33q0 -25 -51 -80q-110 -217 -113 -319v-4q0 -18 11 -18q15 0 53.5 40t74.5 87.5l68 90.5t33 44q4 4 9 4q12 0 20 -15q-1 -4 -54 -83t-125 -174.5t-110 -126.5q-25 -13 -36 -13q-26 0 -39.5 41.5t-13.5 109.5q0 118 36 250t95 192zM75 528
q-6 7 -6 23q0 29 23 57t49 28q24 0 41 -26q5 -8 5 -20q0 -29 -22.5 -59t-49.5 -30q-24 0 -40 27zM245 528q-6 7 -6 23q0 29 23 57t49 28q24 0 41 -26q5 -8 5 -20q0 -29 -22.5 -59t-49.5 -30q-24 0 -40 27z" />
    <glyph glyph-name="ntilde" unicode="&#xf1;" horiz-adv-x="437" 
d="M82 531q-5 -3 -18 10t-9 18l5 7q5 8 11.5 17t17.5 20.5t23 21.5t28.5 17.5t33 10.5t37.5 -1t42 -16q51 -29 91.5 -34t55.5 4l16 10q30 25 37 4q8 -24 -18 -56q-3 -4 -6 -7q-101 -101 -168 -54q-6 5 -24.5 18.5t-23 17t-19 12t-20.5 9t-18.5 2.5t-22 -2.5l-23 -11
t-28.5 -17.5zM87 453q21 8 53.5 9.5t60.5 -7t28 -28.5q0 -25 -52 -81q-83 -167 -105 -292q31 90 85 185t101 128l6 6q9 11 47 14.5t72.5 -3.5t33.5 -23q-2 -29 -62 -93q-64 -135 -74 -228q35 33 85 90.5l86.5 101.5t39.5 46q9 7 17 1.5t9 -12.5q0 -2 -41 -70t-100 -156
t-96 -125q-99 -72 -104 81q-2 79 19 191q-90 -173 -117 -284q0 -1 1 -2q1 0 -3.5 -4.5t-12.5 -10.5t-17 -12t-19.5 -10.5t-18.5 -4.5q-3 0 -8.5 4t-13.5 15.5t-15 29t-12 48t-5 68.5q0 177 132 428z" />
    <glyph glyph-name="ograve" unicode="&#xf2;" horiz-adv-x="459" 
d="M215 705q6 -11 43.5 -63t58.5 -90.5t10 -49.5q-14 -15 -93.5 33t-129.5 106q-25 26 8 58q31 31 68 28q24 -2 35 -22zM24 -116q-35 25 -42 101t10 159.5t59.5 159t96.5 97.5q75 30 155 12q75 -17 82 -66q5 -27 -14 -59q24 -53 -28 -169q91 61 167 151q7 6 14 2t9 -11
q-142 -210 -254 -257q-116 -193 -226 -128q-18 -2 -29 8zM165 260q-33 -64 -35 -111.5t16.5 -68t49.5 -21.5q35 90 55 208q5 61 -24 58q-27 -2 -57 -56q-3 -5 -5 -9zM89 -62q12 -11 34 6t44 54q-52 18 -85 68q-7 -32 -9.5 -50.5t0.5 -42t16 -35.5z" />
    <glyph glyph-name="oacute" unicode="&#xf3;" horiz-adv-x="422" 
d="M335 705q20 34 68 17q38 -15 50 -44q9 -21 -7 -37q-50 -58 -129.5 -106t-93.5 -33q-11 11 10 49.5t58.5 90.5t43.5 63zM-3 -116q-35 25 -42 101t10 159.5t59.5 159t96.5 97.5q75 30 155 12q75 -17 82 -66q5 -27 -14 -59q24 -53 -28 -169q91 61 167 151q7 6 14 2t9 -11
q-142 -210 -254 -257q-116 -193 -226 -128q-18 -2 -29 8zM138 260q-33 -64 -35 -111.5t16.5 -68t49.5 -21.5q35 90 55 208q5 61 -24 58q-27 -2 -57 -56q-3 -5 -5 -9zM62 -62q12 -11 34 6t44 54q-52 18 -85 68q-7 -32 -9.5 -50.5t0.5 -42t16 -35.5z" />
    <glyph glyph-name="ocircumflex" unicode="&#xf4;" horiz-adv-x="459" 
d="M406 506q12 -14 3.5 -27t-28.5 -12q-9 1 -56.5 30.5t-64.5 51.5q-58 -27 -99 -60q-21 -15 -65 -11q-25 3 -23 13q0 2 3 5q2 1 33.5 29.5l70.5 66t53 55.5q15 14 36.5 14.5t28.5 -14.5q92 -124 108 -141zM24 -116q-35 25 -42 101t10 159.5t59.5 159t96.5 97.5
q75 30 155 12q75 -17 82 -66q5 -27 -14 -59q24 -53 -28 -169q91 61 167 151q7 6 14 2t9 -11q-142 -210 -254 -257q-116 -193 -226 -128q-18 -2 -29 8zM165 260q-33 -64 -35 -111.5t16.5 -68t49.5 -21.5q35 90 55 208q5 61 -24 58q-27 -2 -57 -56q-3 -5 -5 -9zM89 -62
q12 -11 34 6t44 54q-52 18 -85 68q-7 -32 -9.5 -50.5t0.5 -42t16 -35.5z" />
    <glyph glyph-name="otilde" unicode="&#xf5;" horiz-adv-x="459" 
d="M82 531q-5 -3 -18 10t-9 18l5 7q5 8 11.5 17t17.5 20.5t23 21.5t28.5 17.5t33 10.5t37.5 -1t42 -16q51 -29 91.5 -34t55.5 4l16 10q30 25 37 4q8 -24 -18 -56q-3 -4 -6 -7q-101 -101 -168 -54q-6 5 -24.5 18.5t-23 17t-19 12t-20.5 9t-18.5 2.5t-22 -2.5l-23 -11
t-28.5 -17.5zM24 -116q-35 25 -42 101t10 159.5t59.5 159t96.5 97.5q75 30 155 12q75 -17 82 -66q5 -27 -14 -59q24 -53 -28 -169q91 61 167 151q7 6 14 2t9 -11q-142 -210 -254 -257q-116 -193 -226 -128q-18 -2 -29 8zM165 260q-33 -64 -35 -111.5t16.5 -68t49.5 -21.5
q35 90 55 208q5 61 -24 58q-27 -2 -57 -56q-3 -5 -5 -9zM89 -62q12 -11 34 6t44 54q-52 18 -85 68q-7 -32 -9.5 -50.5t0.5 -42t16 -35.5z" />
    <glyph glyph-name="odieresis" unicode="&#xf6;" horiz-adv-x="459" 
d="M155 519q-6 7 -6 23q0 29 23 57t49 28q24 0 41 -26q5 -7 5 -20q0 -29 -22.5 -59t-49.5 -30q-24 0 -40 27zM325 519q-6 7 -6 23q0 29 23 57t49 28q24 0 41 -26q5 -7 5 -20q0 -29 -22.5 -59t-49.5 -30q-24 0 -40 27zM24 -116q-35 25 -42 101t10 159.5t59.5 159t96.5 97.5
q75 30 155 12q75 -17 82 -66q5 -27 -14 -59q24 -53 -28 -169q91 61 167 151q7 6 14 2t9 -11q-142 -210 -254 -257q-116 -193 -226 -128q-18 -2 -29 8zM165 260q-33 -64 -35 -111.5t16.5 -68t49.5 -21.5q35 90 55 208q5 61 -24 58q-27 -2 -57 -56q-3 -5 -5 -9zM89 -62
q12 -11 34 6t44 54q-52 18 -85 68q-7 -32 -9.5 -50.5t0.5 -42t16 -35.5z" />
    <glyph glyph-name="divide" unicode="&#xf7;" horiz-adv-x="250" 
d="M8 193q14 -2 35 -2.5t45 -0.5t51 0.5t54 1.5l52.5 2t47.5 2t38.5 2t26.5 2h10q28 0 9 -42q-20 -44 -57 -68q-12 -7 -22 -9q-29 -4 -188.5 4.5t-165.5 16.5q-19 25 4.5 58t59.5 33zM51 -90q-15 18 -11.5 40t16 40.5t30.5 33.5q45 36 86 -18q16 -23 3 -58t-39 -56
q-44 -36 -85 18zM103 268q-18 31 -6 60.5t41 52.5q46 37 86 -18q16 -23 3.5 -57.5t-40.5 -56.5q-43 -34 -84 19z" />
    <glyph glyph-name="ugrave" unicode="&#xf9;" horiz-adv-x="500" 
d="M225 705q6 -11 43.5 -63t58.5 -90.5t10 -49.5q-14 -15 -93.5 33t-129.5 106q-25 26 8 58q31 31 68 28q24 -2 35 -22zM314 17q34 29 88.5 89l98 111t44.5 52q9 8 16.5 3.5t9.5 -11.5q-227 -358 -306 -358q-45 1 -49 128v9q-66 -129 -135 -146q-55 -14 -83 49q-39 88 6 247
q27 96 84 199q4 17 55.5 21t84.5 -17q17 -12 -36 -87q-111 -245 -99 -313q31 13 135 135q19 85 96 257q6 17 52 19t87 -16q15 -21 -44 -100q-9 -21 -39 -86t-45.5 -106.5t-20.5 -78.5z" />
    <glyph glyph-name="uacute" unicode="&#xfa;" horiz-adv-x="487" 
d="M365 705q20 34 68 17q38 -15 50 -44q9 -21 -7 -37q-50 -58 -129.5 -106t-93.5 -33q-11 11 10 49.5t58.5 90.5t43.5 63zM307 17q34 29 88.5 89l98 111t44.5 52q9 8 16.5 3.5t9.5 -11.5q-227 -358 -306 -358q-45 1 -49 128v9q-66 -129 -135 -146q-55 -14 -83 49
q-39 88 6 247q27 96 84 199q4 17 55.5 21t84.5 -17q17 -12 -36 -87q-111 -245 -99 -313q31 13 135 135q19 85 96 257q6 17 52 19t87 -16q15 -21 -44 -100q-9 -21 -39 -86t-45.5 -106.5t-20.5 -78.5z" />
    <glyph glyph-name="ucircumflex" unicode="&#xfb;" horiz-adv-x="500" 
d="M436 506q12 -14 3.5 -27t-28.5 -12q-9 1 -56.5 30.5t-64.5 51.5q-58 -27 -99 -60q-21 -15 -65 -11q-25 3 -23 13q0 2 3 5q2 1 33.5 29.5l70.5 66t53 55.5q15 14 36.5 14.5t28.5 -14.5q92 -124 108 -141zM314 17q34 29 88.5 89l98 111t44.5 52q9 8 16.5 3.5t9.5 -11.5
q-227 -358 -306 -358q-45 1 -49 128v9q-66 -129 -135 -146q-55 -14 -83 49q-39 88 6 247q27 96 84 199q4 17 55.5 21t84.5 -17q17 -12 -36 -87q-111 -245 -99 -313q31 13 135 135q19 85 96 257q6 17 52 19t87 -16q15 -21 -44 -100q-9 -21 -39 -86t-45.5 -106.5t-20.5 -78.5z
" />
    <glyph glyph-name="udieresis" unicode="&#xfc;" horiz-adv-x="500" 
d="M175 519q-6 7 -6 23q0 29 23 57t49 28q24 0 41 -26q5 -7 5 -20q0 -29 -22.5 -59t-49.5 -30q-24 0 -40 27zM345 519q-6 7 -6 23q0 29 23 57t49 28q24 0 41 -26q5 -7 5 -20q0 -29 -22.5 -59t-49.5 -30q-24 0 -40 27zM314 17q34 29 88.5 89l98 111t44.5 52q9 8 16.5 3.5
t9.5 -11.5q-227 -358 -306 -358q-45 1 -49 128v9q-66 -129 -135 -146q-55 -14 -83 49q-39 88 6 247q27 96 84 199q4 17 55.5 21t84.5 -17q17 -12 -36 -87q-111 -245 -99 -313q31 13 135 135q19 85 96 257q6 17 52 19t87 -16q15 -21 -44 -100q-9 -21 -39 -86t-45.5 -106.5
t-20.5 -78.5z" />
    <glyph glyph-name="yacute" unicode="&#xfd;" horiz-adv-x="477" 
d="M335 705q20 34 68 17q38 -15 50 -44q9 -21 -7 -37q-50 -58 -129.5 -106t-93.5 -33q-11 11 10 49.5t58.5 90.5t43.5 63zM241 -414q27 76 62 236.5t78.5 311t105.5 259.5q34 49 43 66q11 23 -30 31q-53 10 -114 -5q-21 -5 -23 -11q-56 -111 -89 -240q-156 -220 -196 -251
q5 44 18.5 88t38.5 106.5t38 100.5q69 94 46 113q-22 18 -55.5 25.5t-57.5 4.5t-27 -12q-76 -139 -87 -318q-9 -146 33 -201q43 -58 116 34q49 62 104 186q-17 -83 -37 -230t-32 -190q-12 -46 -31 -62q-18 -10 14 -34q36 -27 65 -22q13 2 17 14z" />
    <glyph glyph-name="ydieresis" unicode="&#xff;" horiz-adv-x="477" 
d="M155 539q-6 7 -6 23q0 29 23 57t49 28q24 0 41 -26q5 -7 5 -20q0 -29 -22.5 -59t-49.5 -30q-24 0 -40 27zM325 539q-6 7 -6 23q0 29 23 57t49 28q24 0 41 -26q5 -7 5 -20q0 -29 -22.5 -59t-49.5 -30q-24 0 -40 27zM241 -414q27 76 62 236.5t78.5 311t105.5 259.5
q34 49 43 66q11 23 -30 31q-53 10 -114 -5q-21 -5 -23 -11q-56 -111 -89 -240q-156 -220 -196 -251q5 44 18.5 88t38.5 106.5t38 100.5q69 94 46 113q-22 18 -55.5 25.5t-57.5 4.5t-27 -12q-76 -139 -87 -318q-9 -146 33 -201q43 -58 116 34q49 62 104 186q-17 -83 -37 -230
t-32 -190q-12 -46 -31 -62q-18 -10 14 -34q36 -27 65 -22q13 2 17 14z" />
    <glyph glyph-name="Scaron" unicode="&#x160;" horiz-adv-x="564" 
d="M366 1123q-12 14 -3.5 27t28.5 12q9 -1 56.5 -30.5t64.5 -51.5q58 27 99 60q21 15 65 11q25 -3 23 -13q0 -2 -3 -5q-2 -1 -33.5 -29.5l-70.5 -66t-53 -55.5q-15 -14 -36.5 -14.5t-28.5 14.5q-92 124 -108 141zM280 564q47 28 96 85.5t66 114t-37 82.5q-118 -64 -208 -190
q-85 -119 -81 -202q4 -81 98 -79q190 5 248 -102q47 -88 -11 -211q-59 -125 -191 -211q-143 -92 -313 -96q-79 -3 -134 42q-62 51 -30 120q43 90 241 170q10 -4 11 -12t-6 -12q-84 -46 -134 -127q-45 -73 -21 -108q20 -28 84 -12q140 36 249 148q96 99 104 192
q9 100 -98 134q-50 16 -124 15q-64 -1 -95 78q-36 93 -2 219q44 158 175 249q70 48 158 69q18 4 32 0.5t35 -14.5t34 -16q23 12 53.5 17t59 2t45 -24t9.5 -58q-13 -67 -74.5 -139.5t-129.5 -120t-119 -66.5q-19 23 10 63z" />
    <glyph glyph-name="scaron" unicode="&#x161;" horiz-adv-x="831" 
d="M266 795q-12 14 -3.5 27t28.5 12q9 -1 56.5 -30.5t64.5 -51.5q58 27 99 60q21 15 65 11q25 -3 23 -13q0 -2 -3 -5q-2 -1 -33 -29.5l-70 -66t-54 -55.5q195 -5 308 -132.5t113 -318.5q0 -187 -127.5 -319t-308.5 -132q-109 0 -193.5 35t-137 97t-79 142.5t-26.5 176.5
q0 189 109.5 310.5t276.5 138.5v2q-92 124 -108 141zM300 -181q101 -28 195 -5.5t171.5 97t111.5 179.5q50 161 -16.5 307t-213.5 191q-146 48 -286 -31.5t-190 -239.5q-32 -110 -15 -210t82 -178t161 -110zM287 76q-7 -27 10.5 -51t42.5 -26t48 23q12 31 1 57.5t-29 55
t-41 54t-37 55.5t-16 59.5t22.5 65t76.5 72.5q67 47 141 29q16 10 39 15t45 3.5t35 -16t8 -41.5q-9 -49 -33.5 -103t-51 -88.5t-42.5 -30.5q-1 1 -3.5 2t-7.5 5t-7.5 8t-2.5 11t6 15q16 22 27 73.5t-2 93.5q-56 -20 -81.5 -46t-23.5 -54t13 -62t26.5 -70.5t17.5 -80
t-14 -89.5v-2q-34 -83 -110 -96q-62 -11 -104 28q-45 41 -25 102q7 16 36.5 29.5t35.5 -0.5z" />
    <glyph glyph-name="Ydieresis" unicode="&#x178;" 
d="M538 1002q-6 7 -6 23q0 29 23 57t49 28q24 0 41 -26q5 -7 5 -20q0 -29 -22.5 -59t-49.5 -30q-24 0 -40 27zM708 1002q-6 7 -6 23q0 29 23 57t49 28q24 0 41 -26q5 -7 5 -20q0 -29 -22.5 -59t-49.5 -30q-24 0 -40 27zM559 840q-72 -67 -154 -212.5t-136 -303t-50 -249.5
q82 91 311 405q105 284 195 424q10 12 95 7q103 -6 104 -31q0 -5 -4 -10q-203 -240 -483 -1006q60 -4 126 -11t137 -15.5t99 -11.5q30 -3 -8 -40q-50 -48 -127 -77q-59 -22 -96 -12q-91 26 -183 46q-57 -159 -191 -217q-107 -47 -211 -11q-89 30 -116 103q-18 47 -2 102
q48 163 455 150q26 72 81.5 238.5l72.5 216.5q-198 -303 -220 -328q-48 -48 -93 -3q-53 53 -58 184q-7 208 116 439q60 112 148 218q-74 -11 -146.5 -32t-140 -51.5t-109 -74t-41.5 -92.5q-174 143 -20 225q118 64 370 72q185 7 259 -18q31 -11 20 -24zM-25 -276
q-5 -39 32 -84q50 -60 114 -47q88 17 158 171q-295 50 -304 -40z" />
    <glyph glyph-name="circumflex" unicode="&#x2c6;" horiz-adv-x="461" 
d="M406 506q12 -14 3.5 -27t-28.5 -12q-9 1 -56.5 30.5t-64.5 51.5q-58 -27 -99 -60q-21 -15 -65 -11q-25 3 -23 13q0 2 3 5q2 1 33.5 29.5l70.5 66t53 55.5q15 14 36.5 14.5t28.5 -14.5q92 -124 108 -141z" />
    <glyph glyph-name="caron" unicode="&#x2c7;" horiz-adv-x="285" 
d="M-20 1104q-12 14 -3.5 27t28.5 12q9 -1 56.5 -30.5t64.5 -51.5q58 27 99 60q21 15 65 11q25 -3 23 -13q0 -2 -3 -5q-2 -1 -33.5 -29.5l-70.5 -66t-53 -55.5q-15 -14 -36.5 -14.5t-28.5 14.5q-92 124 -108 141z" />
    <glyph glyph-name="ring" unicode="&#x2da;" horiz-adv-x="226" 
d="M33 422q0 32 21.5 54t52.5 22q74 -1 74 -76q0 -32 -21.5 -54t-52.5 -22q-37 0 -55.5 21.5t-18.5 54.5zM67 439q-16 -41 23 -58q17 -7 33.5 0t23.5 24q16 41 -23 58q-17 7 -33 0t-24 -24z" />
    <glyph glyph-name="tilde" unicode="&#x2dc;" horiz-adv-x="468" 
d="M50 531q-5 -3 -18 10t-9 18l5 7q5 8 11.5 17t17.5 20.5t23 21.5t28.5 17.5t33 10.5t37.5 -1t42 -16q51 -29 91.5 -34t55.5 4l16 10q30 25 37 4q8 -24 -18 -56q-3 -4 -6 -7q-101 -101 -168 -54q-6 5 -24.5 18.5t-23 17t-19 12t-20.5 9t-18.5 2.5t-22 -2.5l-23 -11
t-28.5 -17.5z" />
    <glyph glyph-name="hungarumlaut" unicode="&#x2dd;" horiz-adv-x="402" 
d="M219 973q33 -2 51 -21t16.5 -43.5t-14.5 -48.5q-25 -39 -86 -89q-79 -58 -85 -22q0 10 9 25.5l23.5 39t23.5 44.5q2 6 9.5 39.5t19.5 54.5t33 21zM387 973q54 0 70 -38.5t-10 -80.5q-20 -35 -104 -97q-93 -68 -112 -52q-3 2 -3 8q0 15 42.5 66t54.5 79q2 6 9.5 39.5
t19.5 54.5t33 21z" />
    <glyph glyph-name="endash" unicode="&#x2013;" horiz-adv-x="1367" 
d="M38 172q109 50 397.5 85t549 26t283.5 -71q9 -23 -2.5 -65.5t-33 -73t-38.5 -22.5q-162 80 -511.5 95.5t-588.5 -52.5q-25 -7 -51.5 26.5t-4.5 51.5z" />
    <glyph glyph-name="emdash" unicode="&#x2014;" horiz-adv-x="1669" 
d="M46 174q118 43 381 75.5t526 43t470.5 -8t223.5 -66.5q11 -36 -21.5 -101.5t-59.5 -56.5q-165 55 -377.5 81t-412.5 23t-376 -21.5t-301 -49.5q-25 -6 -50 29t-3 52z" />
    <glyph glyph-name="quoteleft" unicode="&#x2018;" horiz-adv-x="213" 
d="M164 703q-33 2 -51 21t-16.5 43.5t14.5 48.5q25 39 86 89q79 58 85 22q0 -10 -9 -25.5l-23.5 -39t-23.5 -44.5q-2 -6 -9.5 -39.5t-19.5 -54.5t-33 -21z" />
    <glyph glyph-name="quoteright" unicode="&#x2019;" horiz-adv-x="231" 
d="M256 956q27 -16 27 -57q0 -25 -12 -43q-28 -44 -104 -98.5t-104 -54.5q-6 0 -7 2q-4 4 -4 10q0 15 42.5 66t54.5 79q2 6 9.5 39.5t19.5 54.5t33 21t45 -19z" />
    <glyph glyph-name="quotesinglbase" unicode="&#x201a;" horiz-adv-x="247" 
d="M158 6q21 -13 22.5 -42t-14.5 -52q-31 -50 -90.5 -95.5t-73.5 -31.5q-6 10 -7 16.5t5.5 19.5t14 24t18.5 29.5t18 35.5q3 7 8 29.5t10.5 39.5t16 32t29 14.5t43.5 -19.5z" />
    <glyph glyph-name="quotedblleft" unicode="&#x201c;" horiz-adv-x="383" 
d="M334 703q-33 2 -51 21t-16.5 43.5t14.5 48.5q25 39 86 89q79 58 85 22q0 -10 -9 -25.5l-23.5 -39t-23.5 -44.5q-2 -6 -9.5 -39.5t-19.5 -54.5t-33 -21zM166 703q-54 0 -70 38.5t10 80.5q20 35 104 97q93 68 112 52q3 -2 3 -8q0 -15 -42.5 -66t-54.5 -79q-2 -6 -9.5 -39.5
t-19.5 -54.5t-33 -21z" />
    <glyph glyph-name="quotedblright" unicode="&#x201d;" horiz-adv-x="393" 
d="M219 973q33 -2 51 -21t16.5 -43.5t-14.5 -48.5q-25 -39 -86 -89q-79 -58 -85 -22q0 10 9 25.5l23.5 39t23.5 44.5q2 6 9.5 39.5t19.5 54.5t33 21zM387 973q54 0 70 -38.5t-10 -80.5q-20 -35 -104 -97q-93 -68 -112 -52q-3 2 -3 8q0 15 42.5 66t54.5 79q2 6 9.5 39.5
t19.5 54.5t33 21z" />
    <glyph glyph-name="quotedblbase" unicode="&#x201e;" horiz-adv-x="390" 
d="M257 186q22 -14 22 -46q0 -26 -14 -48q-28 -44 -80 -87t-76 -43q-5 0 -8 3q-7 7 -7 16q0 10 9 25.5l23.5 39t23.5 44.5q2 6 9.5 39.5t19.5 54.5t33 21t45 -19zM425 186q27 -16 27 -57q0 -25 -12 -43q-28 -44 -104 -98.5t-104 -54.5q-6 0 -7 2q-4 4 -4 10q0 15 42.5 66
t54.5 79q2 6 9.5 39.5t19.5 54.5t33 21t45 -19z" />
    <glyph glyph-name="dagger" unicode="&#x2020;" horiz-adv-x="257" 
d="M-56 523q41 -5 122 2q0 161 -1 251q28 25 79 26q48 2 45 -24v-3q-9 -55 -6 -240l38 4t33.5 4l26 3.5t17.5 2.5l6 1q28 0 20 -40q-8 -44 -38 -69q-11 -8 -22 -10q-13 -3 -79 -1q6 -394 -14 -550q-2 -16 -37 -35t-56 -10l-27 11q14 535 15 589q-16 1 -30.5 1.5t-28.5 1.5
t-26.5 2l-24 2t-20 2.5l-14.5 2.5t-9 2.5t-3 2.5q3 8 6 20.5t5.5 20.5t5.5 15.5t7 11t10 3.5z" />
    <glyph glyph-name="daggerdbl" unicode="&#x2021;" horiz-adv-x="257" 
d="M5 553q23 -3 61 -3q0 145 -1 226q28 25 79 26q48 2 45 -24v-3q-8 -43 -6 -224l54 2t50 2.5t40 2.5t28 2h10q28 0 9 -42q-20 -44 -57 -68q-12 -7 -22 -9q-16 -3 -110 1q2 -154 2 -240l48 2t43.5 2t34 2t23.5 2h9q28 0 9 -42q-20 -44 -57 -68q-12 -7 -22 -9q-18 -3 -90 0
q-3 -130 -14 -211q-2 -16 -37 -35t-56 -10l-27 11l8 251q-132 7 -138 15q-19 25 4.5 58t59.5 33q27 -3 77 -3q2 81 4 248q-120 7 -125 14q-19 25 4.5 58t59.5 33z" />
    <glyph glyph-name="bullet" unicode="&#x2022;" horiz-adv-x="458" 
d="M163 192q0 36 24.5 61t59.5 25t59.5 -25t24.5 -61t-24.5 -61t-59.5 -25t-59.5 25t-24.5 61z" />
    <glyph glyph-name="ellipsis" unicode="&#x2026;" horiz-adv-x="693" 
d="M52 -106q-17 16 -18 39t8.5 42t25.5 35q39 39 88 -12q20 -22 13 -57.5t-30 -58.5q-38 -38 -87 12zM283 -106q-17 16 -18 39t8.5 42t25.5 35q39 39 88 -12q20 -22 13 -57.5t-30 -58.5q-38 -38 -87 12zM514 -106q-17 16 -18 39t8.5 42t25.5 35q39 39 88 -12
q20 -22 13 -57.5t-30 -58.5q-38 -38 -87 12z" />
    <glyph glyph-name="perthousand" unicode="&#x2030;" horiz-adv-x="1105" 
d="M110 287q-53 8 -51 104q2 102 56 204q58 110 129 118q6 1 12 1q34 -1 59 -19.5t37 -46.5q50 -22 86 -28.5t65.5 4t50 27.5t50.5 51q35 8 91 -11q53 -18 38 -39q-14 -12 -67.5 -75.5t-129 -162.5t-145 -200t-115.5 -197t-39 -146q2 0 -4.5 -9t-14.5 -13.5t-18 3.5
q-32 30 -28 91.5t30.5 137t72 162.5t96.5 166.5t104 149.5q-20 -6 -58 -2.5t-61 15.5q-10 -43 -29.5 -93t-50.5 -104t-75 -80.5t-91 -7.5zM503 -21q-53 8 -51 104q2 102 56 204q58 110 129 118q6 1 12 1q47 -1 76 -34.5t29 -76.5q0 -12 -8 -43t-23 -72.5t-36.5 -82.5
t-49.5 -73.5t-61.5 -45.5t-72.5 1zM534 8q33 -6 75 84q47 100 60 194q8 63 -13 59q-7 -2 -16 -10q-18 -17 -49 -71t-53.5 -131t-3.5 -125zM141 316q33 -6 75 84q47 100 60 194q8 63 -13 59q-7 -2 -16 -10q-18 -17 -49 -71t-53.5 -131t-3.5 -125zM819 -21q-53 8 -51 104
q2 102 56 204q58 110 129 118q6 1 12 1q47 -1 76 -34.5t29 -76.5q0 -12 -8 -43t-23 -72.5t-36.5 -82.5t-49.5 -73.5t-61.5 -45.5t-72.5 1zM850 8q33 -6 75 84q47 100 60 194q8 63 -13 59q-7 -2 -16 -10q-18 -17 -49 -71t-53.5 -131t-3.5 -125z" />
    <glyph glyph-name="guilsinglleft" unicode="&#x2039;" horiz-adv-x="500" 
d="M149 -140q-26 -18 -52 -8.5t-25 38.5q0 7 92 80.5t142 107.5q-63 33 -131 73.5t-82 51.5q-26 22 -27 75q0 46 20 49q6 1 13 -4q1 -2 58.5 -42.5l132 -90.5t109.5 -67q30 -19 32 -49.5t-28 -42.5q-205 -130 -254 -171z" />
    <glyph glyph-name="guilsinglright" unicode="&#x203a;" horiz-adv-x="520" 
d="M149 -41q-26 -18 -52 -8.5t-25 38.5q0 7 92 80.5t142 107.5l-130.5 73t-82.5 52q-26 22 -27 75q0 46 20 49q6 1 13 -4q1 -2 58.5 -42.5l132 -90.5t109.5 -67q30 -19 32 -49.5t-28 -42.5q-205 -130 -254 -171z" />
    <glyph glyph-name="fraction" unicode="&#x2044;" horiz-adv-x="257" 
d="M-59 -104q-23 -16 -79 -12q-49 4 -47 23q0 4 3 9q1 1 73 144.5l103 206.5l98 205.5l129 281.5q37 11 84 -10q43 -20 29 -43q-27 -39 -95 -192l-152 -334t-146 -279z" />
    <glyph glyph-name="Euro" unicode="&#x20ac;" horiz-adv-x="597" 
d="M95 252q-149 6 -153 10q-23 17 5 40q28 22 70 22q21 -2 91 -2q5 23 14 55q-95 5 -98 8q-22 16 5 39q27 24 70 24q24 -2 45 -2q45 121 113.5 205t157.5 109q29 9 63 -10q107 64 132 -2q19 -51 -16 -137q-26 -64 -62 -89q-3 1 -6 2.5t-8.5 8t1.5 15.5q6 11 11.5 37t3.5 60
t-17 52q-121 -61 -220 -251q32 1 66.5 1.5t62 1.5t50.5 2t36 1l13 1q31 0 13 -26q-21 -31 -65 -48q-17 -7 -31 -7q-32 -4 -179 0q-14 -32 -20 -49q45 1 94.5 3t76.5 3l28 1q31 0 13 -26q-21 -31 -66 -49q-16 -7 -30 -8q-32 -2 -140 1q-22 -81 -28 -144q-2 -141 74 -135
q72 5 185 129q30 33 57 69q13 18 34 16q18 -1 8 -18q-47 -74 -93.5 -130.5t-87.5 -91.5t-79 -54t-69 -18t-56.5 15.5t-42.5 47.5t-26.5 78t-9.5 106.5t10 133.5z" />
    <glyph glyph-name="trademark" unicode="&#x2122;" horiz-adv-x="1120" 
d="M640 580q14 16 70 -1q32 -12 30 -20q-10 -16 -44.5 -84.5t-81 -177t-67.5 -186.5q180 372 318 396q38 8 62 -3q9 -4 3 -10q-20 -26 -86.5 -172.5t-86.5 -243.5q79 207 198 316q69 63 107 54q17 -4 19 -25q0 -1 -1 -2q-24 -25 -89 -161t-65 -207q21 22 52.5 58l53.5 63
t23 28q6 3 11 -12q-110 -158 -127 -179q-18 -25 -40 -3q-32 32 -22 117q8 67 44 144q-63 -88 -160 -271q-22 -40 -39 -8q-25 44 -11 153q16 133 85 253q-129 -163 -257 -415q-23 -44 -39 -7q-23 54 -4 194q31 219 144 412zM838 663q16 -12 -1.5 -37t-35.5 -22
q-91 21 -221 23q-82 -193 -178 -493q-23 -71 -58 -113.5t-72 -53.5t-75.5 -4t-70 30t-54 53t-28.5 61q-3 10 18 19q39 16 70 4q17 -6 20 -21q15 -70 47 -98.5t63 -9t46 78.5l39.5 170t54.5 222.5t49 152.5q-50 -3 -86 -8t-68 -16.5t-44.5 -16.5t-46.5 -25.5t-44 -25.5
q-18 -10 -42.5 38t-16.5 73q14 45 164 61t321 2.5t250 -44.5z" />
    <glyph glyph-name="minus" unicode="&#x2212;" horiz-adv-x="643" 
d="M135 223q20 -2 50 -1.5t68.5 2.5t78 5.5l78 7t68 6.5l48.5 5l19 2q28 0 20 -40q-8 -44 -38 -69q-11 -8 -22 -10q-32 -4 -219.5 4t-184.5 17q3 8 6 20.5t5.5 20.5t5.5 15.5t7 11t10 3.5z" />
    <glyph glyph-name="a35" unicode="&#x2605;" horiz-adv-x="461" 
d="M406 506q12 -14 3.5 -27t-28.5 -12q-9 1 -56.5 30.5t-64.5 51.5q-58 -27 -99 -60q-21 -15 -65 -11q-25 3 -23 13q0 2 3 5q2 1 33.5 29.5l70.5 66t53 55.5q15 14 36.5 14.5t28.5 -14.5q92 -124 108 -141zM172 -1v5q-48 -74 -65 -96q-22 -29 -52 -37t-55 9t-31 55
q-11 78 11 193t49 160q60 137 139 134q91 -6 118.5 -31t12.5 -62q42 8 70 4t45 -15q31 -16 -48 -101q-49 -47 -69.5 -122.5t-9 -152t50.5 -130.5q7 1 40.5 7.5t57 10.5t60 8.5t62 2.5t51 -7t40 -20t15.5 -38q6 -98 -30 -148.5t-94.5 -50t-128 37t-128.5 100.5l-254 -74
l141 -52.5l140 -49t139.5 -43t131.5 -32.5t124.5 -19.5t110 -1.5t97 17.5t76 41t56 67.5t29.5 98q6 0 21 -33t26.5 -85.5t12.5 -111t-25.5 -119t-82.5 -98.5q-29 -20 -81 -21.5t-118 12.5t-147.5 40.5t-169 61.5l-183 76.5l-188 84l-185.5 86.5l-79 37q-461 -125 -558 -45
q-39 33 -43.5 104t29.5 129.5t92 58.5q64 1 170.5 -32t273.5 -97q57 9 121.5 21.5l146.5 29.5l120 25q-62 102 -55 208zM250 278q13 78 -15 72q-30 -7 -81 -93q-71 -119 -80 -213q-4 -38 6 -62q3 -3 6 -3.5t11 8t14.5 16.5t16.5 22.5l18 26l18.5 27l17.5 25.5q4 12 10 27.5
l22.5 57zM-624 -210q-25 1 -42 -14q76 -100 327 -83q-213 93 -285 97zM621 -224q-6 7 -22 8t-40.5 -2.5t-47 -8.5l-53 -12t-46.5 -10q88 -40 209 25z" />
    <glyph glyph-name="a4" unicode="&#x260e;" horiz-adv-x="429" 
d="M215 705q6 -11 43.5 -63t58.5 -90.5t10 -49.5q-14 -15 -93.5 33t-129.5 106q-25 26 8 58q31 31 68 28q24 -2 35 -22zM173 0v5q-48 -74 -65 -96q-22 -29 -52 -37t-55 9t-31 55q-11 78 11 193t49 160q60 137 139 134q91 -6 118.5 -31t12.5 -62q42 8 70 4t45 -15
q31 -16 -48 -101q-43 -41 -64 -105.5t-18.5 -130.5t29.5 -124t72 -92t117.5 -28t158.5 62q32 -162 -56 -207q-71 -36 -182 18q-113 55 -185.5 163.5t-65.5 225.5zM251 279q13 78 -15 72q-30 -7 -81 -93q-71 -119 -80 -213q-4 -38 6 -62q3 -3 6 -3.5t11 8t14.5 16.5
t16.5 22.5l18 26l18.5 27l17.5 25.5q4 12 10 27.5l22.5 57z" />
    <glyph glyph-name="a3" unicode="&#x2704;" horiz-adv-x="461" 
d="M385 716q20 34 68 17q38 -15 50 -44q9 -21 -7 -37q-50 -58 -129.5 -106t-93.5 -33q-11 11 10 49.5t58.5 90.5t43.5 63zM173 0v5q-48 -74 -65 -96q-22 -29 -52 -37t-55 9t-31 55q-11 78 11 193t49 160q60 137 139 134q91 -6 118.5 -31t12.5 -62q42 8 70 4t45 -15
q31 -16 -48 -101q-43 -41 -64 -105.5t-18.5 -130.5t29.5 -124t72 -92t117.5 -28t158.5 62q32 -162 -56 -207q-71 -36 -182 18q-113 55 -185.5 163.5t-65.5 225.5zM251 279q13 78 -15 72q-30 -7 -81 -93q-71 -119 -80 -213q-4 -38 6 -62q3 -3 6 -3.5t11 8t14.5 16.5
t16.5 22.5l18 26l18.5 27l17.5 25.5q4 12 10 27.5l22.5 57z" />
    <glyph glyph-name="a5" unicode="&#x2706;" horiz-adv-x="429" 
d="M406 506q12 -14 3.5 -27t-28.5 -12q-9 1 -56.5 30.5t-64.5 51.5q-58 -27 -99 -60q-21 -15 -65 -11q-25 3 -23 13q0 2 3 5q2 1 33.5 29.5l70.5 66t53 55.5q15 14 36.5 14.5t28.5 -14.5q92 -124 108 -141zM173 0v5q-48 -74 -65 -96q-22 -29 -52 -37t-55 9t-31 55
q-11 78 11 193t49 160q60 137 139 134q91 -6 118.5 -31t12.5 -62q42 8 70 4t45 -15q31 -16 -48 -101q-43 -41 -64 -105.5t-18.5 -130.5t29.5 -124t72 -92t117.5 -28t158.5 62q32 -162 -56 -207q-71 -36 -182 18q-113 55 -185.5 163.5t-65.5 225.5zM251 279q13 78 -15 72
q-30 -7 -81 -93q-71 -119 -80 -213q-4 -38 6 -62q3 -3 6 -3.5t11 8t14.5 16.5t16.5 22.5l18 26l18.5 27l17.5 25.5q4 12 10 27.5l22.5 57z" />
    <glyph glyph-name="a21" unicode="&#x2715;" horiz-adv-x="436" 
d="M215 705q6 -11 43.5 -63t58.5 -90.5t10 -49.5q-14 -15 -93.5 33t-129.5 106q-25 26 8 58q31 31 68 28q24 -2 35 -22zM172 -1v5q-48 -74 -65 -96q-22 -29 -52 -37t-55 9t-31 55q-11 78 11 193t49 160q60 137 139 134q91 -6 118.5 -31t12.5 -62q42 8 70 4t45 -15
q31 -16 -48 -101q-49 -47 -69.5 -122.5t-9 -152t50.5 -130.5q7 1 40.5 7.5t57 10.5t60 8.5t62 2.5t51 -7t40 -20t15.5 -38q6 -98 -30 -148.5t-94.5 -50t-128 37t-128.5 100.5l-120 -35l-129.5 -38.5l-127 -36.5t-129.5 -34t-119.5 -27t-113 -19t-94 -6t-80 7.5t-53.5 25.5
q-27 23 -31.5 89t6 121t19.5 55q54 -144 349 -124q144 10 469 78l98 20q-62 102 -55 208zM250 278q13 78 -15 72q-30 -7 -81 -93q-71 -119 -80 -213q-4 -38 6 -62q3 -3 6 -3.5t11 8t14.5 16.5t16.5 22.5l18 26l18.5 27l17.5 25.5q4 12 10 27.5l22.5 57zM621 -224q-6 7 -22 8
t-40.5 -2.5t-47 -8.5l-53 -12t-46.5 -10q88 -40 209 25z" />
    <glyph glyph-name="a22" unicode="&#x2716;" horiz-adv-x="436" 
d="M385 716q20 34 68 17q38 -15 50 -44q9 -21 -7 -37q-50 -58 -129.5 -106t-93.5 -33q-11 11 10 49.5t58.5 90.5t43.5 63zM172 -1v5q-48 -74 -65 -96q-22 -29 -52 -37t-55 9t-31 55q-11 78 11 193t49 160q60 137 139 134q91 -6 118.5 -31t12.5 -62q42 8 70 4t45 -15
q31 -16 -48 -101q-49 -47 -69.5 -122.5t-9 -152t50.5 -130.5q7 1 40.5 7.5t57 10.5t60 8.5t62 2.5t51 -7t40 -20t15.5 -38q6 -98 -30 -148.5t-94.5 -50t-128 37t-128.5 100.5l-120 -35l-129.5 -38.5l-127 -36.5t-129.5 -34t-119.5 -27t-113 -19t-94 -6t-80 7.5t-53.5 25.5
q-27 23 -31.5 89t6 121t19.5 55q54 -144 349 -124q144 10 469 78l98 20q-62 102 -55 208zM250 278q13 78 -15 72q-30 -7 -81 -93q-71 -119 -80 -213q-4 -38 6 -62q3 -3 6 -3.5t11 8t14.5 16.5t16.5 22.5l18 26l18.5 27l17.5 25.5q4 12 10 27.5l22.5 57zM621 -224q-6 7 -22 8
t-40.5 -2.5t-47 -8.5l-53 -12t-46.5 -10q88 -40 209 25z" />
    <glyph glyph-name="a23" unicode="&#x2717;" horiz-adv-x="436" 
d="M406 506q12 -14 3.5 -27t-28.5 -12q-9 1 -56.5 30.5t-64.5 51.5q-58 -27 -99 -60q-21 -15 -65 -11q-25 3 -23 13q0 2 3 5q2 1 33.5 29.5l70.5 66t53 55.5q15 14 36.5 14.5t28.5 -14.5q92 -124 108 -141zM172 -1v5q-48 -74 -65 -96q-22 -29 -52 -37t-55 9t-31 55
q-11 78 11 193t49 160q60 137 139 134q91 -6 118.5 -31t12.5 -62q42 8 70 4t45 -15q31 -16 -48 -101q-49 -47 -69.5 -122.5t-9 -152t50.5 -130.5q7 1 40.5 7.5t57 10.5t60 8.5t62 2.5t51 -7t40 -20t15.5 -38q6 -98 -30 -148.5t-94.5 -50t-128 37t-128.5 100.5l-120 -35
l-129.5 -38.5l-127 -36.5t-129.5 -34t-119.5 -27t-113 -19t-94 -6t-80 7.5t-53.5 25.5q-27 23 -31.5 89t6 121t19.5 55q54 -144 349 -124q144 10 469 78l98 20q-62 102 -55 208zM250 278q13 78 -15 72q-30 -7 -81 -93q-71 -119 -80 -213q-4 -38 6 -62q3 -3 6 -3.5t11 8
t14.5 16.5t16.5 22.5l18 26l18.5 27l17.5 25.5q4 12 10 27.5l22.5 57zM621 -224q-6 7 -22 8t-40.5 -2.5t-47 -8.5l-53 -12t-46.5 -10q88 -40 209 25z" />
    <glyph glyph-name="a24" unicode="&#x2718;" horiz-adv-x="436" 
d="M82 531q-5 -3 -18 10t-9 18l5 7q5 8 11.5 17t17.5 20.5t23 21.5t28.5 17.5t33 10.5t37.5 -1t42 -16q51 -29 91.5 -34t55.5 4l16 10q30 25 37 4q8 -24 -18 -56q-3 -4 -6 -7q-101 -101 -168 -54q-6 5 -24.5 18.5t-23 17t-19 12t-20.5 9t-18.5 2.5t-22 -2.5l-23 -11
t-28.5 -17.5zM172 -1v5q-48 -74 -65 -96q-22 -29 -52 -37t-55 9t-31 55q-11 78 11 193t49 160q60 137 139 134q91 -6 118.5 -31t12.5 -62q42 8 70 4t45 -15q31 -16 -48 -101q-49 -47 -69.5 -122.5t-9 -152t50.5 -130.5q7 1 40.5 7.5t57 10.5t60 8.5t62 2.5t51 -7t40 -20
t15.5 -38q6 -98 -30 -148.5t-94.5 -50t-128 37t-128.5 100.5l-120 -35l-129.5 -38.5l-127 -36.5t-129.5 -34t-119.5 -27t-113 -19t-94 -6t-80 7.5t-53.5 25.5q-27 23 -31.5 89t6 121t19.5 55q54 -144 349 -124q144 10 469 78l98 20q-62 102 -55 208zM250 278q13 78 -15 72
q-30 -7 -81 -93q-71 -119 -80 -213q-4 -38 6 -62q3 -3 6 -3.5t11 8t14.5 16.5t16.5 22.5l18 26l18.5 27l17.5 25.5q4 12 10 27.5l22.5 57zM621 -224q-6 7 -22 8t-40.5 -2.5t-47 -8.5l-53 -12t-46.5 -10q88 -40 209 25z" />
    <glyph glyph-name="a25" unicode="&#x2719;" horiz-adv-x="436" 
d="M155 519q-6 7 -6 23q0 29 23 57t49 28q24 0 41 -26q5 -7 5 -20q0 -29 -22.5 -59t-49.5 -30q-24 0 -40 27zM325 519q-6 7 -6 23q0 29 23 57t49 28q24 0 41 -26q5 -7 5 -20q0 -29 -22.5 -59t-49.5 -30q-24 0 -40 27zM172 -1v5q-48 -74 -65 -96q-22 -29 -52 -37t-55 9
t-31 55q-11 78 11 193t49 160q60 137 139 134q91 -6 118.5 -31t12.5 -62q42 8 70 4t45 -15q31 -16 -48 -101q-49 -47 -69.5 -122.5t-9 -152t50.5 -130.5q7 1 40.5 7.5t57 10.5t60 8.5t62 2.5t51 -7t40 -20t15.5 -38q6 -98 -30 -148.5t-94.5 -50t-128 37t-128.5 100.5
l-120 -35l-129.5 -38.5l-127 -36.5t-129.5 -34t-119.5 -27t-113 -19t-94 -6t-80 7.5t-53.5 25.5q-27 23 -31.5 89t6 121t19.5 55q54 -144 349 -124q144 10 469 78l98 20q-62 102 -55 208zM250 278q13 78 -15 72q-30 -7 -81 -93q-71 -119 -80 -213q-4 -38 6 -62q3 -3 6 -3.5
t11 8t14.5 16.5t16.5 22.5l18 26l18.5 27l17.5 25.5q4 12 10 27.5l22.5 57zM621 -224q-6 7 -22 8t-40.5 -2.5t-47 -8.5l-53 -12t-46.5 -10q88 -40 209 25z" />
    <glyph glyph-name="a26" unicode="&#x271a;" horiz-adv-x="436" 
d="M239 553q0 34 24.5 58t59.5 25q44 1 65 -22t21 -61q0 -34 -25.5 -58t-60.5 -25q-42 -1 -63 22.5t-21 60.5zM293 531q9 -12 24 -14.5t27 6.5q13 9 16 24.5t-5 27.5t-24 14t-29 -7q-12 -9 -14.5 -23.5t5.5 -27.5zM172 -1v5q-48 -74 -65 -96q-22 -29 -52 -37t-55 9t-31 55
q-11 78 11 193t49 160q60 137 139 134q91 -6 118.5 -31t12.5 -62q42 8 70 4t45 -15q31 -16 -48 -101q-49 -47 -69.5 -122.5t-9 -152t50.5 -130.5q7 1 40.5 7.5t57 10.5t60 8.5t62 2.5t51 -7t40 -20t15.5 -38q6 -98 -30 -148.5t-94.5 -50t-128 37t-128.5 100.5l-120 -35
l-129.5 -38.5l-127 -36.5t-129.5 -34t-119.5 -27t-113 -19t-94 -6t-80 7.5t-53.5 25.5q-27 23 -31.5 89t6 121t19.5 55q54 -144 349 -124q144 10 469 78l98 20q-62 102 -55 208zM250 278q13 78 -15 72q-30 -7 -81 -93q-71 -119 -80 -213q-4 -38 6 -62q3 -3 6 -3.5t11 8
t14.5 16.5t16.5 22.5l18 26l18.5 27l17.5 25.5q4 12 10 27.5l22.5 57zM621 -224q-6 7 -22 8t-40.5 -2.5t-47 -8.5l-53 -12t-46.5 -10q88 -40 209 25z" />
    <glyph glyph-name="a6" unicode="&#x271d;" horiz-adv-x="429" 
d="M82 531q-5 -3 -18 10t-9 18l5 7q5 8 11.5 17t17.5 20.5t23 21.5t28.5 17.5t33 10.5t37.5 -1t42 -16q51 -29 91.5 -34t55.5 4l16 10q30 25 37 4q8 -24 -18 -56q-3 -4 -6 -7q-101 -101 -168 -54q-6 5 -24.5 18.5t-23 17t-19 12t-20.5 9t-18.5 2.5t-22 -2.5l-23 -11
t-28.5 -17.5zM173 0v5q-48 -74 -65 -96q-22 -29 -52 -37t-55 9t-31 55q-11 78 11 193t49 160q60 137 139 134q91 -6 118.5 -31t12.5 -62q42 8 70 4t45 -15q31 -16 -48 -101q-43 -41 -64 -105.5t-18.5 -130.5t29.5 -124t72 -92t117.5 -28t158.5 62q32 -162 -56 -207
q-71 -36 -182 18q-113 55 -185.5 163.5t-65.5 225.5zM251 279q13 78 -15 72q-30 -7 -81 -93q-71 -119 -80 -213q-4 -38 6 -62q3 -3 6 -3.5t11 8t14.5 16.5t16.5 22.5l18 26l18.5 27l17.5 25.5q4 12 10 27.5l22.5 57z" />
    <glyph glyph-name="a7" unicode="&#x271e;" horiz-adv-x="429" 
d="M155 519q-6 7 -6 23q0 29 23 57t49 28q24 0 41 -26q5 -7 5 -20q0 -29 -22.5 -59t-49.5 -30q-24 0 -40 27zM325 519q-6 7 -6 23q0 29 23 57t49 28q24 0 41 -26q5 -7 5 -20q0 -29 -22.5 -59t-49.5 -30q-24 0 -40 27zM173 0v5q-48 -74 -65 -96q-22 -29 -52 -37t-55 9t-31 55
q-11 78 11 193t49 160q60 137 139 134q91 -6 118.5 -31t12.5 -62q42 8 70 4t45 -15q31 -16 -48 -101q-43 -41 -64 -105.5t-18.5 -130.5t29.5 -124t72 -92t117.5 -28t158.5 62q32 -162 -56 -207q-71 -36 -182 18q-113 55 -185.5 163.5t-65.5 225.5zM251 279q13 78 -15 72
q-30 -7 -81 -93q-71 -119 -80 -213q-4 -38 6 -62q3 -3 6 -3.5t11 8t14.5 16.5t16.5 22.5l18 26l18.5 27l17.5 25.5q4 12 10 27.5l22.5 57z" />
    <glyph glyph-name="a8" unicode="&#x271f;" horiz-adv-x="429" 
d="M239 553q0 34 24.5 58t59.5 25q44 1 65 -22t21 -61q0 -34 -25.5 -58t-60.5 -25q-42 -1 -63 22.5t-21 60.5zM293 531q9 -12 24 -14.5t27 6.5q13 9 16 24.5t-5 27.5t-24 14t-29 -7q-12 -9 -14.5 -23.5t5.5 -27.5zM173 0v5q-48 -74 -65 -96q-22 -29 -52 -37t-55 9t-31 55
q-11 78 11 193t49 160q60 137 139 134q91 -6 118.5 -31t12.5 -62q42 8 70 4t45 -15q31 -16 -48 -101q-43 -41 -64 -105.5t-18.5 -130.5t29.5 -124t72 -92t117.5 -28t158.5 62q32 -162 -56 -207q-71 -36 -182 18q-113 55 -185.5 163.5t-65.5 225.5zM251 279q13 78 -15 72
q-30 -7 -81 -93q-71 -119 -80 -213q-4 -38 6 -62q3 -3 6 -3.5t11 8t14.5 16.5t16.5 22.5l18 26l18.5 27l17.5 25.5q4 12 10 27.5l22.5 57z" />
    <glyph glyph-name="a33" unicode="&#x2726;" horiz-adv-x="461" 
d="M215 705q6 -11 43.5 -63t58.5 -90.5t10 -49.5q-14 -15 -93.5 33t-129.5 106q-25 26 8 58q31 31 68 28q24 -2 35 -22zM172 -1v5q-48 -74 -65 -96q-22 -29 -52 -37t-55 9t-31 55q-11 78 11 193t49 160q60 137 139 134q91 -6 118.5 -31t12.5 -62q42 8 70 4t45 -15
q31 -16 -48 -101q-49 -47 -69.5 -122.5t-9 -152t50.5 -130.5q7 1 40.5 7.5t57 10.5t60 8.5t62 2.5t51 -7t40 -20t15.5 -38q6 -98 -30 -148.5t-94.5 -50t-128 37t-128.5 100.5l-254 -74l141 -52.5l140 -49t139.5 -43t131.5 -32.5t124.5 -19.5t110 -1.5t97 17.5t76 41t56 67.5
t29.5 98q6 0 21 -33t26.5 -85.5t12.5 -111t-25.5 -119t-82.5 -98.5q-29 -20 -81 -21.5t-118 12.5t-147.5 40.5t-169 61.5l-183 76.5l-188 84l-185.5 86.5l-79 37q-461 -125 -558 -45q-39 33 -43.5 104t29.5 129.5t92 58.5q64 1 170.5 -32t273.5 -97q57 9 121.5 21.5
l146.5 29.5l120 25q-62 102 -55 208zM250 278q13 78 -15 72q-30 -7 -81 -93q-71 -119 -80 -213q-4 -38 6 -62q3 -3 6 -3.5t11 8t14.5 16.5t16.5 22.5l18 26l18.5 27l17.5 25.5q4 12 10 27.5l22.5 57zM-624 -210q-25 1 -42 -14q76 -100 327 -83q-213 93 -285 97zM621 -224
q-6 7 -22 8t-40.5 -2.5t-47 -8.5l-53 -12t-46.5 -10q88 -40 209 25z" />
    <glyph glyph-name="a34" unicode="&#x2727;" horiz-adv-x="461" 
d="M365 705q20 34 68 17q38 -15 50 -44q9 -21 -7 -37q-50 -58 -129.5 -106t-93.5 -33q-11 11 10 49.5t58.5 90.5t43.5 63zM172 -1v5q-48 -74 -65 -96q-22 -29 -52 -37t-55 9t-31 55q-11 78 11 193t49 160q60 137 139 134q91 -6 118.5 -31t12.5 -62q42 8 70 4t45 -15
q31 -16 -48 -101q-49 -47 -69.5 -122.5t-9 -152t50.5 -130.5q7 1 40.5 7.5t57 10.5t60 8.5t62 2.5t51 -7t40 -20t15.5 -38q6 -98 -30 -148.5t-94.5 -50t-128 37t-128.5 100.5l-254 -74l141 -52.5l140 -49t139.5 -43t131.5 -32.5t124.5 -19.5t110 -1.5t97 17.5t76 41t56 67.5
t29.5 98q6 0 21 -33t26.5 -85.5t12.5 -111t-25.5 -119t-82.5 -98.5q-29 -20 -81 -21.5t-118 12.5t-147.5 40.5t-169 61.5l-183 76.5l-188 84l-185.5 86.5l-79 37q-461 -125 -558 -45q-39 33 -43.5 104t29.5 129.5t92 58.5q64 1 170.5 -32t273.5 -97q57 9 121.5 21.5
l146.5 29.5l120 25q-62 102 -55 208zM250 278q13 78 -15 72q-30 -7 -81 -93q-71 -119 -80 -213q-4 -38 6 -62q3 -3 6 -3.5t11 8t14.5 16.5t16.5 22.5l18 26l18.5 27l17.5 25.5q4 12 10 27.5l22.5 57zM-624 -210q-25 1 -42 -14q76 -100 327 -83q-213 93 -285 97zM621 -224
q-6 7 -22 8t-40.5 -2.5t-47 -8.5l-53 -12t-46.5 -10q88 -40 209 25z" />
    <glyph glyph-name="a36" unicode="&#x2729;" horiz-adv-x="461" 
d="M82 531q-5 -3 -18 10t-9 18l5 7q5 8 11.5 17t17.5 20.5t23 21.5t28.5 17.5t33 10.5t37.5 -1t42 -16q51 -29 91.5 -34t55.5 4l16 10q30 25 37 4q8 -24 -18 -56q-3 -4 -6 -7q-101 -101 -168 -54q-6 5 -24.5 18.5t-23 17t-19 12t-20.5 9t-18.5 2.5t-22 -2.5l-23 -11
t-28.5 -17.5zM172 -1v5q-48 -74 -65 -96q-22 -29 -52 -37t-55 9t-31 55q-11 78 11 193t49 160q60 137 139 134q91 -6 118.5 -31t12.5 -62q42 8 70 4t45 -15q31 -16 -48 -101q-49 -47 -69.5 -122.5t-9 -152t50.5 -130.5q7 1 40.5 7.5t57 10.5t60 8.5t62 2.5t51 -7t40 -20
t15.5 -38q6 -98 -30 -148.5t-94.5 -50t-128 37t-128.5 100.5l-254 -74l141 -52.5l140 -49t139.5 -43t131.5 -32.5t124.5 -19.5t110 -1.5t97 17.5t76 41t56 67.5t29.5 98q6 0 21 -33t26.5 -85.5t12.5 -111t-25.5 -119t-82.5 -98.5q-29 -20 -81 -21.5t-118 12.5t-147.5 40.5
t-169 61.5l-183 76.5l-188 84l-185.5 86.5l-79 37q-461 -125 -558 -45q-39 33 -43.5 104t29.5 129.5t92 58.5q64 1 170.5 -32t273.5 -97q57 9 121.5 21.5l146.5 29.5l120 25q-62 102 -55 208zM250 278q13 78 -15 72q-30 -7 -81 -93q-71 -119 -80 -213q-4 -38 6 -62
q3 -3 6 -3.5t11 8t14.5 16.5t16.5 22.5l18 26l18.5 27l17.5 25.5q4 12 10 27.5l22.5 57zM-624 -210q-25 1 -42 -14q76 -100 327 -83q-213 93 -285 97zM621 -224q-6 7 -22 8t-40.5 -2.5t-47 -8.5l-53 -12t-46.5 -10q88 -40 209 25z" />
    <glyph glyph-name="a37" unicode="&#x272a;" horiz-adv-x="461" 
d="M155 519q-6 7 -6 23q0 29 23 57t49 28q24 0 41 -26q5 -7 5 -20q0 -29 -22.5 -59t-49.5 -30q-24 0 -40 27zM325 519q-6 7 -6 23q0 29 23 57t49 28q24 0 41 -26q5 -7 5 -20q0 -29 -22.5 -59t-49.5 -30q-24 0 -40 27zM172 -1v5q-48 -74 -65 -96q-22 -29 -52 -37t-55 9
t-31 55q-11 78 11 193t49 160q60 137 139 134q91 -6 118.5 -31t12.5 -62q42 8 70 4t45 -15q31 -16 -48 -101q-49 -47 -69.5 -122.5t-9 -152t50.5 -130.5q7 1 40.5 7.5t57 10.5t60 8.5t62 2.5t51 -7t40 -20t15.5 -38q6 -98 -30 -148.5t-94.5 -50t-128 37t-128.5 100.5
l-254 -74l141 -52.5l140 -49t139.5 -43t131.5 -32.5t124.5 -19.5t110 -1.5t97 17.5t76 41t56 67.5t29.5 98q6 0 21 -33t26.5 -85.5t12.5 -111t-25.5 -119t-82.5 -98.5q-29 -20 -81 -21.5t-118 12.5t-147.5 40.5t-169 61.5l-183 76.5l-188 84l-185.5 86.5l-79 37
q-461 -125 -558 -45q-39 33 -43.5 104t29.5 129.5t92 58.5q64 1 170.5 -32t273.5 -97q57 9 121.5 21.5l146.5 29.5l120 25q-62 102 -55 208zM250 278q13 78 -15 72q-30 -7 -81 -93q-71 -119 -80 -213q-4 -38 6 -62q3 -3 6 -3.5t11 8t14.5 16.5t16.5 22.5l18 26l18.5 27
l17.5 25.5q4 12 10 27.5l22.5 57zM-624 -210q-25 1 -42 -14q76 -100 327 -83q-213 93 -285 97zM621 -224q-6 7 -22 8t-40.5 -2.5t-47 -8.5l-53 -12t-46.5 -10q88 -40 209 25z" />
    <glyph glyph-name="a38" unicode="&#x272b;" horiz-adv-x="461" 
d="M239 553q0 34 24.5 58t59.5 25q44 1 65 -22t21 -61q0 -34 -25.5 -58t-60.5 -25q-42 -1 -63 22.5t-21 60.5zM293 531q9 -12 24 -14.5t27 6.5q13 9 16 24.5t-5 27.5t-24 14t-29 -7q-12 -9 -14.5 -23.5t5.5 -27.5zM172 -1v5q-48 -74 -65 -96q-22 -29 -52 -37t-55 9t-31 55
q-11 78 11 193t49 160q60 137 139 134q91 -6 118.5 -31t12.5 -62q42 8 70 4t45 -15q31 -16 -48 -101q-49 -47 -69.5 -122.5t-9 -152t50.5 -130.5q7 1 40.5 7.5t57 10.5t60 8.5t62 2.5t51 -7t40 -20t15.5 -38q6 -98 -30 -148.5t-94.5 -50t-128 37t-128.5 100.5l-254 -74
l141 -52.5l140 -49t139.5 -43t131.5 -32.5t124.5 -19.5t110 -1.5t97 17.5t76 41t56 67.5t29.5 98q6 0 21 -33t26.5 -85.5t12.5 -111t-25.5 -119t-82.5 -98.5q-29 -20 -81 -21.5t-118 12.5t-147.5 40.5t-169 61.5l-183 76.5l-188 84l-185.5 86.5l-79 37q-461 -125 -558 -45
q-39 33 -43.5 104t29.5 129.5t92 58.5q64 1 170.5 -32t273.5 -97q57 9 121.5 21.5l146.5 29.5l120 25q-62 102 -55 208zM250 278q13 78 -15 72q-30 -7 -81 -93q-71 -119 -80 -213q-4 -38 6 -62q3 -3 6 -3.5t11 8t14.5 16.5t16.5 22.5l18 26l18.5 27l17.5 25.5q4 12 10 27.5
l22.5 57zM-624 -210q-25 1 -42 -14q76 -100 327 -83q-213 93 -285 97zM621 -224q-6 7 -22 8t-40.5 -2.5t-47 -8.5l-53 -12t-46.5 -10q88 -40 209 25z" />
    <glyph glyph-name="a39" unicode="&#x272c;" horiz-adv-x="436" 
d="M215 705q6 -11 43.5 -63t58.5 -90.5t10 -49.5q-14 -15 -93.5 33t-129.5 106q-25 26 8 58q31 31 68 28q24 -2 35 -22zM172 -1v5q-48 -74 -65 -96q-22 -29 -52 -37t-55 9t-31 55q-11 78 11 193t49 160q60 137 139 134q91 -6 118.5 -31t12.5 -62q42 8 70 4t45 -15
q31 -16 -48 -101q-72 -69 -81 -192t47 -205q165 19 235 18q44 0 65.5 -14t31.5 -48q22 -149 -67 -187q-74 -31 -184 27q-85 44 -148 121l-202.5 -35.5l-236.5 -40.5l-238.5 -39.5t-251.5 -39l-230 -31t-219.5 -23.5t-174.5 -8.5t-140.5 6t-74.5 26.5q-27 23 -31.5 89t6 121
t19.5 55q63 -170 831 -111q240 19 823 92l73 9q-52 94 -46 192zM250 278q13 78 -15 72q-30 -7 -81 -93q-71 -119 -80 -213q-4 -38 6 -62q3 -3 6 -3.5t11 8t14.5 16.5t16.5 22.5l18 26l18.5 27l17.5 25.5q4 12 10 27.5l22.5 57zM621 -224q-8 6 -25 7.5t-42.5 -1t-49 -6.5
t-56 -9l-52.5 -8q93 -54 225 17z" />
    <glyph glyph-name="a40" unicode="&#x272d;" horiz-adv-x="436" 
d="M365 705q20 34 68 17q38 -15 50 -44q9 -21 -7 -37q-50 -58 -129.5 -106t-93.5 -33q-11 11 10 49.5t58.5 90.5t43.5 63zM172 -1v5q-48 -74 -65 -96q-22 -29 -52 -37t-55 9t-31 55q-11 78 11 193t49 160q60 137 139 134q91 -6 118.5 -31t12.5 -62q42 8 70 4t45 -15
q31 -16 -48 -101q-72 -69 -81 -192t47 -205q165 19 235 18q44 0 65.5 -14t31.5 -48q22 -149 -67 -187q-74 -31 -184 27q-85 44 -148 121l-202.5 -35.5l-236.5 -40.5l-238.5 -39.5t-251.5 -39l-230 -31t-219.5 -23.5t-174.5 -8.5t-140.5 6t-74.5 26.5q-27 23 -31.5 89t6 121
t19.5 55q63 -170 831 -111q240 19 823 92l73 9q-52 94 -46 192zM250 278q13 78 -15 72q-30 -7 -81 -93q-71 -119 -80 -213q-4 -38 6 -62q3 -3 6 -3.5t11 8t14.5 16.5t16.5 22.5l18 26l18.5 27l17.5 25.5q4 12 10 27.5l22.5 57zM621 -224q-8 6 -25 7.5t-42.5 -1t-49 -6.5
t-56 -9l-52.5 -8q93 -54 225 17z" />
    <glyph glyph-name="a41" unicode="&#x272e;" horiz-adv-x="436" 
d="M406 506q12 -14 3.5 -27t-28.5 -12q-9 1 -56.5 30.5t-64.5 51.5q-58 -27 -99 -60q-21 -15 -65 -11q-25 3 -23 13q0 2 3 5q2 1 33.5 29.5l70.5 66t53 55.5q15 14 36.5 14.5t28.5 -14.5q92 -124 108 -141zM172 -1v5q-48 -74 -65 -96q-22 -29 -52 -37t-55 9t-31 55
q-11 78 11 193t49 160q60 137 139 134q91 -6 118.5 -31t12.5 -62q42 8 70 4t45 -15q31 -16 -48 -101q-72 -69 -81 -192t47 -205q165 19 235 18q44 0 65.5 -14t31.5 -48q22 -149 -67 -187q-74 -31 -184 27q-85 44 -148 121l-202.5 -35.5l-236.5 -40.5l-238.5 -39.5
t-251.5 -39l-230 -31t-219.5 -23.5t-174.5 -8.5t-140.5 6t-74.5 26.5q-27 23 -31.5 89t6 121t19.5 55q63 -170 831 -111q240 19 823 92l73 9q-52 94 -46 192zM250 278q13 78 -15 72q-30 -7 -81 -93q-71 -119 -80 -213q-4 -38 6 -62q3 -3 6 -3.5t11 8t14.5 16.5t16.5 22.5
l18 26l18.5 27l17.5 25.5q4 12 10 27.5l22.5 57zM621 -224q-8 6 -25 7.5t-42.5 -1t-49 -6.5t-56 -9l-52.5 -8q93 -54 225 17z" />
    <glyph glyph-name="a42" unicode="&#x272f;" horiz-adv-x="436" 
d="M82 531q-5 -3 -18 10t-9 18l5 7q5 8 11.5 17t17.5 20.5t23 21.5t28.5 17.5t33 10.5t37.5 -1t42 -16q51 -29 91.5 -34t55.5 4l16 10q30 25 37 4q8 -24 -18 -56q-3 -4 -6 -7q-101 -101 -168 -54q-6 5 -24.5 18.5t-23 17t-19 12t-20.5 9t-18.5 2.5t-22 -2.5l-23 -11
t-28.5 -17.5zM172 -1v5q-48 -74 -65 -96q-22 -29 -52 -37t-55 9t-31 55q-11 78 11 193t49 160q60 137 139 134q91 -6 118.5 -31t12.5 -62q42 8 70 4t45 -15q31 -16 -48 -101q-72 -69 -81 -192t47 -205q165 19 235 18q44 0 65.5 -14t31.5 -48q22 -149 -67 -187
q-74 -31 -184 27q-85 44 -148 121l-202.5 -35.5l-236.5 -40.5l-238.5 -39.5t-251.5 -39l-230 -31t-219.5 -23.5t-174.5 -8.5t-140.5 6t-74.5 26.5q-27 23 -31.5 89t6 121t19.5 55q63 -170 831 -111q240 19 823 92l73 9q-52 94 -46 192zM250 278q13 78 -15 72q-30 -7 -81 -93
q-71 -119 -80 -213q-4 -38 6 -62q3 -3 6 -3.5t11 8t14.5 16.5t16.5 22.5l18 26l18.5 27l17.5 25.5q4 12 10 27.5l22.5 57zM621 -224q-8 6 -25 7.5t-42.5 -1t-49 -6.5t-56 -9l-52.5 -8q93 -54 225 17z" />
    <glyph glyph-name="a43" unicode="&#x2730;" horiz-adv-x="436" 
d="M155 519q-6 7 -6 23q0 29 23 57t49 28q24 0 41 -26q5 -7 5 -20q0 -29 -22.5 -59t-49.5 -30q-24 0 -40 27zM325 519q-6 7 -6 23q0 29 23 57t49 28q24 0 41 -26q5 -7 5 -20q0 -29 -22.5 -59t-49.5 -30q-24 0 -40 27zM172 -1v5q-48 -74 -65 -96q-22 -29 -52 -37t-55 9
t-31 55q-11 78 11 193t49 160q60 137 139 134q91 -6 118.5 -31t12.5 -62q42 8 70 4t45 -15q31 -16 -48 -101q-72 -69 -81 -192t47 -205q165 19 235 18q44 0 65.5 -14t31.5 -48q22 -149 -67 -187q-74 -31 -184 27q-85 44 -148 121l-202.5 -35.5l-236.5 -40.5l-238.5 -39.5
t-251.5 -39l-230 -31t-219.5 -23.5t-174.5 -8.5t-140.5 6t-74.5 26.5q-27 23 -31.5 89t6 121t19.5 55q63 -170 831 -111q240 19 823 92l73 9q-52 94 -46 192zM250 278q13 78 -15 72q-30 -7 -81 -93q-71 -119 -80 -213q-4 -38 6 -62q3 -3 6 -3.5t11 8t14.5 16.5t16.5 22.5
l18 26l18.5 27l17.5 25.5q4 12 10 27.5l22.5 57zM621 -224q-8 6 -25 7.5t-42.5 -1t-49 -6.5t-56 -9l-52.5 -8q93 -54 225 17z" />
    <glyph glyph-name="a44" unicode="&#x2731;" horiz-adv-x="436" 
d="M239 553q0 34 24.5 58t59.5 25q44 1 65 -22t21 -61q0 -34 -25.5 -58t-60.5 -25q-42 -1 -63 22.5t-21 60.5zM293 531q9 -12 24 -14.5t27 6.5q13 9 16 24.5t-5 27.5t-24 14t-29 -7q-12 -9 -14.5 -23.5t5.5 -27.5zM172 -1v5q-48 -74 -65 -96q-22 -29 -52 -37t-55 9t-31 55
q-11 78 11 193t49 160q60 137 139 134q91 -6 118.5 -31t12.5 -62q42 8 70 4t45 -15q31 -16 -48 -101q-72 -69 -81 -192t47 -205q165 19 235 18q44 0 65.5 -14t31.5 -48q22 -149 -67 -187q-74 -31 -184 27q-85 44 -148 121l-202.5 -35.5l-236.5 -40.5l-238.5 -39.5
t-251.5 -39l-230 -31t-219.5 -23.5t-174.5 -8.5t-140.5 6t-74.5 26.5q-27 23 -31.5 89t6 121t19.5 55q63 -170 831 -111q240 19 823 92l73 9q-52 94 -46 192zM250 278q13 78 -15 72q-30 -7 -81 -93q-71 -119 -80 -213q-4 -38 6 -62q3 -3 6 -3.5t11 8t14.5 16.5t16.5 22.5
l18 26l18.5 27l17.5 25.5q4 12 10 27.5l22.5 57zM621 -224q-8 6 -25 7.5t-42.5 -1t-49 -6.5t-56 -9l-52.5 -8q93 -54 225 17z" />
    <glyph glyph-name="a45" unicode="&#x2732;" horiz-adv-x="453" 
d="M215 705q6 -11 43.5 -63t58.5 -90.5t10 -49.5q-14 -15 -93.5 33t-129.5 106q-25 26 8 58q31 31 68 28q24 -2 35 -22zM173 0v5q-48 -74 -65 -96q-22 -29 -52 -37t-55 9t-31 55q-11 78 11 193t49 160q60 137 139 134q91 -6 118.5 -31t12.5 -62q42 8 70 4t45 -15
q31 -16 -48 -101q-60 -58 -79 -178q-18 -116 18 -177q32 -53 95 -26q-15 -72 -69 -94q-54 -23 -100 23q-69 67 -59 234zM251 279q13 78 -15 72q-30 -7 -81 -93q-71 -119 -80 -213q-4 -38 6 -62q3 -3 6 -3.5t11 8t14.5 16.5t16.5 22.5l18 26l18.5 27l17.5 25.5q4 12 10 27.5
l22.5 57z" />
    <glyph glyph-name="a46" unicode="&#x2733;" horiz-adv-x="453" 
d="M385 716q20 34 68 17q38 -15 50 -44q9 -21 -7 -37q-50 -58 -129.5 -106t-93.5 -33q-11 11 10 49.5t58.5 90.5t43.5 63zM173 0v5q-48 -74 -65 -96q-22 -29 -52 -37t-55 9t-31 55q-11 78 11 193t49 160q60 137 139 134q91 -6 118.5 -31t12.5 -62q42 8 70 4t45 -15
q31 -16 -48 -101q-60 -58 -79 -178q-18 -116 18 -177q32 -53 95 -26q-15 -72 -69 -94q-54 -23 -100 23q-69 67 -59 234zM251 279q13 78 -15 72q-30 -7 -81 -93q-71 -119 -80 -213q-4 -38 6 -62q3 -3 6 -3.5t11 8t14.5 16.5t16.5 22.5l18 26l18.5 27l17.5 25.5q4 12 10 27.5
l22.5 57z" />
    <glyph glyph-name="a47" unicode="&#x2734;" horiz-adv-x="453" 
d="M406 506q12 -14 3.5 -27t-28.5 -12q-9 1 -56.5 30.5t-64.5 51.5q-58 -27 -99 -60q-21 -15 -65 -11q-25 3 -23 13q0 2 3 5q2 1 33.5 29.5l70.5 66t53 55.5q15 14 36.5 14.5t28.5 -14.5q92 -124 108 -141zM173 0v5q-48 -74 -65 -96q-22 -29 -52 -37t-55 9t-31 55
q-11 78 11 193t49 160q60 137 139 134q91 -6 118.5 -31t12.5 -62q42 8 70 4t45 -15q31 -16 -48 -101q-60 -58 -79 -178q-18 -116 18 -177q32 -53 95 -26q-15 -72 -69 -94q-54 -23 -100 23q-69 67 -59 234zM251 279q13 78 -15 72q-30 -7 -81 -93q-71 -119 -80 -213
q-4 -38 6 -62q3 -3 6 -3.5t11 8t14.5 16.5t16.5 22.5l18 26l18.5 27l17.5 25.5q4 12 10 27.5l22.5 57z" />
    <glyph glyph-name="a48" unicode="&#x2735;" horiz-adv-x="453" 
d="M82 531q-5 -3 -18 10t-9 18l5 7q5 8 11.5 17t17.5 20.5t23 21.5t28.5 17.5t33 10.5t37.5 -1t42 -16q51 -29 91.5 -34t55.5 4l16 10q30 25 37 4q8 -24 -18 -56q-3 -4 -6 -7q-101 -101 -168 -54q-6 5 -24.5 18.5t-23 17t-19 12t-20.5 9t-18.5 2.5t-22 -2.5l-23 -11
t-28.5 -17.5zM173 0v5q-48 -74 -65 -96q-22 -29 -52 -37t-55 9t-31 55q-11 78 11 193t49 160q60 137 139 134q91 -6 118.5 -31t12.5 -62q42 8 70 4t45 -15q31 -16 -48 -101q-60 -58 -79 -178q-18 -116 18 -177q32 -53 95 -26q-15 -72 -69 -94q-54 -23 -100 23
q-69 67 -59 234zM251 279q13 78 -15 72q-30 -7 -81 -93q-71 -119 -80 -213q-4 -38 6 -62q3 -3 6 -3.5t11 8t14.5 16.5t16.5 22.5l18 26l18.5 27l17.5 25.5q4 12 10 27.5l22.5 57z" />
    <glyph glyph-name="a49" unicode="&#x2736;" horiz-adv-x="453" 
d="M155 519q-6 7 -6 23q0 29 23 57t49 28q24 0 41 -26q5 -7 5 -20q0 -29 -22.5 -59t-49.5 -30q-24 0 -40 27zM325 519q-6 7 -6 23q0 29 23 57t49 28q24 0 41 -26q5 -7 5 -20q0 -29 -22.5 -59t-49.5 -30q-24 0 -40 27zM173 0v5q-48 -74 -65 -96q-22 -29 -52 -37t-55 9t-31 55
q-11 78 11 193t49 160q60 137 139 134q91 -6 118.5 -31t12.5 -62q42 8 70 4t45 -15q31 -16 -48 -101q-60 -58 -79 -178q-18 -116 18 -177q32 -53 95 -26q-15 -72 -69 -94q-54 -23 -100 23q-69 67 -59 234zM251 279q13 78 -15 72q-30 -7 -81 -93q-71 -119 -80 -213
q-4 -38 6 -62q3 -3 6 -3.5t11 8t14.5 16.5t16.5 22.5l18 26l18.5 27l17.5 25.5q4 12 10 27.5l22.5 57z" />
    <glyph glyph-name="a50" unicode="&#x2737;" horiz-adv-x="453" 
d="M239 553q0 34 24.5 58t59.5 25q44 1 65 -22t21 -61q0 -34 -25.5 -58t-60.5 -25q-42 -1 -63 22.5t-21 60.5zM293 531q9 -12 24 -14.5t27 6.5q13 9 16 24.5t-5 27.5t-24 14t-29 -7q-12 -9 -14.5 -23.5t5.5 -27.5zM173 0v5q-48 -74 -65 -96q-22 -29 -52 -37t-55 9t-31 55
q-11 78 11 193t49 160q60 137 139 134q91 -6 118.5 -31t12.5 -62q42 8 70 4t45 -15q31 -16 -48 -101q-60 -58 -79 -178q-18 -116 18 -177q32 -53 95 -26q-15 -72 -69 -94q-54 -23 -100 23q-69 67 -59 234zM251 279q13 78 -15 72q-30 -7 -81 -93q-71 -119 -80 -213
q-4 -38 6 -62q3 -3 6 -3.5t11 8t14.5 16.5t16.5 22.5l18 26l18.5 27l17.5 25.5q4 12 10 27.5l22.5 57z" />
    <glyph glyph-name="CR" horiz-adv-x="257" 
 />
    <glyph glyph-name="at.alt" horiz-adv-x="883" 
d="M460 -205q100 28 183 80.5t138 118t91 131.5t56 136q3 11 10 1q9 -13 4 -38q-21 -76 -57 -142.5t-74.5 -112t-85.5 -83.5t-85.5 -60.5t-78.5 -40.5q-255 -107 -404 2q-108 79 -128 244q-19 163 55 316q78 160 221 222q155 68 349 0q185 -66 181 -241q-3 -134 -106 -280
q-78 -110 -158 -152q-60 -32 -90 -2q-15 16 -2 174q-77 -123 -104 -159q-15 -20 -40.5 -35t-43.5 -4q-21 7 -36.5 26.5t-17.5 39.5q-11 78 11 193t49 160q60 137 139 134q49 -3 80.5 -12.5t42.5 -22t14 -28t-6 -30.5q35 10 66.5 5t48.5 -16q30 -15 -38 -91
q-62 -162 -57 -265q79 67 128 144t61 147.5t-5 131t-69 101t-131 51.5q-151 21 -271 -115q-101 -114 -136 -278q-34 -165 23 -269q67 -123 235 -90q19 4 38 9zM345 -12q37 25 146 177q9 64 26 108q15 91 -15 86t-79 -88q-69 -119 -79 -226q-3 -32 1 -57z" />
    <glyph glyph-name="zero.alt" horiz-adv-x="501" 
d="M79 -68q-34 30 -36 113t21 172t71.5 167t105.5 99q71 22 119.5 1t72 -66t16.5 -94q-1 -69 -43.5 -163.5t-96.5 -165t-92 -85.5q-71 -28 -105 8q-20 0 -33 14zM153 -44q20 -9 56.5 37.5t75 143.5t56.5 209q9 72 -18 66q-31 -7 -86 -102q-76 -133 -93 -250q-8 -66 9 -104z
" />
    <glyph glyph-name="one.alt" horiz-adv-x="285" 
d="M178 481q23 11 83.5 4t57.5 -24v-3q-18 -22 -72.5 -122t-106.5 -233t-44 -196l-4 -3q-5 -3 -13 -8.5t-16.5 -10t-17.5 -8t-15 -2.5q-14 1 -18 35.5t3 90.5t20.5 121t34.5 133t44 121q-10 -6 -26.5 -18t-26.5 -18.5t-13 -7.5q-39 5 -13 29q106 107 143 120z" />
    <glyph glyph-name="two.alt" horiz-adv-x="422" 
d="M287 -67q10 -16 13 -34t-7 -23q-1 0 -1 -1q-6 3 -50.5 8.5t-108.5 9.5t-108 1q-53 -36 -90 -10q-29 21 -20 54q11 43 80 52q10 2 20 2q100 103 178 241q89 158 49 200q-6 6 -14 9q-36 1 -57 -30t-25 -69.5t-6.5 -71t-5.5 -32.5q-71 -2 -81 55q-10 56 37 119q43 57 104 75
q76 23 139 -2q90 -36 57 -150q-39 -134 -248 -352q82 -14 145 -51z" />
    <glyph glyph-name="three.alt" horiz-adv-x="406" 
d="M248 207q111 -43 88 -135q-19 -73 -106 -138q-92 -68 -175 -65q-93 2 -111 104q-6 32 -3 74q1 9 4.5 14.5t9 6.5t11.5 0.5t11.5 -3l10.5 -5t8 -4.5l2 -2q-3 0 -7 -24t8 -49.5t45 -29.5q79 -12 155 43q59 44 63 89q4 43 -55 55q-24 5 -58 3q-62 -54 -117 -37
q-35 10 -39 40q-5 38 49 62q32 14 81 18q85 77 121 149q32 63 -7 73q-36 9 -58.5 -11t-29 -49t-10.5 -54.5t-6 -25.5q-70 -2 -76 44q-5 44 44 90q40 37 93 50q129 30 177 -29q39 -49 0 -127q-36 -71 -123 -127z" />
    <glyph glyph-name="four.alt" horiz-adv-x="450" 
d="M306 483q25 5 80 0t52 -20q0 -2 -1 -3q-10 -12 -58.5 -116t-86.5 -203q14 2 31 3.5t25 2.5l7 1q25 0 17 -37q-8 -41 -35 -60q-8 -5 -16 -6q-14 -3 -65 -5q-28 -87 -20 -139l-4 -3q-3 -3 -10 -7.5l-14 -9t-15 -7.5t-14 -2q-35 3 -16 165q-162 -4 -173 16q-8 17 -2 37
t18 30q39 37 106 129.5l120 161.5t74 72zM205 259l-109 -135l81 6q10 58 28 129z" />
    <glyph glyph-name="five.alt" horiz-adv-x="428" 
d="M453 435q-104 -55 -200 -60q-33 -61 -87 -130q189 -17 209 -113q15 -71 -63 -155q-73 -77 -164 -103q-106 -30 -150 44q-28 47 -24 130q2 13 8.5 18t14.5 4t15.5 -4.5t13 -7t5.5 -4.5q-24 -100 47 -108q59 -6 140 45q71 45 82 87q11 40 -51 51q-72 13 -231 -18
q-14 19 -13.5 48.5t20.5 42.5q39 73 59.5 124t56.5 170q62 -16 184.5 -14.5t133.5 10.5l1 -1q10 -4 7 -22.5t-14 -33.5z" />
    <glyph glyph-name="six.alt" horiz-adv-x="475" 
d="M200 -132q-103 -20 -153 70q-48 86 -22 215q29 149 137 243q114 99 279 98q33 0 22 -57q-158 0 -254 -142q144 29 185 -64q33 -74 -11 -183q-41 -103 -118 -153q-32 -21 -65 -27zM180 243q-36 -73 -42.5 -148.5t17.5 -122.5q27 -44 74 1q47 44 68 122q25 97 -27 134
q-32 22 -90 14z" />
    <glyph glyph-name="seven.alt" horiz-adv-x="428" 
d="M50 480q12 -2 31 -2t41.5 0.5t48.5 1.5t52 3l50.5 4t46 3.5t38 3t26.5 2.5l9 1q26 0 18 -38q-9 -41 -36 -61q-9 -6 -18 -7q-53 -78 -100.5 -155.5t-91 -178t-36.5 -152.5l-4 -3q-4 -4 -10.5 -8.5t-14 -9t-15.5 -7.5t-14 -2q-15 1 -16 37t10.5 94t31 124.5t46.5 135.5
t54 121q-163 0 -174 20t0.5 47t26.5 26z" />
    <glyph glyph-name="eight.alt" horiz-adv-x="395" 
d="M202 190q112 -131 53 -227q-40 -64 -136 -85q-93 -20 -153 16q-71 44 -30 138q36 80 150 181q-37 19 -56.5 52t-19 67t14 69t42.5 59t66 35t85 -2q135 3 151 -72q14 -62 -55 -142q-46 -53 -112 -89zM134 149q-45 -23 -74.5 -48.5t-40.5 -47.5t-12 -42.5t7 -34.5t20 -23
q50 -37 94 0q42 35 41 99q-1 53 -35 97zM206 443q-47 -25 -71.5 -52t-27 -50.5t5 -42.5t23.5 -35q151 165 72 180h-2z" />
    <glyph glyph-name="nine.alt" horiz-adv-x="416" 
d="M256 491q69 -9 98 -97q34 -102 -4 -230q-47 -153 -171 -231q-97 -61 -226 -60q-31 0 -22 57q154 -1 250 139q-114 -35 -162 47q-41 70 -15 176q26 111 103 167q66 47 149 32zM211 121q35 71 41 145.5t-18 120.5q-26 44 -73 -1q-46 -44 -66 -122q-24 -95 28 -130
q31 -21 88 -13z" />
    <glyph glyph-name="one.sw" horiz-adv-x="403" 
d="M280 795l1 1q35 16 126.5 5t87.5 -36q0 -3 -1 -4q-18 -22 -75 -122t-124.5 -233t-115 -272.5t-38.5 -213.5l-34 -25q-33 -21 -51 -19q-22 2 -27.5 54.5t5 137t31 183t52.5 202.5t67 184q-2 -1 -42 -29q-166 -121 -306 -118q-93 2 -125 57q-33 57 24 132q37 -34 87 -48.5
t117 -7t155 50.5t186 121z" />
    <glyph glyph-name="two.sw" horiz-adv-x="630" 
d="M1187 -412q-79 -66 -375 61q-92 40 -391 189l-27 13q-50 23 -103 44t-122 38.5t-100 8.5q-81 -70 -141 -45q-39 16 -42 60q-3 52 49 84q38 24 97 26q129 131 237 313q123 207 101 292q-7 29 -33 39q-51 2 -81 -43t-36 -100t-9.5 -101.5t-7.5 -46.5q-95 -3 -114 71
q-17 68 36 154q58 94 153 127q5 2 11 4q94 28 179 2q109 -33 111 -141q5 -205 -390 -606q82 -20 162 -54l117 -45l121 -47.5l116.5 -45t114 -39t103 -27.5t94 -13.5t77 6.5t61.5 29.5t38 57.5q9 0 19.5 -55t6 -121t-31.5 -89z" />
    <glyph glyph-name="three.sw" horiz-adv-x="659" 
d="M361 369q78 -31 111 -80t22 -103t-47.5 -107t-94.5 -100q48 -18 116.5 -46l120.5 -49.5l116 -46.5t113 -40.5t102.5 -29t94 -14.5t76.5 6t61 29t38 57q9 0 19.5 -55t6 -121t-31.5 -89q-26 -22 -73 -23.5t-110 17.5t-130.5 45.5t-151 67.5l-155 77.5l-159 81l-146.5 72.5
q-72 -38 -137.5 -48.5t-121 17.5t-77.5 98q-11 36 8 56q20 23 85 24q83 0 219 -43q39 19 71 46t51.5 55.5t23 56t-10.5 48.5t-54 33t-102 9q-84 -73 -162 -58q-51 11 -66 51q-17 46 34 84t155 47q111 98 169 200q63 109 2 127q-1 1 -3 1q-43 11 -72.5 -6.5t-43 -50.5
t-20.5 -67t-10 -59t-6 -25q-96 -3 -111 58q-13 54 43 119q62 72 158 95q175 41 250 -32q60 -58 27 -158q-37 -114 -171 -209zM59 -11q19 -3 40 -3q-53 19 -89 23q19 -16 49 -20z" />
    <glyph glyph-name="five.sw" horiz-adv-x="659" 
d="M253 29h-1q99 50 145 114q52 71 -15 101q-92 41 -378 -15q-20 34 -20 74t30 60q58 106 87.5 181t82.5 249q53 -16 165 -20t201.5 1.5t98.5 12.5l1 -1q14 -6 10 -33t-19 -49q-151 -80 -293 -88q-53 -96 -129 -191q103 -9 173 -35.5t100 -63.5t36 -81t-14 -90.5
t-54.5 -90.5t-81.5 -82q48 -18 116.5 -46l120.5 -49.5l116 -46.5t113 -40.5t102.5 -29t94 -14.5t76.5 6t61 29t38 57q9 0 19.5 -55t6 -121t-31.5 -89q-26 -22 -73 -23.5t-110 17.5t-130.5 45.5t-151 67.5l-155 77.5l-159 81l-146.5 72.5q-72 -38 -137.5 -48.5t-121 17.5
t-77.5 98q-11 36 8 56q20 23 85 24q88 0 211 -39zM85 -8q19 -3 40 -3q-53 19 -89 23q19 -16 49 -20z" />
    <glyph glyph-name="six.sw" horiz-adv-x="609" 
d="M240 -136q-143 -27 -218 87q-68 106 -49 280q21 192 138 344q42 54 93 97q189 158 392 183q144 17 224 -38q69 -48 42 -124q-12 -34 -44 -69q-29 40 -95 61t-146 16.5t-169.5 -57t-153.5 -149.5q197 40 264 -77q53 -93 9 -240q-42 -139 -139 -232q-71 -67 -148 -82z
M174 18q36 -60 99 -7q60 49 97 151q45 124 6 197q-20 38 -63 53q-48 12 -74.5 -17.5t-29.5 -74.5t6 -87.5t24 -54.5q11 -7 6.5 -23.5t-22.5 -13.5q-44 7 -76 52q-8 -107 27 -175z" />
    </font>
</defs>
</svg>
